<mxfile host="Electron" modified="2023-06-26T14:07:43.763Z" agent="Mozilla/5.0 (Macintosh; Intel Mac OS X 10_15_7) AppleWebKit/537.36 (KHTML, like Gecko) draw.io/21.3.7 Chrome/112.0.5615.204 Electron/24.5.0 Safari/537.36" etag="r4U16NQdJfPY1BKgABtj" version="21.3.7" type="device" pages="2">
  <diagram name="English" id="rYPuGZNjzFvSk5AbUV1k">
    <mxGraphModel dx="1273" dy="6777" grid="1" gridSize="10" guides="1" tooltips="1" connect="0" arrows="1" fold="1" page="1" pageScale="1" pageWidth="1169" pageHeight="827" background="none" math="0" shadow="0">
      <root>
        <mxCell id="0" />
        <mxCell id="1" parent="0" />
        <mxCell id="0iEBDOv3ILu3kZ8N8QKH-1" value="" style="group" vertex="1" connectable="0" parent="1">
          <mxGeometry y="-5787.389999999999" width="979" height="273.35849999999937" as="geometry" />
        </mxCell>
        <mxCell id="kuL6DLgfm3cLlOCiXe2V-29" value="&lt;b&gt;&lt;font color=&quot;#ae562c&quot;&gt;PSP&lt;/font&gt;&lt;/b&gt;" style="whiteSpace=wrap;html=1;strokeWidth=1;dashed=1;align=left;fontFamily=Calibri;verticalAlign=top;fillColor=none;fontColor=#312d2a;strokeColor=#AE562C;dashPattern=1 1;fontSize=12;perimeterSpacing=0;spacingLeft=60;container=0;" parent="0iEBDOv3ILu3kZ8N8QKH-1" vertex="1">
          <mxGeometry x="410" y="23.358499999999367" width="200" height="250" as="geometry" />
        </mxCell>
        <mxCell id="kuL6DLgfm3cLlOCiXe2V-53" value="&lt;b&gt;&lt;font&gt;VCN IGD&lt;/font&gt;&lt;/b&gt;" style="whiteSpace=wrap;html=1;strokeWidth=2;dashed=1;align=left;fontFamily=Calibri;verticalAlign=top;fillColor=none;fontColor=#AE562C;strokeColor=#AE562C;perimeterSpacing=0;fontSize=12;spacingLeft=5;container=0;" parent="0iEBDOv3ILu3kZ8N8QKH-1" vertex="1">
          <mxGeometry x="417.78" y="67.35849999999937" width="172.22" height="196" as="geometry" />
        </mxCell>
        <mxCell id="F5BmnTT7dxyMHlXGKzny-9" value="&lt;div&gt;&lt;b&gt;&lt;font face=&quot;Calibri&quot;&gt;Regional Private&lt;/font&gt;&lt;/b&gt;&lt;/div&gt;&lt;div&gt;&lt;b&gt;&lt;font face=&quot;Calibri&quot;&gt;Subnet J&lt;/font&gt;&lt;/b&gt;&lt;/div&gt;&lt;font face=&quot;Calibri&quot; color=&quot;#312d2a&quot;&gt;10.0.2.0/24&lt;/font&gt;" style="whiteSpace=wrap;html=1;strokeWidth=1;dashed=1;align=left;fontFamily=Oracle Sans;verticalAlign=top;fillColor=none;fontColor=#AE562C;perimeterSpacing=0;strokeColor=#AE562C;fontSize=12;spacingLeft=5;direction=south;container=0;" parent="0iEBDOv3ILu3kZ8N8QKH-1" vertex="1">
          <mxGeometry x="439.76" y="95.4384999999993" width="113.58" height="157.92" as="geometry" />
        </mxCell>
        <mxCell id="kuL6DLgfm3cLlOCiXe2V-1" value="&lt;b&gt;&lt;font&gt;Participant Data Center&lt;/font&gt;&lt;/b&gt;" style="whiteSpace=wrap;html=1;align=center;fontFamily=Calibri;verticalAlign=top;fillColor=#F5F4F2;rounded=1;arcSize=4;strokeColor=#9E9892;fontColor=#312D2A;fontSize=12;container=0;" parent="0iEBDOv3ILu3kZ8N8QKH-1" vertex="1">
          <mxGeometry y="94.9984999999997" width="160" height="171.36" as="geometry" />
        </mxCell>
        <mxCell id="kuL6DLgfm3cLlOCiXe2V-2" value="&lt;b style=&quot;border-color: var(--border-color); color: rgb(49, 45, 42);&quot;&gt;Participant&lt;/b&gt;&amp;nbsp;Premise&lt;br&gt;Equipment" style="whiteSpace=wrap;html=1;strokeWidth=1;dashed=1;align=center;fontFamily=Calibri;verticalAlign=top;fontSize=12;dashPattern=1 1;glass=0;rounded=1;arcSize=2;container=0;" parent="0iEBDOv3ILu3kZ8N8QKH-1" vertex="1">
          <mxGeometry x="15" y="118.91849999999977" width="134" height="137.44" as="geometry" />
        </mxCell>
        <mxCell id="kuL6DLgfm3cLlOCiXe2V-3" value="" style="shape=image;verticalLabelPosition=bottom;verticalAlign=top;imageAspect=0;aspect=fixed;image=data:image/svg+xml,PHN2ZyB4bWxucz0iaHR0cDovL3d3dy53My5vcmcvMjAwMC9zdmciIHZpZXdCb3g9IjAgMCA0MiA0MiIgZGF0YS1uYW1lPSJMYXllciAxIiBpZD0iTGF5ZXJfMSI+PHRpdGxlPkN1c3RvbWVyIFByZW1pc2VzIEVxdWlwbWVudDwvdGl0bGU+PG1ldGFkYXRhPiYjeGE7JiN4YTsgICAmI3hhOyAgICAgICYjeGE7ICAgICAgICAgJiN4YTsgICAgICAgICAgICAmI3hhOyAgICAgICAgICAgICAgIEN1c3RvbWVyIFByZW1pc2VzIEVxdWlwbWVudCYjeGE7ICAgICAgICAgICAgJiN4YTsgICAgICAgICAmI3hhOyAgICAgICAgICYjeGE7ICAgICAgICAgICAgJiN4YTsgICAgICAgICAgICAgICBpY29uJiN4YTsgICAgICAgICAgICAgICBDdXN0b21lciYjeGE7ICAgICAgICAgICAgICAgT24gUHJlbWlzZXMmI3hhOyAgICAgICAgICAgICAgIEVxdWlwbWVudCYjeGE7ICAgICAgICAgICAgICAgcm91dGVyJiN4YTsgICAgICAgICAgICAgICBDUEUmI3hhOyAgICAgICAgICAgICYjeGE7ICAgICAgICAgJiN4YTsgICAgICAgICAyMDIyLTEwLTIxVDEzOjQ1OjI5LTA1OjAwJiN4YTsgICAgICAgICB4bXAuaWlkOmFjYzRmMGU5LTllN2YtNDc5NC04NzY2LTVmNGM1Yjc2ZDMzMCYjeGE7ICAgICAgICAgeG1wLmRpZDpiZjI1OWIzYi0zNjZiLTQzYmUtYjY0MS04OGNlMjM1ODM1ODMmI3hhOyAgICAgICAgIHhtcC5kaWQ6YmYyNTliM2ItMzY2Yi00M2JlLWI2NDEtODhjZTIzNTgzNTgzJiN4YTsgICAgICAgICAmI3hhOyAgICAgICAgICAgICYjeGE7ICAgICAgICAgICAgICAgJiN4YTsgICAgICAgICAgICAgICAgICAmI3hhOyAgICAgICAgICAgICAgICAgICAgIHNhdmVkJiN4YTsgICAgICAgICAgICAgICAgICAgICB4bXAuaWlkOmJmMjU5YjNiLTM2NmItNDNiZS1iNjQxLTg4Y2UyMzU4MzU4MyYjeGE7ICAgICAgICAgICAgICAgICAgICAgMjAyMS0wOC0zMVQxNTo0MzowMy0wNTowMCYjeGE7ICAgICAgICAgICAgICAgICAgICAgQWRvYmUgQnJpZGdlIDIwMjEgKE1hY2ludG9zaCkmI3hhOyAgICAgICAgICAgICAgICAgICAgIC9tZXRhZGF0YSYjeGE7ICAgICAgICAgICAgICAgICAgJiN4YTsgICAgICAgICAgICAgICAmI3hhOyAgICAgICAgICAgICAgICYjeGE7ICAgICAgICAgICAgICAgICAgJiN4YTsgICAgICAgICAgICAgICAgICAgICBzYXZlZCYjeGE7ICAgICAgICAgICAgICAgICAgICAgeG1wLmlpZDphY2M0ZjBlOS05ZTdmLTQ3OTQtODc2Ni01ZjRjNWI3NmQzMzAmI3hhOyAgICAgICAgICAgICAgICAgICAgIDIwMjItMTAtMjFUMTM6NDU6MjktMDU6MDAmI3hhOyAgICAgICAgICAgICAgICAgICAgIEFkb2JlIEJyaWRnZSAyMDIxIChNYWNpbnRvc2gpJiN4YTsgICAgICAgICAgICAgICAgICAgICAvbWV0YWRhdGEmI3hhOyAgICAgICAgICAgICAgICAgICYjeGE7ICAgICAgICAgICAgICAgJiN4YTsgICAgICAgICAgICAmI3hhOyAgICAgICAgICYjeGE7ICAgICAgJiN4YTsgICAmI3hhOyYjeGE7ICAgICAgICAgICAgICAgICAgICAgICAgICAgICAgICAgICAgICAgICAgICAgICAgICAgICAgICAgICAgICAgICAgICAgICAgICAgICAgICAgICAgICAgICAgICAgICAgICAgICYjeGE7ICAgICAgICAgICAgICAgICAgICAgICAgICAgICAgICAgICAgICAgICAgICAgICAgICAgICAgICAgICAgICAgICAgICAgICAgICAgICAgICAgICAgICAgICAgICAgICAgICAgICYjeGE7ICAgICAgICAgICAgICAgICAgICAgICAgICAgICAgICAgICAgICAgICAgICAgICAgICAgICAgICAgICAgICAgICAgICAgICAgICAgICAgICAgICAgICAgICAgICAgICAgICAgICYjeGE7ICAgICAgICAgICAgICAgICAgICAgICAgICAgICAgICAgICAgICAgICAgICAgICAgICAgICAgICAgICAgICAgICAgICAgICAgICAgICAgICAgICAgICAgICAgICAgICAgICAgICYjeGE7ICAgICAgICAgICAgICAgICAgICAgICAgICAgICAgICAgICAgICAgICAgICAgICAgICAgICAgICAgICAgICAgICAgICAgICAgICAgICAgICAgICAgICAgICAgICAgICAgICAgICYjeGE7ICAgICAgICAgICAgICAgICAgICAgICAgICAgICAgICAgICAgICAgICAgICAgICAgICAgICAgICAgICAgICAgICAgICAgICAgICAgICAgICAgICAgICAgICAgICAgICAgICAgICYjeGE7ICAgICAgICAgICAgICAgICAgICAgICAgICAgICAgICAgICAgICAgICAgICAgICAgICAgICAgICAgICAgICAgICAgICAgICAgICAgICAgICAgICAgICAgICAgICAgICAgICAgICYjeGE7ICAgICAgICAgICAgICAgICAgICAgICAgICAgICAgICAgICAgICAgICAgICAgICAgICAgICAgICAgICAgICAgICAgICAgICAgICAgICAgICAgICAgICAgICAgICAgICAgICAgICYjeGE7ICAgICAgICAgICAgICAgICAgICAgICAgICAgICAgICAgICAgICAgICAgICAgICAgICAgICAgICAgICAgICAgICAgICAgICAgICAgICAgICAgICAgICAgICAgICAgICAgICAgICYjeGE7ICAgICAgICAgICAgICAgICAgICAgICAgICAgICAgICAgICAgICAgICAgICAgICAgICAgICAgICAgICAgICAgICAgICAgICAgICAgICAgICAgICAgICAgICAgICAgICAgICAgICYjeGE7ICAgICAgICAgICAgICAgICAgICAgICAgICAgICAgICAgICAgICAgICAgICAgICAgICAgICAgICAgICAgICAgICAgICAgICAgICAgICAgICAgICAgICAgICAgICAgICAgICAgICYjeGE7ICAgICAgICAgICAgICAgICAgICAgICAgICAgICAgICAgICAgICAgICAgICAgICAgICAgICAgICAgICAgICAgICAgICAgICAgICAgICAgICAgICAgICAgICAgICAgICAgICAgICYjeGE7ICAgICAgICAgICAgICAgICAgICAgICAgICAgICAgICAgICAgICAgICAgICAgICAgICAgICAgICAgICAgICAgICAgICAgICAgICAgICAgICAgICAgICAgICAgICAgICAgICAgICYjeGE7ICAgICAgICAgICAgICAgICAgICAgICAgICAgICAgICAgICAgICAgICAgICAgICAgJiN4YTs8L21ldGFkYXRhPiYjeGE7PHJlY3QgZmlsbD0iI2ZmZiIgcng9IjIuMTciIGhlaWdodD0iNDEiIHdpZHRoPSI0MSIgeT0iMC41IiB4PSIwLjUiLz48cGF0aCBmaWxsPSIjZmZmIiBkPSJNMzkuMzMsMUExLjY3LDEuNjcsMCwwLDEsNDEsMi42N1YzOS4zM0ExLjY3LDEuNjcsMCwwLDEsMzkuMzMsNDFIMi42N0ExLjY3LDEuNjcsMCwwLDEsMSwzOS4zM1YyLjY3QTEuNjcsMS42NywwLDAsMSwyLjY3LDFIMzkuMzNtMC0xSDIuNjdBMi42OCwyLjY4LDAsMCwwLDAsMi42N1YzOS4zM0EyLjY4LDIuNjgsMCwwLDAsMi42Nyw0MkgzOS4zM0EyLjY4LDIuNjgsMCwwLDAsNDIsMzkuMzNWMi42N0EyLjY4LDIuNjgsMCwwLDAsMzkuMzMsMFoiLz48cGF0aCBmaWxsPSIjMmM1OTY3IiBkPSJNMzkuMzMsMUgyLjY3QTEuNjcsMS42NywwLDAsMCwxLDIuNjdWMzkuMzNBMS42NywxLjY3LDAsMCwwLDIuNjcsNDFIMzkuMzNBMS42NywxLjY3LDAsMCwwLDQxLDM5LjMzVjIuNjdBMS42NywxLjY3LDAsMCwwLDM5LjMzLDFabS4xOSwzOC4zM2EuMi4yLDAsMCwxLS4xOS4xOUgyLjY3YS4yLjIsMCwwLDEtLjE5LS4xOVYyLjY3YS4yLjIsMCwwLDEsLjE5LS4xOUgzOS4zM2EuMi4yLDAsMCwxLC4xOS4xOVoiLz48cGF0aCBmaWxsPSIjMmM1OTY3IiBkPSJNMjEsMy41OUExNy40MSwxNy40MSwwLDEsMCwzOC40MSwyMSwxNy40MywxNy40MywwLDAsMCwyMSwzLjU5Wm0wLDMzLjM0QTE1LjkzLDE1LjkzLDAsMSwxLDM2LjkzLDIxLDE2LDE2LDAsMCwxLDIxLDM2LjkzWiIvPjxwb2x5Z29uIGZpbGw9IiMyYzU5NjciIHBvaW50cz0iMjEuNzQgMzEuMDYgMjEuNzQgMTEuMTIgMjQgMTMuMzggMjUuMDQgMTIuMzMgMjEgOC4yOSAxNi45NiAxMi4zMyAxOCAxMy4zOCAyMC4yNiAxMS4xMiAyMC4yNiAzMS4wNiAxOCAyOC44MSAxNi45NiAyOS44NiAyMSAzMy45IDI1LjA0IDI5Ljg2IDI0IDI4LjgxIDIxLjc0IDMxLjA2Ii8+PHBvbHlnb24gZmlsbD0iIzJjNTk2NyIgcG9pbnRzPSIyNi44OSAxOCAyNS44NSAxNi45NiAyMS44IDIxIDI1Ljg1IDI1LjA0IDI2Ljg5IDI0IDI0LjY0IDIxLjc0IDMzLjc3IDIxLjc0IDMzLjc3IDIwLjI2IDI0LjY0IDIwLjI2IDI2Ljg5IDE4Ii8+PHBvbHlnb24gZmlsbD0iIzJjNTk2NyIgcG9pbnRzPSIxNi4xNSAxNi45NiAxNS4xMSAxOCAxNy4zNiAyMC4yNiA4LjIyIDIwLjI2IDguMjIgMjEuNzQgMTcuMzYgMjEuNzQgMTUuMTEgMjQgMTYuMTUgMjUuMDQgMjAuMiAyMSAxNi4xNSAxNi45NiIvPjwvc3ZnPg==;container=0;" parent="0iEBDOv3ILu3kZ8N8QKH-1" vertex="1">
          <mxGeometry x="82.5" y="169" width="42" height="42" as="geometry" />
        </mxCell>
        <mxCell id="kuL6DLgfm3cLlOCiXe2V-4" value="" style="endArrow=open;html=1;startArrow=none;startFill=0;endFill=0;rounded=0;fontFamily=Oracle Sans;fontSize=10.5;fontColor=#312D2A;labelBackgroundColor=none;strokeColor=#312D2A;endSize=6;elbow=vertical;" parent="0iEBDOv3ILu3kZ8N8QKH-1" edge="1">
          <mxGeometry x="280.5" y="196.03999999999996" width="50" height="50" as="geometry">
            <mxPoint x="61" y="189" as="sourcePoint" />
            <mxPoint x="85" y="189" as="targetPoint" />
          </mxGeometry>
        </mxCell>
        <mxCell id="kuL6DLgfm3cLlOCiXe2V-28" value="" style="endArrow=open;html=1;startArrow=open;startFill=0;endFill=0;strokeColor=#312d2a;elbow=vertical;rounded=0;fontFamily=Calibri;fontColor=#312D2A;entryX=0.821;entryY=0.286;entryDx=0;entryDy=0;entryPerimeter=0;" parent="0iEBDOv3ILu3kZ8N8QKH-1" edge="1">
          <mxGeometry x="-401.3899999999994" y="-61.61500000000069" width="50" height="50" as="geometry">
            <mxPoint x="311" y="190" as="sourcePoint" />
            <mxPoint x="122" y="190" as="targetPoint" />
          </mxGeometry>
        </mxCell>
        <mxCell id="kuL6DLgfm3cLlOCiXe2V-5" value="" style="shape=image;verticalLabelPosition=bottom;labelBackgroundColor=default;verticalAlign=top;aspect=fixed;imageAspect=0;image=data:image/svg+xml,PHN2ZyB4bWxucz0iaHR0cDovL3d3dy53My5vcmcvMjAwMC9zdmciIHhtbDpzcGFjZT0icHJlc2VydmUiIHN0eWxlPSJlbmFibGUtYmFja2dyb3VuZDpuZXcgMCAwIDQyLjk5IDQyIiB2aWV3Qm94PSIwIDAgNDIuOTkgNDIiIHk9IjAiIHg9IjAiIGlkPSJMYXllcl8xIiB2ZXJzaW9uPSIxLjEiPiYjeGE7ICAgIDxzdHlsZT4mI3hhOyAgICAgICAgLnN0MHtmaWxsOiNmZmZ9LnN0MXtmaWxsOm5vbmV9LnN0MntmaWxsOiMyYzU5Njd9JiN4YTsgICAgPC9zdHlsZT4mI3hhOyAgICA8cGF0aCBkPSJtMTAgNDEuNS0xLjg4LS45NFYyNS44M0g1LjQ4bDIuMzMgMi4zMy0xLjc2IDEuNzYtNS4zNC01LjM0IDUuMzQtNS4zNEw3LjgxIDIxbC0yLjMzIDIuMzNoMi42NVYxMS41OWgzLjczdi0xLjMxYzAtNS4yMSA0LjAxLTkuNSA5LjEzLTkuNzYuMTctLjAyLjM0LS4wMi41MS0uMDIgMi40OCAwIDQuODMuOTQgNi42MyAyLjY1IDEuOTQgMS44NCAzIDQuMzIgMyA2Ljk5djEuNDVoMy43M3YxMS43NWgyLjY1bC0yLjMzLTIuMzMgMS43Ni0xLjc2IDUuMzQgNS4zNC01LjM0IDUuMzQtMS43Ni0xLjc2IDIuMzMtMi4zM2gtMi42NXYxNC43M2wtMS44OC45NEgxMHoiIGNsYXNzPSJzdDAiLz4mI3hhOyAgICA8cGF0aCBkPSJNMjEuNSAxYzIuMzUgMCA0LjU3Ljg4IDYuMjggMi41MWE5LjA0NSA5LjA0NSAwIDAgMSAyLjg1IDYuNjN2MS45NWgzLjczdjExLjc1aDQuMzVsLTIuODMtMi44MyAxLjA2LTEuMDYgNC42MyA0LjYzLTQuNjMgNC42My0xLjA2LTEuMDYgMi44My0yLjgzaC00LjM1djE0LjkybC0xLjQ5Ljc2SDEwLjEybC0xLjUtLjc1VjI1LjMzSDQuMjdsMi44MyAyLjgzLTEuMDYgMS4wNi00LjYzLTQuNjMgNC42My00LjYzIDEuMDYgMS4wNi0yLjgzIDIuODNoNC4zNVYxMi4wOWgzLjczdi0xLjgxYzAtNC45NCAzLjgtOS4wMSA4LjY2LTkuMjYuMTctLjAyLjMzLS4wMi40OS0uMDJtMC0xYy0uMTggMC0uMzYgMC0uNTQuMDEtNS4zOS4yOC05LjYgNC43OS05LjYgMTAuMjZ2LjgxSDcuNjJ2OS4wM2wtLjg3LS44Ny0uNzEtLjcxLS43MS43MUwuNyAyMy44N2wtLjcuNzIuNzEuNzEgNC42MyA0LjYzLjcxLjcxLjcxLS43MS44Ny0uODdWNDAuODhsLjU1LjI4IDEuNS43NS4yLjA5aDIzLjI0bC4yMS0uMTEgMS41LS43NS41NS0uMjhWMjkuMDRsLjg3Ljg3LjcxLjcxLjcxLS43MSA0LjYzLTQuNjMuNzEtLjcxLS43MS0uNzEtNC42My00LjYzLS43MS0uNzEtLjcxLjcxLS44Ny44N3YtOS4wM2gtMy43M3YtLjk1YzAtMi44MS0xLjEyLTUuNDItMy4xNi03LjM1QTEwLjIxIDEwLjIxIDAgMCAwIDIxLjUgMHptMTMuODcgMjIuODR2LS45NGwuOTQuOTRoLS45NHptLTI4LjY5IDAgLjk0LS45NHYuOTRoLS45NHptMjguNjkgMy40OWguOTRsLS45NC45NHYtLjk0em0tMjguNjkgMGguOTR2Ljk0bC0uOTQtLjk0eiIgY2xhc3M9InN0MCIvPiYjeGE7ICAgIDxwYXRoIGQ9Ik0yMS4zNiA1LjFjLTIuNy4wNy00LjkgMi4zOS00LjkgNS4xNnYxLjgyaDEwLjA3di0xLjk1YzAtMS4zNy0uNTQtMi42NS0xLjUyLTMuNjFhNS4wMyA1LjAzIDAgMCAwLTMuNjUtMS40MnoiIGNsYXNzPSJzdDEiLz4mI3hhOyAgICA8cGF0aCBkPSJNMTQuOTcgMTAuMjZjMC0zLjU4IDIuODUtNi41NyA2LjM2LTYuNjYgMS43OC0uMDUgMy40Ni42MSA0LjczIDEuODVhNi40ODYgNi40ODYgMCAwIDEgMS45NyA0LjY4djEuOTVoMS4xMnYtMS45NWMwLTIuMTItLjg1LTQuMDktMi4zOC01LjU1YTcuNTg2IDcuNTg2IDAgMCAwLTUuNjctMi4wOWMtNC4wNi4yMS03LjI0IDMuNjItNy4yNCA3Ljc3djEuODFoMS4xMnYtMS44MXpNMTAuMTIgMjMuODRoMS40OXYxLjQ5aC0xLjQ5VjM2LjloMjIuNzZWMjUuMzNoLTEuNDl2LTEuNDloMS40OVYxMy41OEgxMC4xMnYxMC4yNnptMTguNjUgMGgxLjQ5djEuNDloLTEuNDl2LTEuNDl6bS0yLjYxIDBoMS40OXYxLjQ5aC0xLjQ5di0xLjQ5em0tNy43OC4xOWEzLjEzOCAzLjEzOCAwIDAgMSAyLjU1LTIuNTNjMi0uMzUgMy43NCAxLjE5IDMuNzQgMy4xMiAwIDEuMi0uNjcgMi4yNC0xLjY1IDIuNzhsLjU5IDQuMDloLTQuMjNsLjYzLTQuMDdhMy4xNjkgMy4xNjkgMCAwIDEtMS42My0zLjM5em0tMy4wNC0uMTloMS40OXYxLjQ5aC0xLjQ5di0xLjQ5em0tMi42MSAwaDEuNDl2MS40OWgtMS40OXYtMS40OXoiIGNsYXNzPSJzdDEiLz4mI3hhOyAgICA8cGF0aCBkPSJtMjAuMDIgMjcuNDItLjYzIDQuMDdoNC4yM2wtLjU5LTQuMDljLjk4LS41NCAxLjY1LTEuNTggMS42NS0yLjc4IDAtMS45NC0xLjc0LTMuNDctMy43NC0zLjEyYTMuMTUgMy4xNSAwIDAgMC0yLjU1IDIuNTNjLS4yOCAxLjQ1LjQ2IDIuNzcgMS42MyAzLjM5eiIgY2xhc3M9InN0MiIvPiYjeGE7ICAgIDxwYXRoIGQ9Im0zNi45NSAxOS45NS0xLjA2IDEuMDYgMi44MyAyLjgzaC00LjM1VjEyLjA5aC0zLjczdi0xLjk1YzAtMi41My0xLjAxLTQuODgtMi44NS02LjYzYTkuMDc3IDkuMDc3IDAgMCAwLTYuNzgtMi41Yy00Ljg1LjI1LTguNjYgNC4zMi04LjY2IDkuMjZ2MS44MUg4LjYydjExLjc1SDQuMjdMNy4xIDIxbC0xLjA2LTEuMDYtNC42MyA0LjYzIDQuNjMgNC42MyAxLjA2LTEuMDYtMi44My0yLjgzaDQuMzV2MTMuMDZoMjUuNzRWMjUuMzNoNC4zNWwtMi44MyAyLjgzIDEuMDYgMS4wNiA0LjYzLTQuNjMtNC42Mi00LjY0em0tMjMuMS05LjY4YzAtNC4xNSAzLjE4LTcuNTYgNy4yNC03Ljc3IDIuMTItLjExIDQuMTQuNjMgNS42NyAyLjA5YTcuNTcgNy41NyAwIDAgMSAyLjM4IDUuNTV2MS45NWgtMS4xMnYtMS45NWMwLTEuNzgtLjctMy40NC0xLjk3LTQuNjhhNi40NTkgNi40NTkgMCAwIDAtNC43My0xLjg1Yy0zLjUxLjA5LTYuMzYgMy4wOC02LjM2IDYuNjZ2MS44MmgtMS4xMnYtMS44MnptMTIuNjgtLjE0djEuOTVIMTYuNDZ2LTEuODJjMC0yLjc4IDIuMi01LjEgNC45LTUuMTYgMS4zOC0uMDMgMi42Ny40NyAzLjY1IDEuNDMuOTguOTUgMS41MiAyLjIzIDEuNTIgMy42em02LjM0IDEzLjcxaC0xLjQ5djEuNDloMS40OVYzNi45SDEwLjEyVjI1LjMzaDEuNDl2LTEuNDloLTEuNDlWMTMuNThoMjIuNzZ2MTAuMjZ6TTguNjIgMzkuNTF2Ljc0bDEuNS43NWgyMi43NWwxLjUtLjc1di0uNzR6IiBjbGFzcz0ic3QyIi8+JiN4YTsgICAgPHBhdGggZD0iTTE1LjM0IDIzLjg0aDEuNDl2MS40OWgtMS40OXpNMTIuNzMgMjMuODRoMS40OXYxLjQ5aC0xLjQ5ek0yOC43NyAyMy44NGgxLjQ5djEuNDloLTEuNDl6TTI2LjE2IDIzLjg0aDEuNDl2MS40OWgtMS40OXoiIGNsYXNzPSJzdDIiLz4mI3hhOzwvc3ZnPg==;container=0;" parent="0iEBDOv3ILu3kZ8N8QKH-1" vertex="1">
          <mxGeometry x="310" y="166" width="43" height="42" as="geometry" />
        </mxCell>
        <mxCell id="kuL6DLgfm3cLlOCiXe2V-6" value="" style="shape=image;verticalLabelPosition=bottom;labelBackgroundColor=default;verticalAlign=top;aspect=fixed;imageAspect=0;image=data:image/svg+xml,PHN2ZyB4bWxucz0iaHR0cDovL3d3dy53My5vcmcvMjAwMC9zdmciIHhtbDpzcGFjZT0icHJlc2VydmUiIHN0eWxlPSJlbmFibGUtYmFja2dyb3VuZDpuZXcgMCAwIDQyLjk5IDQyIiB2aWV3Qm94PSIwIDAgNDIuOTkgNDIiIHk9IjAiIHg9IjAiIGlkPSJMYXllcl8xIiB2ZXJzaW9uPSIxLjEiPiYjeGE7ICAgIDxzdHlsZT4mI3hhOyAgICAgICAgLnN0MHtmaWxsOiNmZmZ9LnN0MXtmaWxsOm5vbmV9LnN0MntmaWxsOiMyYzU5Njd9JiN4YTsgICAgPC9zdHlsZT4mI3hhOyAgICA8cGF0aCBkPSJtMTAgNDEuNS0xLjg4LS45NFYyNS44M0g1LjQ4bDIuMzMgMi4zMy0xLjc2IDEuNzYtNS4zNC01LjM0IDUuMzQtNS4zNEw3LjgxIDIxbC0yLjMzIDIuMzNoMi42NVYxMS41OWgzLjczdi0xLjMxYzAtNS4yMSA0LjAxLTkuNSA5LjEzLTkuNzYuMTctLjAyLjM0LS4wMi41MS0uMDIgMi40OCAwIDQuODMuOTQgNi42MyAyLjY1IDEuOTQgMS44NCAzIDQuMzIgMyA2Ljk5djEuNDVoMy43M3YxMS43NWgyLjY1bC0yLjMzLTIuMzMgMS43Ni0xLjc2IDUuMzQgNS4zNC01LjM0IDUuMzQtMS43Ni0xLjc2IDIuMzMtMi4zM2gtMi42NXYxNC43M2wtMS44OC45NEgxMHoiIGNsYXNzPSJzdDAiLz4mI3hhOyAgICA8cGF0aCBkPSJNMjEuNSAxYzIuMzUgMCA0LjU3Ljg4IDYuMjggMi41MWE5LjA0NSA5LjA0NSAwIDAgMSAyLjg1IDYuNjN2MS45NWgzLjczdjExLjc1aDQuMzVsLTIuODMtMi44MyAxLjA2LTEuMDYgNC42MyA0LjYzLTQuNjMgNC42My0xLjA2LTEuMDYgMi44My0yLjgzaC00LjM1djE0LjkybC0xLjQ5Ljc2SDEwLjEybC0xLjUtLjc1VjI1LjMzSDQuMjdsMi44MyAyLjgzLTEuMDYgMS4wNi00LjYzLTQuNjMgNC42My00LjYzIDEuMDYgMS4wNi0yLjgzIDIuODNoNC4zNVYxMi4wOWgzLjczdi0xLjgxYzAtNC45NCAzLjgtOS4wMSA4LjY2LTkuMjYuMTctLjAyLjMzLS4wMi40OS0uMDJtMC0xYy0uMTggMC0uMzYgMC0uNTQuMDEtNS4zOS4yOC05LjYgNC43OS05LjYgMTAuMjZ2LjgxSDcuNjJ2OS4wM2wtLjg3LS44Ny0uNzEtLjcxLS43MS43MUwuNyAyMy44N2wtLjcuNzIuNzEuNzEgNC42MyA0LjYzLjcxLjcxLjcxLS43MS44Ny0uODdWNDAuODhsLjU1LjI4IDEuNS43NS4yLjA5aDIzLjI0bC4yMS0uMTEgMS41LS43NS41NS0uMjhWMjkuMDRsLjg3Ljg3LjcxLjcxLjcxLS43MSA0LjYzLTQuNjMuNzEtLjcxLS43MS0uNzEtNC42My00LjYzLS43MS0uNzEtLjcxLjcxLS44Ny44N3YtOS4wM2gtMy43M3YtLjk1YzAtMi44MS0xLjEyLTUuNDItMy4xNi03LjM1QTEwLjIxIDEwLjIxIDAgMCAwIDIxLjUgMHptMTMuODcgMjIuODR2LS45NGwuOTQuOTRoLS45NHptLTI4LjY5IDAgLjk0LS45NHYuOTRoLS45NHptMjguNjkgMy40OWguOTRsLS45NC45NHYtLjk0em0tMjguNjkgMGguOTR2Ljk0bC0uOTQtLjk0eiIgY2xhc3M9InN0MCIvPiYjeGE7ICAgIDxwYXRoIGQ9Ik0yMS4zNiA1LjFjLTIuNy4wNy00LjkgMi4zOS00LjkgNS4xNnYxLjgyaDEwLjA3di0xLjk1YzAtMS4zNy0uNTQtMi42NS0xLjUyLTMuNjFhNS4wMyA1LjAzIDAgMCAwLTMuNjUtMS40MnoiIGNsYXNzPSJzdDEiLz4mI3hhOyAgICA8cGF0aCBkPSJNMTQuOTcgMTAuMjZjMC0zLjU4IDIuODUtNi41NyA2LjM2LTYuNjYgMS43OC0uMDUgMy40Ni42MSA0LjczIDEuODVhNi40ODYgNi40ODYgMCAwIDEgMS45NyA0LjY4djEuOTVoMS4xMnYtMS45NWMwLTIuMTItLjg1LTQuMDktMi4zOC01LjU1YTcuNTg2IDcuNTg2IDAgMCAwLTUuNjctMi4wOWMtNC4wNi4yMS03LjI0IDMuNjItNy4yNCA3Ljc3djEuODFoMS4xMnYtMS44MXpNMTAuMTIgMjMuODRoMS40OXYxLjQ5aC0xLjQ5VjM2LjloMjIuNzZWMjUuMzNoLTEuNDl2LTEuNDloMS40OVYxMy41OEgxMC4xMnYxMC4yNnptMTguNjUgMGgxLjQ5djEuNDloLTEuNDl2LTEuNDl6bS0yLjYxIDBoMS40OXYxLjQ5aC0xLjQ5di0xLjQ5em0tNy43OC4xOWEzLjEzOCAzLjEzOCAwIDAgMSAyLjU1LTIuNTNjMi0uMzUgMy43NCAxLjE5IDMuNzQgMy4xMiAwIDEuMi0uNjcgMi4yNC0xLjY1IDIuNzhsLjU5IDQuMDloLTQuMjNsLjYzLTQuMDdhMy4xNjkgMy4xNjkgMCAwIDEtMS42My0zLjM5em0tMy4wNC0uMTloMS40OXYxLjQ5aC0xLjQ5di0xLjQ5em0tMi42MSAwaDEuNDl2MS40OWgtMS40OXYtMS40OXoiIGNsYXNzPSJzdDEiLz4mI3hhOyAgICA8cGF0aCBkPSJtMjAuMDIgMjcuNDItLjYzIDQuMDdoNC4yM2wtLjU5LTQuMDljLjk4LS41NCAxLjY1LTEuNTggMS42NS0yLjc4IDAtMS45NC0xLjc0LTMuNDctMy43NC0zLjEyYTMuMTUgMy4xNSAwIDAgMC0yLjU1IDIuNTNjLS4yOCAxLjQ1LjQ2IDIuNzcgMS42MyAzLjM5eiIgY2xhc3M9InN0MiIvPiYjeGE7ICAgIDxwYXRoIGQ9Im0zNi45NSAxOS45NS0xLjA2IDEuMDYgMi44MyAyLjgzaC00LjM1VjEyLjA5aC0zLjczdi0xLjk1YzAtMi41My0xLjAxLTQuODgtMi44NS02LjYzYTkuMDc3IDkuMDc3IDAgMCAwLTYuNzgtMi41Yy00Ljg1LjI1LTguNjYgNC4zMi04LjY2IDkuMjZ2MS44MUg4LjYydjExLjc1SDQuMjdMNy4xIDIxbC0xLjA2LTEuMDYtNC42MyA0LjYzIDQuNjMgNC42MyAxLjA2LTEuMDYtMi44My0yLjgzaDQuMzV2MTMuMDZoMjUuNzRWMjUuMzNoNC4zNWwtMi44MyAyLjgzIDEuMDYgMS4wNiA0LjYzLTQuNjMtNC42Mi00LjY0em0tMjMuMS05LjY4YzAtNC4xNSAzLjE4LTcuNTYgNy4yNC03Ljc3IDIuMTItLjExIDQuMTQuNjMgNS42NyAyLjA5YTcuNTcgNy41NyAwIDAgMSAyLjM4IDUuNTV2MS45NWgtMS4xMnYtMS45NWMwLTEuNzgtLjctMy40NC0xLjk3LTQuNjhhNi40NTkgNi40NTkgMCAwIDAtNC43My0xLjg1Yy0zLjUxLjA5LTYuMzYgMy4wOC02LjM2IDYuNjZ2MS44MmgtMS4xMnYtMS44MnptMTIuNjgtLjE0djEuOTVIMTYuNDZ2LTEuODJjMC0yLjc4IDIuMi01LjEgNC45LTUuMTYgMS4zOC0uMDMgMi42Ny40NyAzLjY1IDEuNDMuOTguOTUgMS41MiAyLjIzIDEuNTIgMy42em02LjM0IDEzLjcxaC0xLjQ5djEuNDloMS40OVYzNi45SDEwLjEyVjI1LjMzaDEuNDl2LTEuNDloLTEuNDlWMTMuNThoMjIuNzZ2MTAuMjZ6TTguNjIgMzkuNTF2Ljc0bDEuNS43NWgyMi43NWwxLjUtLjc1di0uNzR6IiBjbGFzcz0ic3QyIi8+JiN4YTsgICAgPHBhdGggZD0iTTE1LjM0IDIzLjg0aDEuNDl2MS40OWgtMS40OXpNMTIuNzMgMjMuODRoMS40OXYxLjQ5aC0xLjQ5ek0yOC43NyAyMy44NGgxLjQ5djEuNDloLTEuNDl6TTI2LjE2IDIzLjg0aDEuNDl2MS40OWgtMS40OXoiIGNsYXNzPSJzdDIiLz4mI3hhOzwvc3ZnPg==;container=0;" parent="0iEBDOv3ILu3kZ8N8QKH-1" vertex="1">
          <mxGeometry x="165.77999999999975" y="166" width="43" height="42" as="geometry" />
        </mxCell>
        <mxCell id="kuL6DLgfm3cLlOCiXe2V-31" value="" style="shape=image;verticalLabelPosition=bottom;verticalAlign=top;imageAspect=0;aspect=fixed;image=data:image/svg+xml,PHN2ZyB4bWxucz0iaHR0cDovL3d3dy53My5vcmcvMjAwMC9zdmciIHhtbDpzcGFjZT0icHJlc2VydmUiIHN0eWxlPSJlbmFibGUtYmFja2dyb3VuZDpuZXcgMCAwIDUyLjQ1IDQyIiB2aWV3Qm94PSIwIDAgNTIuNDUgNDIiIHk9IjAiIHg9IjAiIGlkPSJMYXllcl8xIiB2ZXJzaW9uPSIxLjEiPiYjeGE7ICAgIDxzdHlsZT4mI3hhOyAgICAgICAgLnN0MHtmaWxsOiNmZmZ9LnN0MXtmaWxsOiMyYzU5Njd9JiN4YTsgICAgPC9zdHlsZT4mI3hhOyAgICA8cGF0aCBkPSJNLjUgNDEuNVYzLjM3Qy41IDEuNzkgMS43OS41IDMuMzcuNWgxMy4wOWMuOSAwIDEuNzYuNDMgMi4zIDEuMTZsMi42OCAzLjZINDkuMWMxLjU4IDAgMi44NyAxLjI5IDIuODcgMi44N1Y0MS41SC41eiIgY2xhc3M9InN0MCIvPiYjeGE7ICAgIDxwYXRoIGQ9Ik0xNi40NiAxYy43NCAwIDEuNDUuMzYgMS45Ljk1bDIuODMgMy44SDQ5LjFjMS4zIDAgMi4zNyAxLjA2IDIuMzcgMi4zN1Y0MUgxVjMuMzdDMSAyLjA2IDIuMDYgMSAzLjM3IDFoMTMuMDltMC0xSDMuMzdDMS41MSAwIDAgMS41MSAwIDMuMzdWNDJoNTIuNDVWOC4xMmMwLTEuODYtMS41MS0zLjM3LTMuMzctMy4zN2gtMjcuNGwtMi41My0zLjRBMy4zNjIgMy4zNjIgMCAwIDAgMTYuNDYgMHoiIGNsYXNzPSJzdDAiLz4mI3hhOyAgICA8cGF0aCBkPSJNNDkuMDkgNS43NkgyMS4xOGwtMi44My0zLjhjLS40NC0uNi0xLjE1LS45Ni0xLjg5LS45NkgzLjM3QzIuMDYgMSAxIDIuMDYgMSAzLjM3VjQxaDUwLjQ1VjguMTJjMC0xLjMtMS4wNi0yLjM2LTIuMzYtMi4zNnptLjI2IDMzLjE0SDMuMVYzLjM3YzAtLjE0LjEyLS4yNi4yNi0uMjZoMTMuMDljLjA4IDAgLjE2LjA0LjIxLjExbDMuNDYgNC42NWgyOC45NmMuMTQgMCAuMjYuMTIuMjYuMjZWMzguOXoiIGNsYXNzPSJzdDEiLz4mI3hhOyAgICA8cGF0aCBkPSJNOS4xNSAxMy42NGgyLjF2LTMuMTVoMy4xNXYtMi4xaC0zLjE1VjUuMjNoLTIuMXYzLjE2SDUuOTl2Mi4xaDMuMTZ6TTQwLjkzIDIyLjMybC0xLjg0LTMuMy0xLjgzIDMuMy0yLjc4IDUuMDItMS43MyAzLjEyaDEyLjczbC0xLjc1LTMuMTMtMi44LTUuMDF6bS00LjYyIDYuMDQgMi43OC01LjAyIDIuOCA1LjAyaC01LjU4ek0yOS41NiAyMC4yM2MtLjg4LS41NC0xLjg4LS44My0yLjktLjgzYTUuNTI2IDUuNTI2IDAgMCAwLTUuMzcgNi43OSA1LjUgNS41IDAgMCAwIDYuNjMgNC4xIDUuNTA4IDUuNTA4IDAgMCAwIDMuNDMtMi40NyA1LjU0IDUuNTQgMCAwIDAgLjY4LTQuMTcgNS40ODggNS40ODggMCAwIDAtMi40Ny0zLjQyem0wIDYuNDljLS40OC43OC0xLjIzIDEuMzItMi4xMiAxLjUzYTMuNDMzIDMuNDMzIDAgMCAxLTQuMTEtMi41NGMtLjQzLTEuODMuNzEtMy42OCAyLjU0LTQuMTEuMjYtLjA2LjUzLS4wOS43OS0uMDkuNjMgMCAxLjI0LjE3IDEuNzkuNTEuNzguNDggMS4zMiAxLjIzIDEuNTMgMi4xMi4yMS44OC4wNiAxLjgtLjQyIDIuNTh6TTE2LjgzIDIwLjczbC0uNjEtMS4wNEg5Ljk5bC0uNjEgMS4wNC0xLjkyIDMuMjgtLjYyIDEuMDYuNjIgMS4wNiAxLjkyIDMuMjkuNjEgMS4wNEgxNi4yM2wuNjEtMS4wNCAxLjkyLTMuMjkuNjItMS4wNi0uNjItMS4wNi0xLjkzLTMuMjh6bS0xLjgxIDcuNjNIMTEuMmwtMS45Mi0zLjI5IDEuOTItMy4yOGgzLjgybDEuOTIgMy4yOC0xLjkyIDMuMjl6IiBjbGFzcz0ic3QxIi8+JiN4YTs8L3N2Zz4=;container=0;" parent="0iEBDOv3ILu3kZ8N8QKH-1" vertex="1">
          <mxGeometry x="415" width="52" height="42" as="geometry" />
        </mxCell>
        <mxCell id="kuL6DLgfm3cLlOCiXe2V-50" value="" style="endArrow=open;html=1;startArrow=none;startFill=0;endFill=0;rounded=0;fontFamily=Oracle Sans;fontSize=10.5;fontColor=#312D2A;labelBackgroundColor=none;strokeColor=#000000;endSize=6;elbow=vertical;exitX=0.044;exitY=0.628;exitDx=0;exitDy=0;exitPerimeter=0;" parent="0iEBDOv3ILu3kZ8N8QKH-1" source="kuL6DLgfm3cLlOCiXe2V-19" edge="1">
          <mxGeometry x="254.5" y="270" width="50" height="50" as="geometry">
            <mxPoint x="464" y="280" as="sourcePoint" />
            <mxPoint x="354" y="190" as="targetPoint" />
          </mxGeometry>
        </mxCell>
        <mxCell id="kuL6DLgfm3cLlOCiXe2V-54" value="" style="shape=image;verticalLabelPosition=bottom;verticalAlign=top;imageAspect=0;aspect=fixed;image=data:image/svg+xml,PHN2ZyB4bWxucz0iaHR0cDovL3d3dy53My5vcmcvMjAwMC9zdmciIHhtbG5zOnhsaW5rPSJodHRwOi8vd3d3LnczLm9yZy8xOTk5L3hsaW5rIiB2ZXJzaW9uPSIxLjEiIGlkPSJMYXllcl8xIiB4PSIwcHgiIHk9IjBweCIgdmlld0JveD0iMCAwIDQzLjUgNDIiIHN0eWxlPSJlbmFibGUtYmFja2dyb3VuZDpuZXcgMCAwIDQzLjUgNDI7IiB4bWw6c3BhY2U9InByZXNlcnZlIiB3aWR0aD0iNDMuNSIgaGVpZ2h0PSI0MiI+JiN4YTs8Zz4mI3hhOwk8Zz4mI3hhOwkJPHBhdGggc3R5bGU9ImZpbGw6I0ZGRkZGRjsiIGQ9Ik0zMS4yLDQxLjVjLTIuOCwwLTUuMy0yLTUuOS00LjhoLTcuMWMtMC42LDIuNy0zLDQuOC01LjksNC44Yy0zLjMsMC02LTIuNy02LTYmIzEwOyYjOTsmIzk7JiM5O2MwLTIuMSwxLjItNC4xLDMtNS4ybC0yLjItNi43Yy0wLjIsMC0wLjQsMC0wLjYsMGMtMy4zLDAtNi0yLjctNi02YzAtMy4zLDIuNy02LDYtNmMxLjUsMCwyLjksMC41LDQsMS42TDE2LjMsOSYjMTA7JiM5OyYjOTsmIzk7Yy0wLjMtMC44LTAuNS0xLjYtMC41LTIuNWMwLTMuMywyLjctNiw2LTZzNiwyLjcsNiw2YzAsMC44LTAuMiwxLjctMC41LDIuNWw1LjcsNC4yYzEuMS0xLDIuNS0xLjYsNC0xLjZjMy4zLDAsNiwyLjcsNiw2JiMxMDsmIzk7JiM5OyYjOTtzLTIuNyw2LTYsNmMtMC4yLDAtMC40LDAtMC42LDBsLTIuMiw2LjdjMS44LDEuMSwzLDMuMSwzLDUuMkMzNy4yLDM4LjgsMzQuNSw0MS41LDMxLjIsNDEuNXoiLz4mI3hhOwkJPHBhdGggc3R5bGU9ImZpbGw6I0ZGRkZGRjsiIGQ9Ik0yMS43LDFjMywwLDUuNSwyLjUsNS41LDUuNWMwLDAuOS0wLjIsMS44LTAuNywyLjZsNi40LDQuN2MxLTEuMSwyLjQtMS43LDQtMS43JiMxMDsmIzk7JiM5OyYjOTtjMywwLDUuNSwyLjUsNS41LDUuNWMwLDMtMi41LDUuNS01LjUsNS41Yy0wLjMsMC0wLjcsMC0xLTAuMWwtMi41LDcuNWMxLjgsMC45LDMuMSwyLjgsMy4xLDVjMCwzLTIuNSw1LjUtNS41LDUuNSYjMTA7JiM5OyYjOTsmIzk7Yy0yLjgsMC01LjEtMi4xLTUuNS00LjhoLTcuOWMtMC40LDIuNy0yLjcsNC44LTUuNSw0LjhjLTMsMC01LjUtMi41LTUuNS01LjVjMC0yLjIsMS4zLTQuMSwzLjEtNUw3LjUsMjNjLTAuMywwLjEtMC43LDAuMS0xLDAuMSYjMTA7JiM5OyYjOTsmIzk7Yy0zLDAtNS41LTIuNS01LjUtNS41czIuNS01LjUsNS41LTUuNWMxLjYsMCwzLDAuNyw0LDEuN2w2LjQtNC43Yy0wLjQtMC44LTAuNy0xLjctMC43LTIuNkMxNi4yLDMuNSwxOC43LDEsMjEuNywxIE0yMS43LDAmIzEwOyYjOTsmIzk7JiM5O2MtMy42LDAtNi41LDIuOS02LjUsNi41YzAsMC44LDAuMSwxLjYsMC40LDIuM2wtNS4xLDMuN2MtMS4xLTAuOS0yLjYtMS40LTQtMS40QzIuOSwxMS4xLDAsMTQsMCwxNy42czIuOSw2LjUsNi41LDYuNSYjMTA7JiM5OyYjOTsmIzk7YzAuMSwwLDAuMiwwLDAuMywwbDEuOSw2Yy0xLjgsMS4yLTIuOSwzLjItMi45LDUuNGMwLDMuNiwyLjksNi41LDYuNSw2LjVjMi45LDAsNS41LTIsNi4zLTQuOGg2LjNjMC44LDIuOCwzLjMsNC44LDYuMyw0LjgmIzEwOyYjOTsmIzk7JiM5O2MzLjYsMCw2LjUtMi45LDYuNS02LjVjMC0yLjItMS4xLTQuMi0yLjktNS40bDEuOS02YzAuMSwwLDAuMiwwLDAuMywwYzMuNiwwLDYuNS0yLjksNi41LTYuNWMwLTMuNi0yLjktNi41LTYuNS02LjUmIzEwOyYjOTsmIzk7JiM5O2MtMS41LDAtMi45LDAuNS00LjEsMS40bC01LjEtMy43YzAuMy0wLjcsMC40LTEuNSwwLjQtMi4zQzI4LjMsMi45LDI1LjMsMCwyMS43LDBMMjEuNywweiIvPiYjeGE7CTwvZz4mI3hhOwk8Zz4mI3hhOwkJPHBhdGggc3R5bGU9ImZpbGw6I0JCNTAxQzsiIGQ9Ik0zNywxMi4xYy0xLjYsMC0zLDAuNy00LDEuN2wtNi40LTQuN2MwLjQtMC44LDAuNy0xLjcsMC43LTIuNmMwLTMtMi41LTUuNS01LjUtNS41JiMxMDsmIzk7JiM5OyYjOTtzLTUuNSwyLjUtNS41LDUuNWMwLDAuOSwwLjIsMS44LDAuNywyLjZsLTYuNCw0LjdjLTEtMS0yLjQtMS43LTQtMS43Yy0zLDAtNS41LDIuNS01LjUsNS41czIuNSw1LjUsNS41LDUuNWMwLjMsMCwwLjcsMCwxLTAuMSYjMTA7JiM5OyYjOTsmIzk7bDIuNCw3LjVjLTEuOCwwLjktMy4xLDIuOC0zLjEsNWMwLDMsMi41LDUuNSw1LjUsNS41YzIuOCwwLDUuMS0yLjEsNS41LTQuOGg3LjljMC40LDIuNywyLjcsNC44LDUuNSw0LjhjMywwLDUuNS0yLjUsNS41LTUuNSYjMTA7JiM5OyYjOTsmIzk7YzAtMi4yLTEuMy00LjEtMy4xLTVMMzYsMjNjMC4zLDAuMSwwLjcsMC4xLDEsMC4xYzMsMCw1LjUtMi41LDUuNS01LjVTNDAsMTIuMSwzNywxMi4xeiBNMzEuMiwzOS41Yy0yLjIsMC00LTEuOC00LTQmIzEwOyYjOTsmIzk7JiM5O2MwLTIuMiwxLjgtNCw0LTRzNCwxLjgsNCw0QzM1LjIsMzcuNywzMy40LDM5LjUsMzEuMiwzOS41eiBNMTcuOCwzNC44Yy0wLjItMS4zLTAuOC0yLjQtMS43LTMuM2wzLTQuMmMwLjgsMC40LDEuNywwLjcsMi42LDAuNyYjMTA7JiM5OyYjOTsmIzk7YzAuOSwwLDEuOC0wLjIsMi42LTAuN2wzLDQuMmMtMC45LDAuOC0xLjUsMi0xLjcsMy4zSDE3Ljh6IE04LjMsMzUuNWMwLTIuMiwxLjgtNCw0LTRzNCwxLjgsNCw0YzAsMi4yLTEuOCw0LTQsNCYjMTA7JiM5OyYjOTsmIzk7UzguMywzNy43LDguMywzNS41eiBNNi41LDEzLjVjMi4yLDAsNCwxLjgsNCw0cy0xLjgsNC00LDRzLTQtMS44LTQtNFM0LjMsMTMuNSw2LjUsMTMuNXogTTE3LjcsNi41YzAtMi4yLDEuOC00LDQtNHM0LDEuOCw0LDQmIzEwOyYjOTsmIzk7JiM5O3MtMS44LDQtNCw0UzE3LjcsOC43LDE3LjcsNi41eiBNMzEuNiwxOC41bC00LjksMS42Yy0wLjgtMS42LTIuNC0yLjgtNC4yLTMuMVYxMmMxLjMtMC4yLDIuNC0wLjgsMy4yLTEuN2w2LjQsNC43JiMxMDsmIzk7JiM5OyYjOTtjLTAuNCwwLjgtMC43LDEuNy0wLjcsMi42QzMxLjUsMTcuOSwzMS41LDE4LjIsMzEuNiwxOC41eiBNMjUuOCwyMi41YzAsMi4yLTEuOCw0LTQsNHMtNC0xLjgtNC00czEuOC00LDQtNFMyNS44LDIwLjIsMjUuOCwyMi41eiYjMTA7JiM5OyYjOTsmIzk7IE0yMSwxMlYxN2MtMS45LDAuMy0zLjUsMS40LTQuMiwzLjFsLTQuOS0xLjZjMC4xLTAuMywwLjEtMC42LDAuMS0xYzAtMC45LTAuMi0xLjgtMC43LTIuNmw2LjQtNC43QzE4LjYsMTEuMiwxOS43LDExLjgsMjEsMTJ6JiMxMDsmIzk7JiM5OyYjOTsgTTExLjUsMTkuOWw0LjksMS42Yy0wLjEsMC4zLTAuMSwwLjYtMC4xLDFjMCwxLjYsMC43LDMsMS43LDRsLTMsNC4yYy0wLjgtMC40LTEuNy0wLjctMi42LTAuN2MtMC4zLDAtMC43LDAtMSwwLjFsLTIuNC03LjUmIzEwOyYjOTsmIzk7JiM5O0MxMCwyMiwxMC45LDIxLjEsMTEuNSwxOS45eiBNMzEuMiwzMGMtMC45LDAtMS44LDAuMi0yLjYsMC43bC0zLTQuMmMxLjEtMSwxLjctMi40LDEuNy00YzAtMC4zLDAtMC43LTAuMS0xbDQuOS0xLjYmIzEwOyYjOTsmIzk7JiM5O2MwLjUsMS4xLDEuNSwyLDIuNiwyLjZsLTIuNSw3LjVDMzEuOCwzMCwzMS41LDMwLDMxLjIsMzB6IE0zMywxNy42YzAtMi4yLDEuOC00LDQtNHM0LDEuOCw0LDRzLTEuOCw0LTQsNFMzMywxOS44LDMzLDE3LjZ6Ii8+JiN4YTsJPC9nPiYjeGE7PC9nPiYjeGE7PC9zdmc+;dashed=1;dashPattern=1 1;strokeColor=#bb511c;strokeWidth=3;fontColor=#AE562C;fontFamily=Helvetica;fontSize=12;fillColor=#FCFBFA;container=0;" parent="0iEBDOv3ILu3kZ8N8QKH-1" vertex="1">
          <mxGeometry x="572.78" y="51" width="31.43" height="30" as="geometry" />
        </mxCell>
        <mxCell id="kuL6DLgfm3cLlOCiXe2V-56" value="" style="shape=image;verticalLabelPosition=bottom;verticalAlign=top;imageAspect=0;aspect=fixed;image=data:image/svg+xml,PHN2ZyB4bWxucz0iaHR0cDovL3d3dy53My5vcmcvMjAwMC9zdmciIHZpZXdCb3g9IjAgMCA0MCA0MCI+JiN4YTsgICAgPHBhdGggZmlsbD0iI0ZGRiIgZD0iTS40NzYgMzkuNTJWMTMuMDc2aDE2Ljc2MlY1LjI5TDI4LjQ3Ni40OCAzOS42MiA1LjI4OVYxNS40OGMwIC4wOTYgMCAyLjU5Ni0xLjQyOCA1LjU3Ny0xLjIzOSAyLjY5Mi0zLjgxIDYuMzQ2LTkuMzM0IDguMzY1djEwSC40Nzd2LjA5NloiLz4mI3hhOyAgICA8cGF0aCBmaWxsPSIjRkZGIiBkPSJtMjguMzgxIDEuMDU4IDEwLjY2NyA0LjUxOXY5LjkwNGMwIC4wOTYgMCAyLjUtMS4zMzQgNS4zODQtMS4yMzggMi42OTMtMy43MTQgNi4yNS05LjA0NyA4LjE3NGwtLjE5LjA5NmgtLjA5NnY5LjkwM0guOTUydi0yNS40OGgxNi43NjJWNS41NzdsMTAuNjY3LTQuNTJabTAtMS4wNThMMjggLjE5MmwtMTAuNjY3IDQuNTItLjU3MS4yODh2Ny42OTNIMFY0MGgyOS4zMzNWMjkuODA4YzUuMzM0LTIuMTE2IDgtNS43NyA5LjIzOC04LjU1OEM0MCAxOC4xNzMgNDAgMTUuNTc3IDQwIDE1LjQ4VjVsLS41NzEtLjI4OEwyOC43NjIuMTkyIDI4LjM4IDBaIi8+JiN4YTsgICAgPHBhdGggZmlsbD0iI0FFNTYyQyIgZD0iTTI3LjA0OCAyOS43MTJIOS41MjRWMjIuOThoOS41MjRhMTcuMiAxNy4yIDAgMCAxLS42NjctMS4yNUg5LjUyNFYxNWg3LjE0M3YtMS4yNUguOTUydjI1LjM4NWgyNy40Mjl2LTguODQ2bC0uNDc2LS4xOTNjLS4yODYtLjE5Mi0uNTcyLS4yODgtLjg1Ny0uMzg0Wk0yLjE5IDE0LjkwNGg2LjA5NnY2LjczSDIuMTl2LTYuNzNabTYuMDk2IDcuOTh2Ni43MzFIMi4xOXYtNi43M2g2LjA5NlpNMi4xOSAzMC45NjNoNi4wOTZ2Ni43M0gyLjE5di02LjczWm0yNC44NTggNi43M0g5LjUyNHYtNi43M2gxNy41MjR2Ni43M1oiLz4mI3hhOyAgICA8cGF0aCBmaWxsPSIjQUU1NjJDIiBkPSJNMjUuNjIgMzUuMTkySDI0LjM4djEuMjVoMS4yMzh2LTEuMjVaTTIwLjM4IDM2LjQ0MmwxLjE0NC0xLjE1NCAxLjE0MiAxLjE1NC44NTgtLjk2MS0xLjE0My0xLjE1NCAxLjE0My0xLjE1NC0uODU4LS44NjUtMS4xNDIgMS4xNTQtMS4xNDMtMS4xNTQtLjk1My44NjUgMS4xNDMgMS4xNTQtMS4xNDMgMS4xNTQuOTUzLjk2MVpNMTcuNjE5IDM1LjE5MmgtMS4yMzh2MS4yNWgxLjIzOHYtMS4yNVpNMTEuNTI0IDM1LjQ4bC44NTcuOTYyIDEuMTQzLTEuMTU0IDEuMTQzIDEuMTU0Ljk1Mi0uOTYxLTEuMTQzLTEuMTU0IDEuMTQzLTEuMTU0LS45NTItLjg2NS0xLjE0MyAxLjE1NC0xLjE0My0xLjE1NC0uODU3Ljg2NSAxLjE0MyAxLjE1NC0xLjE0MyAxLjE1NFpNMTcuNjE5IDI3LjExNmgtMS4yMzh2MS4yNWgxLjIzOHYtMS4yNVpNMTEuNTI0IDI3LjQwNGwuODU3Ljk2MiAxLjE0My0xLjE1NCAxLjE0MyAxLjE1NC45NTItLjk2Mi0xLjE0My0xLjE1NCAxLjE0My0xLjE1NC0uOTUyLS44NjUtMS4xNDMgMS4xNTQtMS4xNDMtMS4xNTQtLjg1Ny44NjUgMS4xNDMgMS4xNTQtMS4xNDMgMS4xNTRaTTE2LjA5NSAyMC4zODVoMS4yMzh2LTEuMzQ2aC0xLjIzOHYxLjM0NlpNMTEuMTQzIDE5LjQyM2wuOTUyLjg2NSAxLjE0My0xLjE1MyAxLjE0MyAxLjE1My44NTctLjg2NS0xLjE0My0xLjE1NCAxLjE0My0xLjE1NC0uODU3LS45NjEtMS4xNDMgMS4xNTQtMS4xNDMtMS4xNTQtLjk1Mi45NjEgMS4xNDMgMS4xNTQtMS4xNDMgMS4xNTRaTTE3LjcxNCA1LjU3N3Y5LjkwNGMwIC4wOTYuMDk2IDIuNSAxLjMzNCA1LjM4NCAxLjIzOCAyLjY5MyAzLjgxIDYuMjUgOS4xNDMgOC4xNzNsLjE5LjA5Ni4xOS0uMDk2YzUuMzM0LTEuOTIzIDcuOTA1LTUuNDggOS4wNDgtOC4xNzMgMS4zMzMtMi44ODQgMS4zMzMtNS4yODggMS4zMzMtNS4zODRWNS41NzdsLTEwLjU3MS00LjUyLTEwLjY2NyA0LjUyWk0zNy44MSAxNS40OGMwIC4wOTYtLjE5IDguNzUtOS4zMzQgMTIuMjExLTMuODEtMS40NDItNi41NzEtMy45NDItOC4xOS03LjMwOC0xLjIzOC0yLjU5Ni0xLjIzOC00LjkwMy0xLjIzOC00LjkwM1Y2LjQ0Mmw5LjQyOC00LjAzOCA5LjMzNCA0LjAzOHY5LjAzOVoiLz4mI3hhOyAgICA8cGF0aCBmaWxsPSIjQUU1NjJDIiBkPSJNMjcuMjM4IDE2LjgyN2gtNC45NTJ2MS4yNWg0Ljk1MnYtMS4yNVpNMjcuMjM4IDEwLjM4NWgtNC45NTJ2MS4yNWg0Ljk1MnYtMS4yNVpNMzMuOTA1IDguOTQybC0yLjc2MiAyLjY5My0uOTUzLS45NjItLjk1Mi44NjYgMS45MDUgMS45MjMgMy42MTktMy42NTQtLjg1Ny0uODY2Wk0yMi4yODYgMTQuOTA0aDQuOTUydi0xLjM0NmgtNC45NTJ2MS4zNDZaIi8+JiN4YTs8L3N2Zz4=;container=0;" parent="0iEBDOv3ILu3kZ8N8QKH-1" vertex="1">
          <mxGeometry x="536" y="69.47000000000025" width="40" height="40" as="geometry" />
        </mxCell>
        <mxCell id="kuL6DLgfm3cLlOCiXe2V-19" value="" style="shape=image;verticalLabelPosition=bottom;labelBackgroundColor=default;verticalAlign=top;aspect=fixed;imageAspect=0;image=data:image/svg+xml,PHN2ZyB4bWxucz0iaHR0cDovL3d3dy53My5vcmcvMjAwMC9zdmciIHZpZXdCb3g9IjAgMCA1Ny4yNCA0MiIgZGF0YS1uYW1lPSJMYXllciAxIiBpZD0iTGF5ZXJfMSI+PGRlZnM+PHN0eWxlPi5jbHMtMXtmaWxsOiNmZmY7fS5jbHMtMntmaWxsOiMyYzU5Njc7fTwvc3R5bGU+PC9kZWZzPjx0aXRsZT5NYW5hZ2VkIFNlcnZlcjwvdGl0bGU+PG1ldGFkYXRhPiYjeGE7JiN4YTsgICAmI3hhOyAgICAgICYjeGE7ICAgICAgICAgVHJ1ZSYjeGE7ICAgICAgICAgMjAyMS0wNy0yMlQxNToyNDowNy0wNTowMCYjeGE7ICAgICAgICAgeG1wLmlpZDplOGI0MjE4Zi0zYjYzLTQzZDktYTE0Zi1kN2M5ZjVjOWJkNDcmI3hhOyAgICAgICAgIHhtcC5kaWQ6ZGUwNzMzNjEtMzEwMS00MGE5LWJiY2EtNzU0ZWYzYjkwYWVhJiN4YTsgICAgICAgICB4bXAuZGlkOmRlMDczMzYxLTMxMDEtNDBhOS1iYmNhLTc1NGVmM2I5MGFlYSYjeGE7ICAgICAgICAgJiN4YTsgICAgICAgICAgICAmI3hhOyAgICAgICAgICAgICAgICYjeGE7ICAgICAgICAgICAgICAgICAgJiN4YTsgICAgICAgICAgICAgICAgICAgICBzYXZlZCYjeGE7ICAgICAgICAgICAgICAgICAgICAgeG1wLmlpZDpkZTA3MzM2MS0zMTAxLTQwYTktYmJjYS03NTRlZjNiOTBhZWEmI3hhOyAgICAgICAgICAgICAgICAgICAgIDIwMjEtMDYtMjNUMTU6NTQtMDU6MDAmI3hhOyAgICAgICAgICAgICAgICAgICAgIEFkb2JlIEJyaWRnZSAyMDIxIChNYWNpbnRvc2gpJiN4YTsgICAgICAgICAgICAgICAgICAgICAvbWV0YWRhdGEmI3hhOyAgICAgICAgICAgICAgICAgICYjeGE7ICAgICAgICAgICAgICAgJiN4YTsgICAgICAgICAgICAgICAmI3hhOyAgICAgICAgICAgICAgICAgICYjeGE7ICAgICAgICAgICAgICAgICAgICAgc2F2ZWQmI3hhOyAgICAgICAgICAgICAgICAgICAgIHhtcC5paWQ6ZThiNDIxOGYtM2I2My00M2Q5LWExNGYtZDdjOWY1YzliZDQ3JiN4YTsgICAgICAgICAgICAgICAgICAgICAyMDIxLTA3LTIyVDE1OjI0OjA3LTA1OjAwJiN4YTsgICAgICAgICAgICAgICAgICAgICBBZG9iZSBCcmlkZ2UgMjAyMSAoTWFjaW50b3NoKSYjeGE7ICAgICAgICAgICAgICAgICAgICAgL21ldGFkYXRhJiN4YTsgICAgICAgICAgICAgICAgICAmI3hhOyAgICAgICAgICAgICAgICYjeGE7ICAgICAgICAgICAgJiN4YTsgICAgICAgICAmI3hhOyAgICAgICAgICYjeGE7ICAgICAgICAgICAgJiN4YTsgICAgICAgICAgICAgICBNYW5hZ2VkIFNlcnZlciYjeGE7ICAgICAgICAgICAgJiN4YTsgICAgICAgICAmI3hhOyAgICAgICAgICYjeGE7ICAgICAgICAgICAgJiN4YTsgICAgICAgICAgICAgICBPcmFjbGUgQWxsIFJpZ2h0cyBSZXNlcnZlZCYjeGE7ICAgICAgICAgICAgJiN4YTsgICAgICAgICAmI3hhOyAgICAgICAgICYjeGE7ICAgICAgICAgICAgJiN4YTsgICAgICAgICAgICAgICBpY29uJiN4YTsgICAgICAgICAgICAgICB0ZWNobm9sb2d5JiN4YTsgICAgICAgICAgICAgICBIYXJkd2FyZSYjeGE7ICAgICAgICAgICAgICAgRGF0YSBNYW5hZ2VtZW50JiN4YTsgICAgICAgICAgICAmI3hhOyAgICAgICAgICYjeGE7ICAgICAgICAgJiN4YTsgICAgICAgICAgICAmI3hhOyAgICAgICAgICAgICAgIGljb24mI3hhOyAgICAgICAgICAgICAgIHRlY2hub2xvZ3kmI3hhOyAgICAgICAgICAgICAgIEhhcmR3YXJlJiN4YTsgICAgICAgICAgICAgICBEYXRhIE1hbmFnZW1lbnQmI3hhOyAgICAgICAgICAgICYjeGE7ICAgICAgICAgJiN4YTsgICAgICAmI3hhOyAgICYjeGE7JiN4YTsgICAgICAgICAgICAgICAgICAgICAgICAgICAgICAgICAgICAgICAgICAgICAgICAgICAgICAgICAgICAgICAgICAgICAgICAgICAgICAgICAgICAgICAgICAgICAgICAgICAgJiN4YTsgICAgICAgICAgICAgICAgICAgICAgICAgICAgICAgICAgICAgICAgICAgICAgICAgICAgICAgICAgICAgICAgICAgICAgICAgICAgICAgICAgICAgICAgICAgICAgICAgICAgJiN4YTsgICAgICAgICAgICAgICAgICAgICAgICAgICAgICAgICAgICAgICAgICAgICAgICAgICAgICAgICAgICAgICAgICAgICAgICAgICAgICAgICAgICAgICAgICAgICAgICAgICAgJiN4YTsgICAgICAgICAgICAgICAgICAgICAgICAgICAgICAgICAgICAgICAgICAgICAgICAgICAgICAgICAgICAgICAgICAgICAgICAgICAgICAgICAgICAgICAgICAgICAgICAgICAgJiN4YTsgICAgICAgICAgICAgICAgICAgICAgICAgICAgICAgICAgICAgICAgICAgICAgICAgICAgICAgICAgICAgICAgICAgICAgICAgICAgICAgICAgICAgICAgICAgICAgICAgICAgJiN4YTsgICAgICAgICAgICAgICAgICAgICAgICAgICAgICAgICAgICAgICAgICAgICAgICAgICAgICAgICAgICAgICAgICAgICAgICAgICAgICAgICAgICAgICAgICAgICAgICAgICAgJiN4YTsgICAgICAgICAgICAgICAgICAgICAgICAgICAgICAgICAgICAgICAgICAgICAgICAgICAgICAgICAgICAgICAgICAgICAgICAgICAgICAgICAgICAgICAgICAgICAgICAgICAgJiN4YTsgICAgICAgICAgICAgICAgICAgICAgICAgICAgICAgICAgICAgICAgICAgICAgICAgICAgICAgICAgICAmI3hhOzwvbWV0YWRhdGE+JiN4YTs8cG9seWdvbiBwb2ludHM9IjAuNSA0MS41IDAuNSAzOS44NCAyLjU5IDM4LjggMy4wNiAzOC44IDMuMDYgMC41IDIzLjYzIDAuNSAyMy42MyAzOC44IDI0LjEgMzguOCAyNi4xOSAzOS44NCAyNi4xOSA0MS41IDAuNSA0MS41IiBjbGFzcz0iY2xzLTEiLz48cGF0aCBkPSJNMjMuMTMsMVYzOS4zSDI0bDEuNzEuODVWNDFIMXYtLjg1bDEuNzEtLjg1aC44NVYxSDIzLjEzbTEtMUgyLjU2VjM4LjNIMi40N2wtLjIxLjEtMS43MS44NUwwLDM5LjUzVjQySDI2LjY5VjM5LjUzbC0uNTYtLjI4LTEuNy0uODUtLjIxLS4xaC0uMDlWMFoiIGNsYXNzPSJjbHMtMSIvPjxwYXRoIGQ9Ik0zMy4zMSwzNC41OGwxLjkxLTEuOTEuNi42VjMxLjVIMjMuOTFWMTIuNjlhMiwyLDAsMCwxLDItMmg2LjQ3YTIsMiwwLDAsMSwxLjU5LjhsMS4xNSwxLjU0SDM2VjExLjI4bC0uNi42TDMzLjUyLDEwbDMuODctMy44Nkw0MS4yNSwxMGwtMS45MSwxLjkxLS42LS42djEuNzdoOC44N2EyLDIsMCwwLDEsMiwydjUuOWgxLjc3bC0uNTgtLjU4LDEuOTItMS45MSwzLjgzLDMuODQtMy44NiwzLjg2LTEuOTEtMS45MS42LS42SDQ5LjU5VjMxLjVIMzguNTJ2MS43N2wuNjEtLjZMNDEsMzQuNThsLTMuODcsMy44NloiIGNsYXNzPSJjbHMtMSIvPjxwYXRoIGQ9Ik0zNy4zOSw2LjgyLDQwLjU0LDEwbC0xLjIsMS4yMS0xLjEtMS4xdjMuNDdoOS4zN0ExLjQ4LDEuNDgsMCwwLDEsNDkuMDksMTV2Ni40aDMuNDhsLTEuMDgtMS4wOCwxLjIxLTEuMiwzLjEyLDMuMTMtMy4xNSwzLjE1LTEuMi0xLjIsMS4xLTEuMUg0OS4wOVYzMUgzOHYzLjQ4bDEuMTEtMS4xLDEuMiwxLjItMy4xNiwzLjE2TDM0LDM0LjU4bDEuMi0xLjIsMS4xLDEuMVYzMUgyNC40MVYxMi42OWExLjQ3LDEuNDcsMCwwLDEsMS40Ny0xLjQ4aDYuNDdhMS41LDEuNSwwLDAsMSwxLjE5LjZsMS4zLDEuNzRoMS43VjEwLjA4bC0xLjEsMS4xTDM0LjIzLDEwbDMuMTYtMy4xNW0wLTEuNDItLjcxLjcxTDMzLjUyLDkuMjdsLS43LjcuMzkuNGEyLjQ4LDIuNDgsMCwwLDAtLjg2LS4xNkgyNS44OGEyLjQ4LDIuNDgsMCwwLDAtMi40NywyLjQ4VjMySDM1LjE5bC0uNjcuNjctMS4yMSwxLjItLjcxLjcxLjcxLjcxLDMuMTYsMy4xNS43LjcxLjcxLS43MUw0MSwzNS4yOWwuNy0uNzEtLjctLjcxLTEuMjEtMS4yTDM5LjE2LDMySDUwLjA5VjI0LjI3bC42Ny42NywxLjIsMS4yLjcxLjcxLjcxLS43MUw1Ni41MywyM2wuNzEtLjctLjcxLS43MUw1My40LDE4LjQ0bC0uNy0uNzEtLjcxLjcxLTEuMiwxLjItLjcuN1YxNWEyLjQ4LDIuNDgsMCwwLDAtMi40OC0yLjQ4SDM5LjM4bC42Ni0uNjcsMS4yMS0xLjJMNDIsMTBsLS43MS0uN0wzOC4wOSw2LjExbC0uNy0uNzFabS0yLDcuMTUtLjE3LS4yMy4yMy4yM1ptLjEzLDAsLjA3LS4wNnYuMDZabTMuNzcsMHYtLjA2bC4wNi4wNlptMTAuODUsNy44OHYtLjA3bC4wNy4wN1ptMCwzLjdoLjA2bC0uMDYuMDZ2LS4wNlpNMzksMzJoLjA3bC0uMDcuMDZWMzJabS0zLjc2LDBoLjA2di4wNkwzNS4yNiwzMloiIGNsYXNzPSJjbHMtMSIvPjxwYXRoIGQ9Ik0xOC40NSw4LjIzSDguMjRWOS45NEg2LjU0djEuN2gxLjd2MS43SDE4LjQ1di0xLjdoMS43VjkuOTRoLTEuN1ptLTEuNywzLjQxSDkuOTRWOS45NGg2LjgxWiIgY2xhc3M9ImNscy0yIi8+PHJlY3QgaGVpZ2h0PSIxLjciIHdpZHRoPSIxMy42MiIgeT0iNS4yNiIgeD0iNi41NCIgY2xhc3M9ImNscy0yIi8+PHJlY3QgaGVpZ2h0PSIxLjciIHdpZHRoPSIxMy42MiIgeT0iMTQuNjIiIHg9IjYuNTQiIGNsYXNzPSJjbHMtMiIvPjxyZWN0IGhlaWdodD0iMS43IiB3aWR0aD0iMTMuNjIiIHk9IjM1LjA0IiB4PSI2LjU0IiBjbGFzcz0iY2xzLTIiLz48cmVjdCBoZWlnaHQ9IjEuNyIgd2lkdGg9IjEzLjYyIiB5PSIzMi4wNiIgeD0iNi41NCIgY2xhc3M9ImNscy0yIi8+PHBhdGggZD0iTTYuNTQsMzAuNzlIMjAuMTV2LTZINi41NFptMS43LTQuMjZIMTguNDV2Mi41Nkg4LjI0WiIgY2xhc3M9ImNscy0yIi8+PHBhdGggZD0iTTYuNTQsMjMuNTVIMjAuMTVWMTcuNkg2LjU0Wm0xLjctNC4yNUgxOC40NXYyLjU1SDguMjRaIiBjbGFzcz0iY2xzLTIiLz48cGF0aCBkPSJNMjQsMzkuM2gtLjg1VjFIMy41NlYzOS4zSDIuNzFMMSw0MC4xNVY0MUgyNS42OXYtLjg1TDI0LDM5LjNabS0xOC43MiwwVjIuN0gyMS40M1YzOS4zWiIgY2xhc3M9ImNscy0yIi8+PHBhdGggZD0iTTQ3LjYxLDEzLjU1SDM0Ljg0bC0xLjMtMS43NGExLjUsMS41LDAsMCwwLTEuMTktLjZIMjUuODhhMS40NywxLjQ3LDAsMCwwLTEuNDcsMS40OFYzMUg0OS4wOVYxNUExLjQ4LDEuNDgsMCwwLDAsNDcuNjEsMTMuNTVabS0xNS4zNy0uNjQuOTEsMS4yM0wzMiwxNS42OEgyNi4xMVYxMi45MVpNNDcuMzksMjkuM0gyNi4xMVYxNy4zOGg2YTEuNDksMS40OSwwLDAsMCwxLjE4LS41OWwxLjE1LTEuNTNoMTNaIiBjbGFzcz0iY2xzLTIiLz48cG9seWdvbiBwb2ludHM9IjUyLjcgMTkuMTUgNTEuNDkgMjAuMzUgNTIuNTcgMjEuNDMgNTAuMzcgMjEuNDMgNTAuMzcgMjMuMTMgNTIuNTcgMjMuMTMgNTEuNDcgMjQuMjMgNTIuNjcgMjUuNDMgNTUuODIgMjIuMjggNTIuNyAxOS4xNSIgY2xhc3M9ImNscy0yIi8+PHBvbHlnb24gcG9pbnRzPSIzNi41MyAxMC4wOCAzNi41MyAxMi4yOCAzOC4yNCAxMi4yOCAzOC4yNCAxMC4wOCAzOS4zNCAxMS4xOCA0MC41NCA5Ljk3IDM3LjM5IDYuODIgMzQuMjMgOS45NyAzNS40NCAxMS4xOCAzNi41MyAxMC4wOCIgY2xhc3M9ImNscy0yIi8+PHBvbHlnb24gcG9pbnRzPSIzOC4wMiAzNC40OCAzOC4wMiAzMi4yOCAzNi4zMiAzMi4yOCAzNi4zMiAzNC40OCAzNS4yMiAzMy4zOCAzNC4wMiAzNC41OCAzNy4xNyAzNy43NCA0MC4zMyAzNC41OCAzOS4xMyAzMy4zOCAzOC4wMiAzNC40OCIgY2xhc3M9ImNscy0yIi8+PC9zdmc+;flipH=0;container=0;" parent="0iEBDOv3ILu3kZ8N8QKH-1" vertex="1">
          <mxGeometry x="458.5" y="163" width="57" height="42" as="geometry" />
        </mxCell>
        <mxCell id="kuL6DLgfm3cLlOCiXe2V-14" value="&lt;div&gt;Identity Manager&lt;/div&gt;" style="text;strokeColor=none;align=center;fillColor=none;verticalAlign=middle;whiteSpace=wrap;rounded=0;spacing=0;rotation=0;html=1;fontColor=#000000;container=0;" parent="0iEBDOv3ILu3kZ8N8QKH-1" vertex="1">
          <mxGeometry x="439.756" y="207.83999999999833" width="94.488" height="20.078699999999998" as="geometry" />
        </mxCell>
        <mxCell id="F5BmnTT7dxyMHlXGKzny-6" value="&lt;b&gt;&lt;font color=&quot;#ffffff&quot;&gt;1&lt;br&gt;&lt;/font&gt;&lt;/b&gt;" style="rounded=1;whiteSpace=wrap;html=1;fillColor=#000000;strokeColor=#FFFFFF;fontColor=#161513;fontFamily=Calibri;labelBackgroundColor=none;align=center;arcSize=50;verticalAlign=middle;aspect=fixed;container=0;" parent="0iEBDOv3ILu3kZ8N8QKH-1" vertex="1">
          <mxGeometry x="475.9764" y="225.35500000000138" width="22.047199999999997" height="22.05" as="geometry" />
        </mxCell>
        <mxCell id="F5BmnTT7dxyMHlXGKzny-11" value="&lt;b&gt;&lt;font color=&quot;#ffffff&quot;&gt;2&lt;br&gt;&lt;/font&gt;&lt;/b&gt;" style="rounded=1;whiteSpace=wrap;html=1;fillColor=#000000;strokeColor=#FFFFFF;fontColor=#161513;fontFamily=Calibri;labelBackgroundColor=none;align=center;arcSize=50;verticalAlign=middle;aspect=fixed;container=0;" parent="0iEBDOv3ILu3kZ8N8QKH-1" vertex="1">
          <mxGeometry x="34.4764" y="228.35500000000138" width="22.047199999999997" height="22.05" as="geometry" />
        </mxCell>
        <mxCell id="F5BmnTT7dxyMHlXGKzny-12" value="Source" style="text;strokeColor=none;align=center;fillColor=none;verticalAlign=middle;whiteSpace=wrap;rounded=0;spacing=0;rotation=0;html=1;fontColor=#000000;container=0;" parent="0iEBDOv3ILu3kZ8N8QKH-1" vertex="1">
          <mxGeometry x="25.815" y="206.99874999999793" width="39.37" height="28.3464" as="geometry" />
        </mxCell>
        <mxCell id="kuL6DLgfm3cLlOCiXe2V-9" value="&lt;b&gt;&lt;font&gt;CNP&lt;/font&gt;&lt;/b&gt;" style="whiteSpace=wrap;html=1;align=center;fontFamily=Calibri;verticalAlign=top;fillColor=#F5F4F2;rounded=1;arcSize=10;strokeColor=#9E9892;fontColor=#312D2A;fontSize=12;container=0;" parent="0iEBDOv3ILu3kZ8N8QKH-1" vertex="1">
          <mxGeometry x="221.42050000000017" y="134" width="77.72" height="86" as="geometry" />
        </mxCell>
        <mxCell id="kuL6DLgfm3cLlOCiXe2V-10" value="" style="shape=image;verticalLabelPosition=bottom;verticalAlign=top;imageAspect=0;aspect=fixed;image=data:image/svg+xml,PHN2ZyB4bWxucz0iaHR0cDovL3d3dy53My5vcmcvMjAwMC9zdmciIHZpZXdCb3g9IjAgMCA0Mi4wNCA0MiIgZGF0YS1uYW1lPSJMYXllciAxIiBpZD0iTGF5ZXJfMSI+PG1ldGFkYXRhPiYjeGE7JiN4YTsgICAmI3hhOyAgICAgICYjeGE7ICAgICAgICAgJiN4YTsgICAgICAgICAgICAmI3hhOyAgICAgICAgICAgICAgIGljb24mI3hhOyAgICAgICAgICAgICAgIHNlcnZpY2UmI3hhOyAgICAgICAgICAgICAgIGludGVybmV0JiN4YTsgICAgICAgICAgICAgICB3d3cmI3hhOyAgICAgICAgICAgICAgIGNvbm5lY3Rpdml0eSYjeGE7ICAgICAgICAgICAgICAgY29tbXVuaWNhdGlvbiYjeGE7ICAgICAgICAgICAgJiN4YTsgICAgICAgICAmI3hhOyAgICAgICAgIDIwMjItMTEtMTBUMTc6MDk6MzAtMDY6MDAmI3hhOyAgICAgICAgIHhtcC5paWQ6NmFmNTE2NDEtZmI1ZC00ZjYzLWJkMTctM2M4ZDMzNDI4ZDkwJiN4YTsgICAgICAgICB4bXAuZGlkOjZhZjUxNjQxLWZiNWQtNGY2My1iZDE3LTNjOGQzMzQyOGQ5MCYjeGE7ICAgICAgICAgeG1wLmRpZDo2YWY1MTY0MS1mYjVkLTRmNjMtYmQxNy0zYzhkMzM0MjhkOTAmI3hhOyAgICAgICAgICYjeGE7ICAgICAgICAgICAgJiN4YTsgICAgICAgICAgICAgICAmI3hhOyAgICAgICAgICAgICAgICAgICYjeGE7ICAgICAgICAgICAgICAgICAgICAgc2F2ZWQmI3hhOyAgICAgICAgICAgICAgICAgICAgIHhtcC5paWQ6NmFmNTE2NDEtZmI1ZC00ZjYzLWJkMTctM2M4ZDMzNDI4ZDkwJiN4YTsgICAgICAgICAgICAgICAgICAgICAyMDIyLTExLTEwVDE3OjA5OjMwLTA2OjAwJiN4YTsgICAgICAgICAgICAgICAgICAgICBBZG9iZSBCcmlkZ2UgMjAyMSAoTWFjaW50b3NoKSYjeGE7ICAgICAgICAgICAgICAgICAgICAgL21ldGFkYXRhJiN4YTsgICAgICAgICAgICAgICAgICAmI3hhOyAgICAgICAgICAgICAgICYjeGE7ICAgICAgICAgICAgJiN4YTsgICAgICAgICAmI3hhOyAgICAgICYjeGE7ICAgJiN4YTsmI3hhOyAgICAgICAgICAgICAgICAgICAgICAgICAgICAgICAgICAgICAgICAgICAgICAgICAgICAgICAgICAgICAgICAgICAgICAgICAgICAgICAgICAgICAgICAgICAgICAgICAgICAmI3hhOyAgICAgICAgICAgICAgICAgICAgICAgICAgICAgICAgICAgICAgICAgICAgICAgICAgICAgICAgICAgICAgICAgICAgICAgICAgICAgICAgICAgICAgICAgICAgICAgICAgICAmI3hhOyAgICAgICAgICAgICAgICAgICAgICAgICAgICAgICAgICAgICAgICAgICAgICAgICAgICAgICAgICAgICAgICAgICAgICAgICAgICAgICAgICAgICAgICAgICAgICAgICAgICAmI3hhOyAgICAgICAgICAgICAgICAgICAgICAgICAgICAgICAgICAgICAgICAgICAgICAgICAgICAgICAgICAgICAgICAgICAgICAgICAgICAgICAgICAgICAgICAgICAgICAgICAgICAmI3hhOyAgICAgICAgICAgICAgICAgICAgICAgICAgICAgICAgICAgICAgICAgICAgICAgICAgICAgICAgICAgICAgICAgICAgICAgICAgICAgICAgICAgICAgICAgICAgICAgICAgICAmI3hhOyAgICAgICAgICAgICAgICAgICAgICAgICAgICAgICAgICAgICAgICAgICAgICAgICAgICAgICAgICAgICAgICAgICAgICAgICAgICAgICAgICAgICAgICAgICAgICAgICAgICAmI3hhOyAgICAgICAgICAgICAgICAgICAgICAgICAgICAgICAgICAgICAgICAgICAgICAgICAgICAgICAgICAgICAgICAgICAgICAgICAgICAgICAgICAgICAgICAgICAgICAgICAgICAmI3hhOyAgICAgICAgICAgICAgICAgICAgICAgICAgICAgICAgICAgICAgICAgICAgICAgICAgICAgICAgICAgICAgICAgICAgICAgICAgICAgICAgICAgICAgICAgICAgICAgICAgICAmI3hhOyAgICAgICAgICAgICAgICAgICAgICAgICAgICAgICAgICAgICAgICAgICAgICAgICAgICAgICAgICAgICAgICAgICAgICAgICAgICAgICAgICAgICAgICAgICAgICAgICAgICAmI3hhOyAgICAgICAgICAgICAgICAgICAgICAgICAgICAgICAgICAgICAgICAgICAgICAgICAgICAgICAgICAgICAgICAgICAgICAgICAgICAgICAgICAgICAgICAgICAgICAgICAgICAmI3hhOyAgICAgICAgICAgICAgICAgICAgICAgICAgICAgICAgICAgICAgICAgICAgICAgICAgICAgICAgICAgICAgICAgICAgICAgICAgICAgICAgICAgICAgICAgICAgICAgICAgICAmI3hhOyAgICAgICAgICAgICAgICAgICAgICAgICAgICAgICAgICAgICAgICAgICAgICAgICAgICAgICAgICAgICAgICAgICAgICAgICAgICAgICAgICAgICAgICAgICAgICAgICAgICAmI3hhOyAgICAgICAgICAgICAgICAgICAgICAgICAgICAgICAgICAgICAgICAgICAgICAgICAgICAgICAgICAgICAgICAgICAgICAgICAgICAgICAgICAgICAgICAgICAgICAgICAgICAmI3hhOyAgICAgICAgICAgICAgICAgICAgICAgICAgICAgICAgICAgICAgICAgICAgICAgICAgICAgICAgICAgICAgICAgICAgICAgICAgICAgICAgICAgICAgICAgICAgICAgICAgICAmI3hhOyAgICAgICAgICAgICAgICAgICAgICAgICAgICAgICAgICAgICAgICAgICAgICAgICAgICAgICAgICAgICAgICAgICAgICAgICAgICAgICAgICAgICAgICAgICAgICAgICAgICAmI3hhOyAgICAgICAgICAgICAgICAgICAgICAgICAgICAgICAgICAgICAgICAgICAgICAgICAgICAgICAgICAgICAgICAgICAgICAgICAgICAgICAgICAgICAgICAgICAgICAgICAgICAmI3hhOyAgICAgICAgICAgICAgICAgICAgICAgICAgICAgICAgICAgICAgICAgICAgICAgICAgICAgICAgICAgICAgICAgICAgICAgICAgICAgICAgICAgICAgICAgICAgICAgICAgICAmI3hhOyAgICAgICAgICAgICAgICAgICAgICAgICAgICAgICAgICAgICAgICAgICAgICAgICAgICAgICAgICAgICAgICAgICAgICAgICAgICAgICAgICAgICAgICAgICAgICAgICAgICAmI3hhOyAgICAgICAgICAgICAgICAgICAgICAgICAgICAgICAgICAgICAgICAgICAgICAgICAgICAgICAgICAgICAgICAgICAgICAgICAgICAgICAgICAgICAgICAgICAgICAgICAgICAmI3hhOyAgICAgICAgICAgICAgICAgICAgICAgICAgICAgICAgICAgICAgICAgICAgICAgICAgICAgICAgICAgICAgICAgICAgICAgICAgICAgICAgICAgICAgICAgICAgICAgICAgICAmI3hhOyAgICAgICAgICAgICAgICAgICAgICAgICAgICYjeGE7PC9tZXRhZGF0YT4mI3hhOzxwYXRoIGZpbGw9IiNmZmYiIGQ9Ik0yMSw0MS41YTkuMjUsOS4yNSwwLDAsMS05LjI1LTkuMjIsOSw5LDAsMCwxLDEuNDctNWwtLjQ3LS4wOGE5LDksMCwwLDEtMi41NC0xLjA2LDcuNzMsNy43MywwLDAsMS0xLjg1LjIyQTcuODcsNy44NywwLDAsMSw2LDExLDguNDgsOC40OCwwLDAsMSwxNC4zNCwzLjdhNy42MSw3LjYxLDAsMCwxLDEuMjUuMUExMy40MiwxMy40MiwwLDAsMSwyNC40MS41LDEzLjU2LDEzLjU2LDAsMCwxLDM3LjcyLDExLjc5YTcuODcsNy44NywwLDAsMS00LjA2LDE0LjYyLDcuNzIsNy43MiwwLDAsMS0yLjg1LS41NEExMy45MywxMy45MywwLDAsMSwyOSwyNi43bC0uNDguMTZhOS4xMyw5LjEzLDAsMCwxLDEuNzksNS40MkE5LjI1LDkuMjUsMCwwLDEsMjEsNDEuNVoiLz48cGF0aCBmaWxsPSIjZmZmIiBkPSJNMjQuNDEsMUExMywxMywwLDAsMSwzNy4yNywxMi4xMWE3LjM3LDcuMzcsMCwwLDEtNi40OSwxMy4yMSwxMy43LDEzLjcsMCwwLDEtMiwuOTFzLS40MS4xNS0xLjE3LjM1YTguNzMsOC43MywwLDEsMS0xNS4zNSw1LjdBOC42LDguNiwwLDAsMSwxNC4xMiwyN2wtMS4yNi0uMjFhOC4zNSw4LjM1LDAsMCwxLTIuNTUtMS4xQTcuMzcsNy4zNywwLDEsMSw2LjQ1LDExLjQyLDgsOCwwLDAsMSwxNC4zNCw0LjJhNy40NSw3LjQ1LDAsMCwxLDEuNC4xM0ExMi45MywxMi45MywwLDAsMSwyNC40MSwxbTAtMWExNCwxNCwwLDAsMC05LDMuMjcsMTAuMTMsMTAuMTMsMCwwLDAtMS4wOS0uMDcsOSw5LDAsMCwwLTguOCw3LjQ2QTguMzcsOC4zNywwLDAsMCw4LjM4LDI2LjkxYTgsOCwwLDAsMCwxLjc2LS4xOSw5LjcyLDkuNzIsMCwwLDAsMi4zMSwxLDkuNDYsOS40NiwwLDAsMC0xLjE4LDQuNiw5Ljc1LDkuNzUsMCwwLDAsMTkuNSwwLDkuNjIsOS42MiwwLDAsMC0xLjUxLTUuMTYsMTMuMDksMTMuMDksMCwwLDAsMS41OC0uNyw4LjIsOC4yLDAsMCwwLDIuODIuNDksOC4zNyw4LjM3LDAsMCwwLDQuNTItMTUuNDJBMTQuMDcsMTQuMDcsMCwwLDAsMjQuNDEsMFoiLz48cGF0aCBmaWxsPSJub25lIiBkPSJNMTcuMzIsMzEuNTRhMTMsMTMsMCwwLDEsMS4yMi00Ljg1LDEyLjYsMTIuNiwwLDAsMSwuOC0xLjQ0LDcuMjcsNy4yNywwLDAsMC01LjU1LDYuMjloMy41M1oiLz48cGF0aCBmaWxsPSJub25lIiBkPSJNMTguODIsMzNhMTEuNDcsMTEuNDcsMCwwLDAsMS43Niw1LjM1Yy4xNC4yMS4yOC40My40NC42NC4xNS0uMjEuMy0uNDMuNDMtLjY0QTExLjQ4LDExLjQ4LDAsMCwwLDIzLjIyLDMzWiIvPjxwYXRoIGZpbGw9Im5vbmUiIGQ9Ik0yMy4yMiwzMS41NGExMS4zOSwxMS4zOSwwLDAsMC0xLjY5LTUuMzVjLS4xNi0uMjYtLjMzLS41MS0uNTEtLjc2LS4xOC4yNS0uMzUuNS0uNTIuNzZhMTEuNjIsMTEuNjIsMCwwLDAtMS42OSw1LjM1WiIvPjxwYXRoIGZpbGw9Im5vbmUiIGQ9Ik0yMi41MSwxMS4yMUExLjQ5LDEuNDksMCwxLDAsMjEsMTIuNywxLjQ5LDEuNDksMCwwLDAsMjIuNTEsMTEuMjFaIi8+PHBhdGggZmlsbD0ibm9uZSIgZD0iTTEzLjM4LDE2LjA1YTEuNDksMS40OSwwLDEsMCwxLjQ5LDEuNDlBMS40OSwxLjQ5LDAsMCwwLDEzLjM4LDE2LjA1WiIvPjxwYXRoIGZpbGw9Im5vbmUiIGQ9Ik0yOC42NSwxOWExLjQ5LDEuNDksMCwxLDAtMS40OS0xLjQ5QTEuNDksMS40OSwwLDAsMCwyOC42NSwxOVoiLz48cGF0aCBmaWxsPSJub25lIiBkPSJNMjIuNywyNS4yNWExMi41MywxMi41MywwLDAsMSwuNzksMS40NCwxMi44NiwxMi44NiwwLDAsMSwxLjIzLDQuODVoMy41MkE3LjI2LDcuMjYsMCwwLDAsMjIuNywyNS4yNVoiLz48cGF0aCBmaWxsPSJub25lIiBkPSJNMTcuMzMsMzNIMTMuNzlhNy4yNyw3LjI3LDAsMCwwLDUuNjQsNi4zLDExLjg3LDExLjg3LDAsMCwxLS44Mi0xLjQyQTEyLjg5LDEyLjg5LDAsMCwxLDE3LjMzLDMzWiIvPjxwYXRoIGZpbGw9Im5vbmUiIGQ9Ik0yNC43MSwzM2ExMy4wOSwxMy4wOSwwLDAsMS0xLjI5LDQuODgsMTMuMzEsMTMuMzEsMCwwLDEtLjgxLDEuNDJBNy4yNiw3LjI2LDAsMCwwLDI4LjI0LDMzSDI0LjcxWiIvPjxwYXRoIGZpbGw9IiMyYzU5NjciIGQ9Ik0zNy4yNywxMi4xMUExMywxMywwLDAsMCwxNS43NCw0LjMzYTcuNDUsNy40NSwwLDAsMC0xLjQtLjEzLDgsOCwwLDAsMC03Ljg5LDcuMjIsNy4zNyw3LjM3LDAsMSwwLDMuODYsMTQuMjMsOC4zNSw4LjM1LDAsMCwwLDIuNTUsMS4xLDkuNjQsOS42NCwwLDAsMSwxLjA4LTEuMzEsNyw3LDAsMCwxLTMuMDgtMS4yMWwtLjMtLjIyLS4zNi4xMmE2LDYsMCwwLDEtMS44Mi4yOUE1Ljg4LDUuODgsMCwwLDEsNy4zLDEyLjc1bC42LS4xMVYxMmE2LjQ3LDYuNDcsMCwwLDEsNi40NC02LjM0LDYuNjYsNi42NiwwLDAsMSwxLjQ1LjE3bC40LjA5LjI5LS4yN2ExMS40OSwxMS40OSwwLDAsMSwxOS4zNiw3bDAsLjQuMzcuMThhNS44OCw1Ljg4LDAsMCwxLTIuNTksMTEuMTcsNS44LDUuOCwwLDAsMS0yLjYtLjYxbC0uMzYtLjE4LS4zNS4yMUExMS40OCwxMS40OCwwLDAsMSwyNy42NywyNWE5Ljc3LDkuNzcsMCwwLDEsMS4xMiwxLjIsMTMuNywxMy43LDAsMCwwLDItLjkxLDcuMjcsNy4yNywwLDAsMCwyLjg4LjU5LDcuMzcsNy4zNywwLDAsMCwzLjYxLTEzLjhaIi8+PHBhdGggZmlsbD0iIzJjNTk2NyIgZD0iTTI0LjM3LDI0LjIzVjE4LjI4aDEuNGEzLDMsMCwxLDAsMC0xLjQ5SDIyLjg4djdhMTAuMDYsMTAuMDYsMCwwLDAtMS4xMi0uMTZWMTQuMDlhMywzLDAsMSwwLTEuNDksMFYyMy42YTkuODgsOS44OCwwLDAsMC0xLjExLjE2di03aC0yLjlhMywzLDAsMSwwLDAsMS40OWgxLjQxdjUuOTVhOC43NSw4Ljc1LDAsMSwwLDYuNywwWm00LjI4LTguMThhMS40OSwxLjQ5LDAsMSwxLTEuNDksMS40OUExLjQ5LDEuNDksMCwwLDEsMjguNjUsMTYuMDVaTTEzLjM4LDE5YTEuNDksMS40OSwwLDEsMSwxLjQ5LTEuNDlBMS40OSwxLjQ5LDAsMCwxLDEzLjM4LDE5Wm02LjE1LTcuODJBMS40OSwxLjQ5LDAsMSwxLDIxLDEyLjcsMS40OSwxLjQ5LDAsMCwxLDE5LjUzLDExLjIxWm0xLDE1Yy4xNy0uMjYuMzQtLjUxLjUyLS43Ni4xOC4yNS4zNS41LjUxLjc2YTExLjM5LDExLjM5LDAsMCwxLDEuNjksNS4zNUgxOC44MUExMS42MiwxMS42MiwwLDAsMSwyMC41LDI2LjE5Wk0yMSwzOWMtLjE2LS4yMS0uMy0uNDMtLjQ0LS42NEExMS40NywxMS40NywwLDAsMSwxOC44MiwzM2g0LjRhMTEuNDgsMTEuNDgsMCwwLDEtMS43Nyw1LjM1QzIxLjMyLDM4LjU5LDIxLjE3LDM4LjgxLDIxLDM5Wk0xOS4zNCwyNS4yNWExMi42LDEyLjYsMCwwLDAtLjgsMS40NCwxMywxMywwLDAsMC0xLjIyLDQuODVIMTMuNzlBNy4yNyw3LjI3LDAsMCwxLDE5LjM0LDI1LjI1Wk0xMy43OSwzM2gzLjU0YTEyLjg5LDEyLjg5LDAsMCwwLDEuMjgsNC44OCwxMS44NywxMS44NywwLDAsMCwuODIsMS40MkE3LjI3LDcuMjcsMCwwLDEsMTMuNzksMzNabTguODIsNi4zYTEzLjMxLDEzLjMxLDAsMCwwLC44MS0xLjQyQTEzLjA5LDEzLjA5LDAsMCwwLDI0LjcxLDMzaDMuNTNBNy4yNiw3LjI2LDAsMCwxLDIyLjYxLDM5LjMzWm00LjUxLTcuNzloLTIuNGExMi44NiwxMi44NiwwLDAsMC0xLjIzLTQuODUsMTIuNTMsMTIuNTMsMCwwLDAtLjc5LTEuNDQsNy4yNiw3LjI2LDAsMCwxLDUuNTQsNi4yOVoiLz48L3N2Zz4=;container=0;" parent="0iEBDOv3ILu3kZ8N8QKH-1" vertex="1">
          <mxGeometry x="239.2805000000002" y="169" width="42" height="42" as="geometry" />
        </mxCell>
        <mxCell id="BdwrK2Fa34PraJGK5PwO-1" value="" style="shape=image;verticalLabelPosition=bottom;verticalAlign=top;imageAspect=0;aspect=fixed;image=data:image/svg+xml,PHN2ZyB4bWxucz0iaHR0cDovL3d3dy53My5vcmcvMjAwMC9zdmciIHZpZXdCb3g9IjAgMCA0My4xOCA0MiIgZGF0YS1uYW1lPSJMYXllciAxIiBpZD0iTGF5ZXJfMSI+JiN4YTsgICAgPGRlZnM+JiN4YTsgICAgICAgIDxzdHlsZT4mI3hhOyAgICAgICAgICAgIC5jbHMtMXtmaWxsOiNmZmZ9LmNscy0ye2ZpbGw6IzJjNTk2N30mI3hhOyAgICAgICAgPC9zdHlsZT4mI3hhOyAgICA8L2RlZnM+JiN4YTsgICAgPHBhdGggZD0iTTM4LjA5IDQxLjVhNC41OSA0LjU5IDAgMCAxLTEuMjUtOXYtMi40M0gyNGEyLjY5IDIuNjkgMCAwIDEtMS4xOCAxLjE4djEuMjVhNC41OSA0LjU5IDAgMSAxLTIuNDkgMHYtMS4yNWEyLjY5IDIuNjkgMCAwIDEtMS4xOC0xLjE4SDYuMzl2Mi40NGE0LjU5IDQuNTkgMCAxIDEtMi40OSAwdi00LjloMTUuMjdhMi43NyAyLjc3IDAgMCAxIDEuMTgtMS4xOXYtMS41OUg2LjQyVjIuNWEyIDIgMCAwIDEgMi0ySDE2YTIgMiAwIDAgMSAxLjYxLjgxTDE5IDMuMjRoMTUuNzhhMiAyIDAgMCAxIDIgMnYxOS41OUgyMi44NHYxLjU2QTIuNzcgMi43NyAwIDAgMSAyNCAyNy41OGgxNS4zM3Y0LjkyYTQuNTggNC41OCAwIDAgMS0xLjI0IDlaIiBjbGFzcz0iY2xzLTEiLz4mI3hhOyAgICA8cGF0aCBkPSJNMTYgMWExLjUxIDEuNTEgMCAwIDEgMS4yMS42MWwxLjU5IDIuMTNoMTZhMS41MSAxLjUxIDAgMCAxIDEuNSAxLjV2MTkuMDlIMjIuMzR2Mi4zOWEyLjI5IDIuMjkgMCAwIDEgMS4zNiAxLjM2aDE1LjEzdjQuODFhNC4wOSA0LjA5IDAgMSAxLTEuNDggMHYtMy4zMkgyMy43YTIuMjQgMi4yNCAwIDAgMS0xLjM2IDEuMzV2MmE0LjA5IDQuMDkgMCAxIDEtMS40OSAwdi0yYTIuMiAyLjIgMCAwIDEtMS4zNS0xLjM1SDUuODl2My4zM2E0LjA5IDQuMDkgMCAxIDEtMS40OSAwdi00LjhoMTUuMWEyLjI0IDIuMjQgMCAwIDEgMS4zNS0xLjM2di0yLjQxSDYuOTJWMi41QTEuNSAxLjUgMCAwIDEgOC40MiAxSDE2bTAtMUg4LjQyYTIuNSAyLjUgMCAwIDAtMi41IDIuNXYyMi44M2gxMy45M3YuNzhhMy4yMSAzLjIxIDAgMCAwLTEgMUgzLjR2NWE1LjA5IDUuMDkgMCAxIDAgMy40OSAwdi0xLjU0aDEyYTMuMjEgMy4yMSAwIDAgMCAxIDF2LjU5YTUuMDkgNS4wOSAwIDEgMCAzLjQ5IDB2LS41OWEzLjIxIDMuMjEgMCAwIDAgMS0xaDEydjEuNTZhNS4wOSA1LjA5IDAgMSAwIDMuNDggMHYtNS4wNUgyNC4zMWEzLjIxIDMuMjEgMCAwIDAtMS0xdi0uNzhoMTMuOTdWNS4yNGEyLjUxIDIuNTEgMCAwIDAtMi41LTIuNUgxOS4yNkwxOCAxYTIuNTIgMi41MiAwIDAgMC0yLTFaIiBjbGFzcz0iY2xzLTEiLz4mI3hhOyAgICA8cGF0aCBkPSJNMzguODMgMzIuODl2LTQuODFIMjMuN2EyLjI5IDIuMjkgMCAwIDAtMS4zNi0xLjM2di0yLjM5aDEzLjk0VjUuMjRhMS41MSAxLjUxIDAgMCAwLTEuNS0xLjVoLTE2bC0xLjYxLTIuMTNBMS41MSAxLjUxIDAgMCAwIDE2IDFIOC40MmExLjUxIDEuNTEgMCAwIDAtMS41MSAxLjV2MjEuODNoMTMuOTR2Mi4zOWEyLjI0IDIuMjQgMCAwIDAtMS4zNSAxLjM2SDQuNHY0LjhhNC4wOSA0LjA5IDAgMSAwIDEuNDkgMHYtMy4zMUgxOS41YTIuMiAyLjIgMCAwIDAgMS4zNSAxLjM1djJhNC4wOSA0LjA5IDAgMSAwIDEuNDkgMHYtMmEyLjI0IDIuMjQgMCAwIDAgMS4zNi0xLjM1aDEzLjY1djMuMzJhNC4wOSA0LjA5IDAgMSAwIDEuNDggMFpNOC40IDIuNUgxNmwyIDIuNzRoMTYuNzl2MTcuNjFIOC40Wk0yLjQ5IDM2LjkxYTIuNiAyLjYgMCAxIDEgMi42IDIuNiAyLjYgMi42IDAgMCAxLTIuNi0yLjZabTE5LjExLTcuMzRhLjc2Ljc2IDAgMCAxLS43NS0uNzUuNzUuNzUgMCAwIDEgLjc1LS43NC43NC43NCAwIDAgMSAuNzQuNzQuNzUuNzUgMCAwIDEtLjc0Ljc1Wm0wIDkuOTRhMi42IDIuNiAwIDEgMSAyLjYtMi42IDIuNiAyLjYgMCAwIDEtMi42IDIuNlptMTMuODktMi42YTIuNiAyLjYgMCAxIDEgMi42IDIuNiAyLjYgMi42IDAgMCAxLTIuNi0yLjZaIiBjbGFzcz0iY2xzLTIiLz4mI3hhOyAgICA8cGF0aCBkPSJNMjguNjYgMTguMjhWOS43YTIgMiAwIDAgMC0xLjEzLTEuNTMgOC40MSA4LjQxIDAgMCAwLTIuNjItLjg5QTE3LjI5IDE3LjI5IDAgMCAwIDIxLjYgN2ExNy41IDE3LjUgMCAwIDAtMy4zNC4zIDguMDggOC4wOCAwIDAgMC0yLjY0LjkzIDEuOTMgMS45MyAwIDAgMC0xLjA4IDEuNnY4LjQ2YTEuOTEgMS45MSAwIDAgMCAxLjA4IDEuNTkgNy44NCA3Ljg0IDAgMCAwIDIuNjQuOTQgMTcuNSAxNy41IDAgMCAwIDMuMzQuMyAxNy41IDE3LjUgMCAwIDAgMy4zNC0uMyA3Ljg0IDcuODQgMCAwIDAgMi42NC0uOTQgMS45MSAxLjkxIDAgMCAwIDEuMDgtMS42Wk0xNiA5Ljc4YzAtLjEuMTUtLjIyLjQtLjM3QTUuMTcgNS4xNyAwIDAgMSAxNy41MiA5YTEwLjQxIDEwLjQxIDAgMCAxIDEuNzYtLjM5IDE3Ljg3IDE3Ljg3IDAgMCAxIDIuMzgtLjE1IDE2Ljg5IDE2Ljg5IDAgMCAxIDIuNDQuMTcgMTAuNDQgMTAuNDQgMCAwIDEgMS43OC4zNyA1LjIyIDUuMjIgMCAwIDEgMS4xMi40NGMuMjMuMTUuMzUuMjcuMzUuMzhzLS4xMi4yMi0uMzUuMzdhNC43MyA0LjczIDAgMCAxLTEuMDcuNDcgMTAuNDQgMTAuNDQgMCAwIDEtMS43OC4zOSAxNS41OCAxNS41OCAwIDAgMS0yLjQ0LjE3IDE1LjQ1IDE1LjQ1IDAgMCAxLTIuNDMtLjE3IDEwLjQ0IDEwLjQ0IDAgMCAxLTEuNzgtLjM5IDQuNzMgNC43MyAwIDAgMS0xLjA3LS40N2MtLjI5LS4xOS0uNDMtLjI3LS40My0uMzdabS0uMTkgMS44YTkuMTggOS4xOCAwIDAgMCAyLjU3LjggMTcuODMgMTcuODMgMCAwIDAgMy4xLjI2aDEuMjRsLjkyLS4wN2MuMjYgMCAuNTEtLjA3Ljc2LS4xMmwuOTEtLjE3LjI1LS4wN0EzLjE3IDMuMTcgMCAwIDAgMjYgMTJsLjQ4LS4xNS41Mi0uMTVoLjA3bC4xNS0uMDl2Mi40N2MwIC4xLS4xMS4yMy0uMzUuMzhhNC43MyA0LjczIDAgMCAxLTEuMDcuNDcgMTAuNzkgMTAuNzkgMCAwIDEtMS43OS4zOSAxNS43NiAxNS43NiAwIDAgMS0yLjQ1LjE4IDE1LjY2IDE1LjY2IDAgMCAxLTIuNDUtLjE4IDEwLjU3IDEwLjU3IDAgMCAxLTEuNzktLjM5IDQuNzMgNC43MyAwIDAgMS0xLjA3LS40N2MtLjI0LS4xNS0uMzYtLjI4LS4zNi0uMzhabTUuNjcgOGExNyAxNyAwIDAgMS0yLjQ1LS4xNyAxMC41NyAxMC41NyAwIDAgMS0xLjc5LS4zOSA1LjE5IDUuMTkgMCAwIDEtMS4wNy0uNDhjLS4yNC0uMTQtLjM2LS4yNy0uMzYtLjM3di0yLjRhOC41OCA4LjU4IDAgMCAwIDIuNTcuNzkgMTcuODMgMTcuODMgMCAwIDAgMy4xLjI2aC43MUExNi45NCAxNi45NCAwIDAgMCAyNSAxNi42YTcuMzggNy4zOCAwIDAgMCAyLjE3LS43djIuMzJjMCAuMS0uMTEuMjMtLjM1LjM3YTUuMTkgNS4xOSAwIDAgMS0xLjA3LjQ4IDEwLjc5IDEwLjc5IDAgMCAxLTEuNzkuMzkgMTcuMTQgMTcuMTQgMCAwIDEtMi40NS4xN1oiIGNsYXNzPSJjbHMtMiIvPiYjeGE7PC9zdmc+" vertex="1" parent="0iEBDOv3ILu3kZ8N8QKH-1">
          <mxGeometry x="24" y="169" width="43" height="42" as="geometry" />
        </mxCell>
        <mxCell id="BdwrK2Fa34PraJGK5PwO-2" value="" style="shape=image;verticalLabelPosition=bottom;labelBackgroundColor=default;verticalAlign=top;aspect=fixed;imageAspect=0;image=data:image/svg+xml,PHN2ZyB4bWxucz0iaHR0cDovL3d3dy53My5vcmcvMjAwMC9zdmciIHhtbDpzcGFjZT0icHJlc2VydmUiIHN0eWxlPSJlbmFibGUtYmFja2dyb3VuZDpuZXcgMCAwIDQyLjk5IDQyIiB2aWV3Qm94PSIwIDAgNDIuOTkgNDIiIHk9IjAiIHg9IjAiIGlkPSJMYXllcl8xIiB2ZXJzaW9uPSIxLjEiPiYjeGE7ICAgIDxzdHlsZT4mI3hhOyAgICAgICAgLnN0MHtmaWxsOiNmZmZ9LnN0MXtmaWxsOm5vbmV9LnN0MntmaWxsOiMyYzU5Njd9JiN4YTsgICAgPC9zdHlsZT4mI3hhOyAgICA8cGF0aCBkPSJtMTAgNDEuNS0xLjg4LS45NFYyNS44M0g1LjQ4bDIuMzMgMi4zMy0xLjc2IDEuNzYtNS4zNC01LjM0IDUuMzQtNS4zNEw3LjgxIDIxbC0yLjMzIDIuMzNoMi42NVYxMS41OWgzLjczdi0xLjMxYzAtNS4yMSA0LjAxLTkuNSA5LjEzLTkuNzYuMTctLjAyLjM0LS4wMi41MS0uMDIgMi40OCAwIDQuODMuOTQgNi42MyAyLjY1IDEuOTQgMS44NCAzIDQuMzIgMyA2Ljk5djEuNDVoMy43M3YxMS43NWgyLjY1bC0yLjMzLTIuMzMgMS43Ni0xLjc2IDUuMzQgNS4zNC01LjM0IDUuMzQtMS43Ni0xLjc2IDIuMzMtMi4zM2gtMi42NXYxNC43M2wtMS44OC45NEgxMHoiIGNsYXNzPSJzdDAiLz4mI3hhOyAgICA8cGF0aCBkPSJNMjEuNSAxYzIuMzUgMCA0LjU3Ljg4IDYuMjggMi41MWE5LjA0NSA5LjA0NSAwIDAgMSAyLjg1IDYuNjN2MS45NWgzLjczdjExLjc1aDQuMzVsLTIuODMtMi44MyAxLjA2LTEuMDYgNC42MyA0LjYzLTQuNjMgNC42My0xLjA2LTEuMDYgMi44My0yLjgzaC00LjM1djE0LjkybC0xLjQ5Ljc2SDEwLjEybC0xLjUtLjc1VjI1LjMzSDQuMjdsMi44MyAyLjgzLTEuMDYgMS4wNi00LjYzLTQuNjMgNC42My00LjYzIDEuMDYgMS4wNi0yLjgzIDIuODNoNC4zNVYxMi4wOWgzLjczdi0xLjgxYzAtNC45NCAzLjgtOS4wMSA4LjY2LTkuMjYuMTctLjAyLjMzLS4wMi40OS0uMDJtMC0xYy0uMTggMC0uMzYgMC0uNTQuMDEtNS4zOS4yOC05LjYgNC43OS05LjYgMTAuMjZ2LjgxSDcuNjJ2OS4wM2wtLjg3LS44Ny0uNzEtLjcxLS43MS43MUwuNyAyMy44N2wtLjcuNzIuNzEuNzEgNC42MyA0LjYzLjcxLjcxLjcxLS43MS44Ny0uODdWNDAuODhsLjU1LjI4IDEuNS43NS4yLjA5aDIzLjI0bC4yMS0uMTEgMS41LS43NS41NS0uMjhWMjkuMDRsLjg3Ljg3LjcxLjcxLjcxLS43MSA0LjYzLTQuNjMuNzEtLjcxLS43MS0uNzEtNC42My00LjYzLS43MS0uNzEtLjcxLjcxLS44Ny44N3YtOS4wM2gtMy43M3YtLjk1YzAtMi44MS0xLjEyLTUuNDItMy4xNi03LjM1QTEwLjIxIDEwLjIxIDAgMCAwIDIxLjUgMHptMTMuODcgMjIuODR2LS45NGwuOTQuOTRoLS45NHptLTI4LjY5IDAgLjk0LS45NHYuOTRoLS45NHptMjguNjkgMy40OWguOTRsLS45NC45NHYtLjk0em0tMjguNjkgMGguOTR2Ljk0bC0uOTQtLjk0eiIgY2xhc3M9InN0MCIvPiYjeGE7ICAgIDxwYXRoIGQ9Ik0yMS4zNiA1LjFjLTIuNy4wNy00LjkgMi4zOS00LjkgNS4xNnYxLjgyaDEwLjA3di0xLjk1YzAtMS4zNy0uNTQtMi42NS0xLjUyLTMuNjFhNS4wMyA1LjAzIDAgMCAwLTMuNjUtMS40MnoiIGNsYXNzPSJzdDEiLz4mI3hhOyAgICA8cGF0aCBkPSJNMTQuOTcgMTAuMjZjMC0zLjU4IDIuODUtNi41NyA2LjM2LTYuNjYgMS43OC0uMDUgMy40Ni42MSA0LjczIDEuODVhNi40ODYgNi40ODYgMCAwIDEgMS45NyA0LjY4djEuOTVoMS4xMnYtMS45NWMwLTIuMTItLjg1LTQuMDktMi4zOC01LjU1YTcuNTg2IDcuNTg2IDAgMCAwLTUuNjctMi4wOWMtNC4wNi4yMS03LjI0IDMuNjItNy4yNCA3Ljc3djEuODFoMS4xMnYtMS44MXpNMTAuMTIgMjMuODRoMS40OXYxLjQ5aC0xLjQ5VjM2LjloMjIuNzZWMjUuMzNoLTEuNDl2LTEuNDloMS40OVYxMy41OEgxMC4xMnYxMC4yNnptMTguNjUgMGgxLjQ5djEuNDloLTEuNDl2LTEuNDl6bS0yLjYxIDBoMS40OXYxLjQ5aC0xLjQ5di0xLjQ5em0tNy43OC4xOWEzLjEzOCAzLjEzOCAwIDAgMSAyLjU1LTIuNTNjMi0uMzUgMy43NCAxLjE5IDMuNzQgMy4xMiAwIDEuMi0uNjcgMi4yNC0xLjY1IDIuNzhsLjU5IDQuMDloLTQuMjNsLjYzLTQuMDdhMy4xNjkgMy4xNjkgMCAwIDEtMS42My0zLjM5em0tMy4wNC0uMTloMS40OXYxLjQ5aC0xLjQ5di0xLjQ5em0tMi42MSAwaDEuNDl2MS40OWgtMS40OXYtMS40OXoiIGNsYXNzPSJzdDEiLz4mI3hhOyAgICA8cGF0aCBkPSJtMjAuMDIgMjcuNDItLjYzIDQuMDdoNC4yM2wtLjU5LTQuMDljLjk4LS41NCAxLjY1LTEuNTggMS42NS0yLjc4IDAtMS45NC0xLjc0LTMuNDctMy43NC0zLjEyYTMuMTUgMy4xNSAwIDAgMC0yLjU1IDIuNTNjLS4yOCAxLjQ1LjQ2IDIuNzcgMS42MyAzLjM5eiIgY2xhc3M9InN0MiIvPiYjeGE7ICAgIDxwYXRoIGQ9Im0zNi45NSAxOS45NS0xLjA2IDEuMDYgMi44MyAyLjgzaC00LjM1VjEyLjA5aC0zLjczdi0xLjk1YzAtMi41My0xLjAxLTQuODgtMi44NS02LjYzYTkuMDc3IDkuMDc3IDAgMCAwLTYuNzgtMi41Yy00Ljg1LjI1LTguNjYgNC4zMi04LjY2IDkuMjZ2MS44MUg4LjYydjExLjc1SDQuMjdMNy4xIDIxbC0xLjA2LTEuMDYtNC42MyA0LjYzIDQuNjMgNC42MyAxLjA2LTEuMDYtMi44My0yLjgzaDQuMzV2MTMuMDZoMjUuNzRWMjUuMzNoNC4zNWwtMi44MyAyLjgzIDEuMDYgMS4wNiA0LjYzLTQuNjMtNC42Mi00LjY0em0tMjMuMS05LjY4YzAtNC4xNSAzLjE4LTcuNTYgNy4yNC03Ljc3IDIuMTItLjExIDQuMTQuNjMgNS42NyAyLjA5YTcuNTcgNy41NyAwIDAgMSAyLjM4IDUuNTV2MS45NWgtMS4xMnYtMS45NWMwLTEuNzgtLjctMy40NC0xLjk3LTQuNjhhNi40NTkgNi40NTkgMCAwIDAtNC43My0xLjg1Yy0zLjUxLjA5LTYuMzYgMy4wOC02LjM2IDYuNjZ2MS44MmgtMS4xMnYtMS44MnptMTIuNjgtLjE0djEuOTVIMTYuNDZ2LTEuODJjMC0yLjc4IDIuMi01LjEgNC45LTUuMTYgMS4zOC0uMDMgMi42Ny40NyAzLjY1IDEuNDMuOTguOTUgMS41MiAyLjIzIDEuNTIgMy42em02LjM0IDEzLjcxaC0xLjQ5djEuNDloMS40OVYzNi45SDEwLjEyVjI1LjMzaDEuNDl2LTEuNDloLTEuNDlWMTMuNThoMjIuNzZ2MTAuMjZ6TTguNjIgMzkuNTF2Ljc0bDEuNS43NWgyMi43NWwxLjUtLjc1di0uNzR6IiBjbGFzcz0ic3QyIi8+JiN4YTsgICAgPHBhdGggZD0iTTE1LjM0IDIzLjg0aDEuNDl2MS40OWgtMS40OXpNMTIuNzMgMjMuODRoMS40OXYxLjQ5aC0xLjQ5ek0yOC43NyAyMy44NGgxLjQ5djEuNDloLTEuNDl6TTI2LjE2IDIzLjg0aDEuNDl2MS40OWgtMS40OXoiIGNsYXNzPSJzdDIiLz4mI3hhOzwvc3ZnPg==;container=0;" vertex="1" parent="0iEBDOv3ILu3kZ8N8QKH-1">
          <mxGeometry x="622" y="166" width="43" height="42" as="geometry" />
        </mxCell>
        <mxCell id="BdwrK2Fa34PraJGK5PwO-3" value="&lt;b&gt;&lt;font&gt;Participant&amp;nbsp;&lt;/font&gt;&lt;/b&gt;&lt;b style=&quot;border-color: var(--border-color);&quot;&gt;Service Provider&lt;/b&gt;" style="whiteSpace=wrap;html=1;align=center;fontFamily=Calibri;verticalAlign=top;fillColor=#F5F4F2;rounded=1;arcSize=4;strokeColor=#9E9892;fontColor=#312D2A;fontSize=12;container=0;" vertex="1" parent="0iEBDOv3ILu3kZ8N8QKH-1">
          <mxGeometry x="819" y="98.9984999999997" width="160" height="171.36" as="geometry" />
        </mxCell>
        <mxCell id="BdwrK2Fa34PraJGK5PwO-4" value="&lt;b style=&quot;border-color: var(--border-color); color: rgb(49, 45, 42);&quot;&gt;Service Provider&lt;/b&gt;&amp;nbsp;Premise&lt;br&gt;Equipment" style="whiteSpace=wrap;html=1;strokeWidth=1;dashed=1;align=center;fontFamily=Calibri;verticalAlign=top;fontSize=12;dashPattern=1 1;glass=0;rounded=1;arcSize=2;container=0;" vertex="1" parent="0iEBDOv3ILu3kZ8N8QKH-1">
          <mxGeometry x="832" y="122.91849999999977" width="134" height="137.44" as="geometry" />
        </mxCell>
        <mxCell id="BdwrK2Fa34PraJGK5PwO-5" value="" style="shape=image;verticalLabelPosition=bottom;verticalAlign=top;imageAspect=0;aspect=fixed;image=data:image/svg+xml,PHN2ZyB4bWxucz0iaHR0cDovL3d3dy53My5vcmcvMjAwMC9zdmciIHZpZXdCb3g9IjAgMCA0MiA0MiIgZGF0YS1uYW1lPSJMYXllciAxIiBpZD0iTGF5ZXJfMSI+PHRpdGxlPkN1c3RvbWVyIFByZW1pc2VzIEVxdWlwbWVudDwvdGl0bGU+PG1ldGFkYXRhPiYjeGE7JiN4YTsgICAmI3hhOyAgICAgICYjeGE7ICAgICAgICAgJiN4YTsgICAgICAgICAgICAmI3hhOyAgICAgICAgICAgICAgIEN1c3RvbWVyIFByZW1pc2VzIEVxdWlwbWVudCYjeGE7ICAgICAgICAgICAgJiN4YTsgICAgICAgICAmI3hhOyAgICAgICAgICYjeGE7ICAgICAgICAgICAgJiN4YTsgICAgICAgICAgICAgICBpY29uJiN4YTsgICAgICAgICAgICAgICBDdXN0b21lciYjeGE7ICAgICAgICAgICAgICAgT24gUHJlbWlzZXMmI3hhOyAgICAgICAgICAgICAgIEVxdWlwbWVudCYjeGE7ICAgICAgICAgICAgICAgcm91dGVyJiN4YTsgICAgICAgICAgICAgICBDUEUmI3hhOyAgICAgICAgICAgICYjeGE7ICAgICAgICAgJiN4YTsgICAgICAgICAyMDIyLTEwLTIxVDEzOjQ1OjI5LTA1OjAwJiN4YTsgICAgICAgICB4bXAuaWlkOmFjYzRmMGU5LTllN2YtNDc5NC04NzY2LTVmNGM1Yjc2ZDMzMCYjeGE7ICAgICAgICAgeG1wLmRpZDpiZjI1OWIzYi0zNjZiLTQzYmUtYjY0MS04OGNlMjM1ODM1ODMmI3hhOyAgICAgICAgIHhtcC5kaWQ6YmYyNTliM2ItMzY2Yi00M2JlLWI2NDEtODhjZTIzNTgzNTgzJiN4YTsgICAgICAgICAmI3hhOyAgICAgICAgICAgICYjeGE7ICAgICAgICAgICAgICAgJiN4YTsgICAgICAgICAgICAgICAgICAmI3hhOyAgICAgICAgICAgICAgICAgICAgIHNhdmVkJiN4YTsgICAgICAgICAgICAgICAgICAgICB4bXAuaWlkOmJmMjU5YjNiLTM2NmItNDNiZS1iNjQxLTg4Y2UyMzU4MzU4MyYjeGE7ICAgICAgICAgICAgICAgICAgICAgMjAyMS0wOC0zMVQxNTo0MzowMy0wNTowMCYjeGE7ICAgICAgICAgICAgICAgICAgICAgQWRvYmUgQnJpZGdlIDIwMjEgKE1hY2ludG9zaCkmI3hhOyAgICAgICAgICAgICAgICAgICAgIC9tZXRhZGF0YSYjeGE7ICAgICAgICAgICAgICAgICAgJiN4YTsgICAgICAgICAgICAgICAmI3hhOyAgICAgICAgICAgICAgICYjeGE7ICAgICAgICAgICAgICAgICAgJiN4YTsgICAgICAgICAgICAgICAgICAgICBzYXZlZCYjeGE7ICAgICAgICAgICAgICAgICAgICAgeG1wLmlpZDphY2M0ZjBlOS05ZTdmLTQ3OTQtODc2Ni01ZjRjNWI3NmQzMzAmI3hhOyAgICAgICAgICAgICAgICAgICAgIDIwMjItMTAtMjFUMTM6NDU6MjktMDU6MDAmI3hhOyAgICAgICAgICAgICAgICAgICAgIEFkb2JlIEJyaWRnZSAyMDIxIChNYWNpbnRvc2gpJiN4YTsgICAgICAgICAgICAgICAgICAgICAvbWV0YWRhdGEmI3hhOyAgICAgICAgICAgICAgICAgICYjeGE7ICAgICAgICAgICAgICAgJiN4YTsgICAgICAgICAgICAmI3hhOyAgICAgICAgICYjeGE7ICAgICAgJiN4YTsgICAmI3hhOyYjeGE7ICAgICAgICAgICAgICAgICAgICAgICAgICAgICAgICAgICAgICAgICAgICAgICAgICAgICAgICAgICAgICAgICAgICAgICAgICAgICAgICAgICAgICAgICAgICAgICAgICAgICYjeGE7ICAgICAgICAgICAgICAgICAgICAgICAgICAgICAgICAgICAgICAgICAgICAgICAgICAgICAgICAgICAgICAgICAgICAgICAgICAgICAgICAgICAgICAgICAgICAgICAgICAgICYjeGE7ICAgICAgICAgICAgICAgICAgICAgICAgICAgICAgICAgICAgICAgICAgICAgICAgICAgICAgICAgICAgICAgICAgICAgICAgICAgICAgICAgICAgICAgICAgICAgICAgICAgICYjeGE7ICAgICAgICAgICAgICAgICAgICAgICAgICAgICAgICAgICAgICAgICAgICAgICAgICAgICAgICAgICAgICAgICAgICAgICAgICAgICAgICAgICAgICAgICAgICAgICAgICAgICYjeGE7ICAgICAgICAgICAgICAgICAgICAgICAgICAgICAgICAgICAgICAgICAgICAgICAgICAgICAgICAgICAgICAgICAgICAgICAgICAgICAgICAgICAgICAgICAgICAgICAgICAgICYjeGE7ICAgICAgICAgICAgICAgICAgICAgICAgICAgICAgICAgICAgICAgICAgICAgICAgICAgICAgICAgICAgICAgICAgICAgICAgICAgICAgICAgICAgICAgICAgICAgICAgICAgICYjeGE7ICAgICAgICAgICAgICAgICAgICAgICAgICAgICAgICAgICAgICAgICAgICAgICAgICAgICAgICAgICAgICAgICAgICAgICAgICAgICAgICAgICAgICAgICAgICAgICAgICAgICYjeGE7ICAgICAgICAgICAgICAgICAgICAgICAgICAgICAgICAgICAgICAgICAgICAgICAgICAgICAgICAgICAgICAgICAgICAgICAgICAgICAgICAgICAgICAgICAgICAgICAgICAgICYjeGE7ICAgICAgICAgICAgICAgICAgICAgICAgICAgICAgICAgICAgICAgICAgICAgICAgICAgICAgICAgICAgICAgICAgICAgICAgICAgICAgICAgICAgICAgICAgICAgICAgICAgICYjeGE7ICAgICAgICAgICAgICAgICAgICAgICAgICAgICAgICAgICAgICAgICAgICAgICAgICAgICAgICAgICAgICAgICAgICAgICAgICAgICAgICAgICAgICAgICAgICAgICAgICAgICYjeGE7ICAgICAgICAgICAgICAgICAgICAgICAgICAgICAgICAgICAgICAgICAgICAgICAgICAgICAgICAgICAgICAgICAgICAgICAgICAgICAgICAgICAgICAgICAgICAgICAgICAgICYjeGE7ICAgICAgICAgICAgICAgICAgICAgICAgICAgICAgICAgICAgICAgICAgICAgICAgICAgICAgICAgICAgICAgICAgICAgICAgICAgICAgICAgICAgICAgICAgICAgICAgICAgICYjeGE7ICAgICAgICAgICAgICAgICAgICAgICAgICAgICAgICAgICAgICAgICAgICAgICAgICAgICAgICAgICAgICAgICAgICAgICAgICAgICAgICAgICAgICAgICAgICAgICAgICAgICYjeGE7ICAgICAgICAgICAgICAgICAgICAgICAgICAgICAgICAgICAgICAgICAgICAgICAgJiN4YTs8L21ldGFkYXRhPiYjeGE7PHJlY3QgZmlsbD0iI2ZmZiIgcng9IjIuMTciIGhlaWdodD0iNDEiIHdpZHRoPSI0MSIgeT0iMC41IiB4PSIwLjUiLz48cGF0aCBmaWxsPSIjZmZmIiBkPSJNMzkuMzMsMUExLjY3LDEuNjcsMCwwLDEsNDEsMi42N1YzOS4zM0ExLjY3LDEuNjcsMCwwLDEsMzkuMzMsNDFIMi42N0ExLjY3LDEuNjcsMCwwLDEsMSwzOS4zM1YyLjY3QTEuNjcsMS42NywwLDAsMSwyLjY3LDFIMzkuMzNtMC0xSDIuNjdBMi42OCwyLjY4LDAsMCwwLDAsMi42N1YzOS4zM0EyLjY4LDIuNjgsMCwwLDAsMi42Nyw0MkgzOS4zM0EyLjY4LDIuNjgsMCwwLDAsNDIsMzkuMzNWMi42N0EyLjY4LDIuNjgsMCwwLDAsMzkuMzMsMFoiLz48cGF0aCBmaWxsPSIjMmM1OTY3IiBkPSJNMzkuMzMsMUgyLjY3QTEuNjcsMS42NywwLDAsMCwxLDIuNjdWMzkuMzNBMS42NywxLjY3LDAsMCwwLDIuNjcsNDFIMzkuMzNBMS42NywxLjY3LDAsMCwwLDQxLDM5LjMzVjIuNjdBMS42NywxLjY3LDAsMCwwLDM5LjMzLDFabS4xOSwzOC4zM2EuMi4yLDAsMCwxLS4xOS4xOUgyLjY3YS4yLjIsMCwwLDEtLjE5LS4xOVYyLjY3YS4yLjIsMCwwLDEsLjE5LS4xOUgzOS4zM2EuMi4yLDAsMCwxLC4xOS4xOVoiLz48cGF0aCBmaWxsPSIjMmM1OTY3IiBkPSJNMjEsMy41OUExNy40MSwxNy40MSwwLDEsMCwzOC40MSwyMSwxNy40MywxNy40MywwLDAsMCwyMSwzLjU5Wm0wLDMzLjM0QTE1LjkzLDE1LjkzLDAsMSwxLDM2LjkzLDIxLDE2LDE2LDAsMCwxLDIxLDM2LjkzWiIvPjxwb2x5Z29uIGZpbGw9IiMyYzU5NjciIHBvaW50cz0iMjEuNzQgMzEuMDYgMjEuNzQgMTEuMTIgMjQgMTMuMzggMjUuMDQgMTIuMzMgMjEgOC4yOSAxNi45NiAxMi4zMyAxOCAxMy4zOCAyMC4yNiAxMS4xMiAyMC4yNiAzMS4wNiAxOCAyOC44MSAxNi45NiAyOS44NiAyMSAzMy45IDI1LjA0IDI5Ljg2IDI0IDI4LjgxIDIxLjc0IDMxLjA2Ii8+PHBvbHlnb24gZmlsbD0iIzJjNTk2NyIgcG9pbnRzPSIyNi44OSAxOCAyNS44NSAxNi45NiAyMS44IDIxIDI1Ljg1IDI1LjA0IDI2Ljg5IDI0IDI0LjY0IDIxLjc0IDMzLjc3IDIxLjc0IDMzLjc3IDIwLjI2IDI0LjY0IDIwLjI2IDI2Ljg5IDE4Ii8+PHBvbHlnb24gZmlsbD0iIzJjNTk2NyIgcG9pbnRzPSIxNi4xNSAxNi45NiAxNS4xMSAxOCAxNy4zNiAyMC4yNiA4LjIyIDIwLjI2IDguMjIgMjEuNzQgMTcuMzYgMjEuNzQgMTUuMTEgMjQgMTYuMTUgMjUuMDQgMjAuMiAyMSAxNi4xNSAxNi45NiIvPjwvc3ZnPg==;container=0;" vertex="1" parent="0iEBDOv3ILu3kZ8N8QKH-1">
          <mxGeometry x="852" y="170" width="42" height="42" as="geometry" />
        </mxCell>
        <mxCell id="BdwrK2Fa34PraJGK5PwO-7" value="" style="shape=image;verticalLabelPosition=bottom;verticalAlign=top;imageAspect=0;aspect=fixed;image=data:image/svg+xml,PHN2ZyB4bWxucz0iaHR0cDovL3d3dy53My5vcmcvMjAwMC9zdmciIHZpZXdCb3g9IjAgMCA0My4xOCA0MiIgZGF0YS1uYW1lPSJMYXllciAxIiBpZD0iTGF5ZXJfMSI+JiN4YTsgICAgPGRlZnM+JiN4YTsgICAgICAgIDxzdHlsZT4mI3hhOyAgICAgICAgICAgIC5jbHMtMXtmaWxsOiNmZmZ9LmNscy0ye2ZpbGw6IzJjNTk2N30mI3hhOyAgICAgICAgPC9zdHlsZT4mI3hhOyAgICA8L2RlZnM+JiN4YTsgICAgPHBhdGggZD0iTTM4LjA5IDQxLjVhNC41OSA0LjU5IDAgMCAxLTEuMjUtOXYtMi40M0gyNGEyLjY5IDIuNjkgMCAwIDEtMS4xOCAxLjE4djEuMjVhNC41OSA0LjU5IDAgMSAxLTIuNDkgMHYtMS4yNWEyLjY5IDIuNjkgMCAwIDEtMS4xOC0xLjE4SDYuMzl2Mi40NGE0LjU5IDQuNTkgMCAxIDEtMi40OSAwdi00LjloMTUuMjdhMi43NyAyLjc3IDAgMCAxIDEuMTgtMS4xOXYtMS41OUg2LjQyVjIuNWEyIDIgMCAwIDEgMi0ySDE2YTIgMiAwIDAgMSAxLjYxLjgxTDE5IDMuMjRoMTUuNzhhMiAyIDAgMCAxIDIgMnYxOS41OUgyMi44NHYxLjU2QTIuNzcgMi43NyAwIDAgMSAyNCAyNy41OGgxNS4zM3Y0LjkyYTQuNTggNC41OCAwIDAgMS0xLjI0IDlaIiBjbGFzcz0iY2xzLTEiLz4mI3hhOyAgICA8cGF0aCBkPSJNMTYgMWExLjUxIDEuNTEgMCAwIDEgMS4yMS42MWwxLjU5IDIuMTNoMTZhMS41MSAxLjUxIDAgMCAxIDEuNSAxLjV2MTkuMDlIMjIuMzR2Mi4zOWEyLjI5IDIuMjkgMCAwIDEgMS4zNiAxLjM2aDE1LjEzdjQuODFhNC4wOSA0LjA5IDAgMSAxLTEuNDggMHYtMy4zMkgyMy43YTIuMjQgMi4yNCAwIDAgMS0xLjM2IDEuMzV2MmE0LjA5IDQuMDkgMCAxIDEtMS40OSAwdi0yYTIuMiAyLjIgMCAwIDEtMS4zNS0xLjM1SDUuODl2My4zM2E0LjA5IDQuMDkgMCAxIDEtMS40OSAwdi00LjhoMTUuMWEyLjI0IDIuMjQgMCAwIDEgMS4zNS0xLjM2di0yLjQxSDYuOTJWMi41QTEuNSAxLjUgMCAwIDEgOC40MiAxSDE2bTAtMUg4LjQyYTIuNSAyLjUgMCAwIDAtMi41IDIuNXYyMi44M2gxMy45M3YuNzhhMy4yMSAzLjIxIDAgMCAwLTEgMUgzLjR2NWE1LjA5IDUuMDkgMCAxIDAgMy40OSAwdi0xLjU0aDEyYTMuMjEgMy4yMSAwIDAgMCAxIDF2LjU5YTUuMDkgNS4wOSAwIDEgMCAzLjQ5IDB2LS41OWEzLjIxIDMuMjEgMCAwIDAgMS0xaDEydjEuNTZhNS4wOSA1LjA5IDAgMSAwIDMuNDggMHYtNS4wNUgyNC4zMWEzLjIxIDMuMjEgMCAwIDAtMS0xdi0uNzhoMTMuOTdWNS4yNGEyLjUxIDIuNTEgMCAwIDAtMi41LTIuNUgxOS4yNkwxOCAxYTIuNTIgMi41MiAwIDAgMC0yLTFaIiBjbGFzcz0iY2xzLTEiLz4mI3hhOyAgICA8cGF0aCBkPSJNMzguODMgMzIuODl2LTQuODFIMjMuN2EyLjI5IDIuMjkgMCAwIDAtMS4zNi0xLjM2di0yLjM5aDEzLjk0VjUuMjRhMS41MSAxLjUxIDAgMCAwLTEuNS0xLjVoLTE2bC0xLjYxLTIuMTNBMS41MSAxLjUxIDAgMCAwIDE2IDFIOC40MmExLjUxIDEuNTEgMCAwIDAtMS41MSAxLjV2MjEuODNoMTMuOTR2Mi4zOWEyLjI0IDIuMjQgMCAwIDAtMS4zNSAxLjM2SDQuNHY0LjhhNC4wOSA0LjA5IDAgMSAwIDEuNDkgMHYtMy4zMUgxOS41YTIuMiAyLjIgMCAwIDAgMS4zNSAxLjM1djJhNC4wOSA0LjA5IDAgMSAwIDEuNDkgMHYtMmEyLjI0IDIuMjQgMCAwIDAgMS4zNi0xLjM1aDEzLjY1djMuMzJhNC4wOSA0LjA5IDAgMSAwIDEuNDggMFpNOC40IDIuNUgxNmwyIDIuNzRoMTYuNzl2MTcuNjFIOC40Wk0yLjQ5IDM2LjkxYTIuNiAyLjYgMCAxIDEgMi42IDIuNiAyLjYgMi42IDAgMCAxLTIuNi0yLjZabTE5LjExLTcuMzRhLjc2Ljc2IDAgMCAxLS43NS0uNzUuNzUuNzUgMCAwIDEgLjc1LS43NC43NC43NCAwIDAgMSAuNzQuNzQuNzUuNzUgMCAwIDEtLjc0Ljc1Wm0wIDkuOTRhMi42IDIuNiAwIDEgMSAyLjYtMi42IDIuNiAyLjYgMCAwIDEtMi42IDIuNlptMTMuODktMi42YTIuNiAyLjYgMCAxIDEgMi42IDIuNiAyLjYgMi42IDAgMCAxLTIuNi0yLjZaIiBjbGFzcz0iY2xzLTIiLz4mI3hhOyAgICA8cGF0aCBkPSJNMjguNjYgMTguMjhWOS43YTIgMiAwIDAgMC0xLjEzLTEuNTMgOC40MSA4LjQxIDAgMCAwLTIuNjItLjg5QTE3LjI5IDE3LjI5IDAgMCAwIDIxLjYgN2ExNy41IDE3LjUgMCAwIDAtMy4zNC4zIDguMDggOC4wOCAwIDAgMC0yLjY0LjkzIDEuOTMgMS45MyAwIDAgMC0xLjA4IDEuNnY4LjQ2YTEuOTEgMS45MSAwIDAgMCAxLjA4IDEuNTkgNy44NCA3Ljg0IDAgMCAwIDIuNjQuOTQgMTcuNSAxNy41IDAgMCAwIDMuMzQuMyAxNy41IDE3LjUgMCAwIDAgMy4zNC0uMyA3Ljg0IDcuODQgMCAwIDAgMi42NC0uOTQgMS45MSAxLjkxIDAgMCAwIDEuMDgtMS42Wk0xNiA5Ljc4YzAtLjEuMTUtLjIyLjQtLjM3QTUuMTcgNS4xNyAwIDAgMSAxNy41MiA5YTEwLjQxIDEwLjQxIDAgMCAxIDEuNzYtLjM5IDE3Ljg3IDE3Ljg3IDAgMCAxIDIuMzgtLjE1IDE2Ljg5IDE2Ljg5IDAgMCAxIDIuNDQuMTcgMTAuNDQgMTAuNDQgMCAwIDEgMS43OC4zNyA1LjIyIDUuMjIgMCAwIDEgMS4xMi40NGMuMjMuMTUuMzUuMjcuMzUuMzhzLS4xMi4yMi0uMzUuMzdhNC43MyA0LjczIDAgMCAxLTEuMDcuNDcgMTAuNDQgMTAuNDQgMCAwIDEtMS43OC4zOSAxNS41OCAxNS41OCAwIDAgMS0yLjQ0LjE3IDE1LjQ1IDE1LjQ1IDAgMCAxLTIuNDMtLjE3IDEwLjQ0IDEwLjQ0IDAgMCAxLTEuNzgtLjM5IDQuNzMgNC43MyAwIDAgMS0xLjA3LS40N2MtLjI5LS4xOS0uNDMtLjI3LS40My0uMzdabS0uMTkgMS44YTkuMTggOS4xOCAwIDAgMCAyLjU3LjggMTcuODMgMTcuODMgMCAwIDAgMy4xLjI2aDEuMjRsLjkyLS4wN2MuMjYgMCAuNTEtLjA3Ljc2LS4xMmwuOTEtLjE3LjI1LS4wN0EzLjE3IDMuMTcgMCAwIDAgMjYgMTJsLjQ4LS4xNS41Mi0uMTVoLjA3bC4xNS0uMDl2Mi40N2MwIC4xLS4xMS4yMy0uMzUuMzhhNC43MyA0LjczIDAgMCAxLTEuMDcuNDcgMTAuNzkgMTAuNzkgMCAwIDEtMS43OS4zOSAxNS43NiAxNS43NiAwIDAgMS0yLjQ1LjE4IDE1LjY2IDE1LjY2IDAgMCAxLTIuNDUtLjE4IDEwLjU3IDEwLjU3IDAgMCAxLTEuNzktLjM5IDQuNzMgNC43MyAwIDAgMS0xLjA3LS40N2MtLjI0LS4xNS0uMzYtLjI4LS4zNi0uMzhabTUuNjcgOGExNyAxNyAwIDAgMS0yLjQ1LS4xNyAxMC41NyAxMC41NyAwIDAgMS0xLjc5LS4zOSA1LjE5IDUuMTkgMCAwIDEtMS4wNy0uNDhjLS4yNC0uMTQtLjM2LS4yNy0uMzYtLjM3di0yLjRhOC41OCA4LjU4IDAgMCAwIDIuNTcuNzkgMTcuODMgMTcuODMgMCAwIDAgMy4xLjI2aC43MUExNi45NCAxNi45NCAwIDAgMCAyNSAxNi42YTcuMzggNy4zOCAwIDAgMCAyLjE3LS43djIuMzJjMCAuMS0uMTEuMjMtLjM1LjM3YTUuMTkgNS4xOSAwIDAgMS0xLjA3LjQ4IDEwLjc5IDEwLjc5IDAgMCAxLTEuNzkuMzkgMTcuMTQgMTcuMTQgMCAwIDEtMi40NS4xN1oiIGNsYXNzPSJjbHMtMiIvPiYjeGE7PC9zdmc+" vertex="1" parent="0iEBDOv3ILu3kZ8N8QKH-1">
          <mxGeometry x="916" y="170" width="43" height="42" as="geometry" />
        </mxCell>
        <mxCell id="BdwrK2Fa34PraJGK5PwO-8" value="" style="endArrow=open;html=1;startArrow=none;startFill=0;endFill=0;rounded=0;fontFamily=Oracle Sans;fontSize=10.5;fontColor=#312D2A;labelBackgroundColor=none;strokeColor=#000000;endSize=6;elbow=vertical;exitX=0.044;exitY=0.628;exitDx=0;exitDy=0;exitPerimeter=0;" edge="1" parent="0iEBDOv3ILu3kZ8N8QKH-1">
          <mxGeometry x="415.97999999999996" y="265.7599999999993" width="50" height="50" as="geometry">
            <mxPoint x="515.5" y="189.71849999999904" as="sourcePoint" />
            <mxPoint x="622.5" y="189.71849999999904" as="targetPoint" />
          </mxGeometry>
        </mxCell>
        <mxCell id="tKnzxsVanUNIupR3Zm6B-3" value="" style="endArrow=open;html=1;startArrow=open;startFill=0;endFill=0;strokeColor=#312d2a;elbow=vertical;rounded=0;fontFamily=Calibri;fontColor=#312D2A;entryX=0.821;entryY=0.286;entryDx=0;entryDy=0;entryPerimeter=0;" edge="1" parent="0iEBDOv3ILu3kZ8N8QKH-1">
          <mxGeometry x="141.61000000000058" y="-61.20500000000084" width="50" height="50" as="geometry">
            <mxPoint x="854" y="190.40999999999985" as="sourcePoint" />
            <mxPoint x="665" y="190.40999999999985" as="targetPoint" />
          </mxGeometry>
        </mxCell>
        <mxCell id="BdwrK2Fa34PraJGK5PwO-6" value="" style="shape=image;verticalLabelPosition=bottom;labelBackgroundColor=default;verticalAlign=top;aspect=fixed;imageAspect=0;image=data:image/svg+xml,PHN2ZyB4bWxucz0iaHR0cDovL3d3dy53My5vcmcvMjAwMC9zdmciIHhtbDpzcGFjZT0icHJlc2VydmUiIHN0eWxlPSJlbmFibGUtYmFja2dyb3VuZDpuZXcgMCAwIDQyLjk5IDQyIiB2aWV3Qm94PSIwIDAgNDIuOTkgNDIiIHk9IjAiIHg9IjAiIGlkPSJMYXllcl8xIiB2ZXJzaW9uPSIxLjEiPiYjeGE7ICAgIDxzdHlsZT4mI3hhOyAgICAgICAgLnN0MHtmaWxsOiNmZmZ9LnN0MXtmaWxsOm5vbmV9LnN0MntmaWxsOiMyYzU5Njd9JiN4YTsgICAgPC9zdHlsZT4mI3hhOyAgICA8cGF0aCBkPSJtMTAgNDEuNS0xLjg4LS45NFYyNS44M0g1LjQ4bDIuMzMgMi4zMy0xLjc2IDEuNzYtNS4zNC01LjM0IDUuMzQtNS4zNEw3LjgxIDIxbC0yLjMzIDIuMzNoMi42NVYxMS41OWgzLjczdi0xLjMxYzAtNS4yMSA0LjAxLTkuNSA5LjEzLTkuNzYuMTctLjAyLjM0LS4wMi41MS0uMDIgMi40OCAwIDQuODMuOTQgNi42MyAyLjY1IDEuOTQgMS44NCAzIDQuMzIgMyA2Ljk5djEuNDVoMy43M3YxMS43NWgyLjY1bC0yLjMzLTIuMzMgMS43Ni0xLjc2IDUuMzQgNS4zNC01LjM0IDUuMzQtMS43Ni0xLjc2IDIuMzMtMi4zM2gtMi42NXYxNC43M2wtMS44OC45NEgxMHoiIGNsYXNzPSJzdDAiLz4mI3hhOyAgICA8cGF0aCBkPSJNMjEuNSAxYzIuMzUgMCA0LjU3Ljg4IDYuMjggMi41MWE5LjA0NSA5LjA0NSAwIDAgMSAyLjg1IDYuNjN2MS45NWgzLjczdjExLjc1aDQuMzVsLTIuODMtMi44MyAxLjA2LTEuMDYgNC42MyA0LjYzLTQuNjMgNC42My0xLjA2LTEuMDYgMi44My0yLjgzaC00LjM1djE0LjkybC0xLjQ5Ljc2SDEwLjEybC0xLjUtLjc1VjI1LjMzSDQuMjdsMi44MyAyLjgzLTEuMDYgMS4wNi00LjYzLTQuNjMgNC42My00LjYzIDEuMDYgMS4wNi0yLjgzIDIuODNoNC4zNVYxMi4wOWgzLjczdi0xLjgxYzAtNC45NCAzLjgtOS4wMSA4LjY2LTkuMjYuMTctLjAyLjMzLS4wMi40OS0uMDJtMC0xYy0uMTggMC0uMzYgMC0uNTQuMDEtNS4zOS4yOC05LjYgNC43OS05LjYgMTAuMjZ2LjgxSDcuNjJ2OS4wM2wtLjg3LS44Ny0uNzEtLjcxLS43MS43MUwuNyAyMy44N2wtLjcuNzIuNzEuNzEgNC42MyA0LjYzLjcxLjcxLjcxLS43MS44Ny0uODdWNDAuODhsLjU1LjI4IDEuNS43NS4yLjA5aDIzLjI0bC4yMS0uMTEgMS41LS43NS41NS0uMjhWMjkuMDRsLjg3Ljg3LjcxLjcxLjcxLS43MSA0LjYzLTQuNjMuNzEtLjcxLS43MS0uNzEtNC42My00LjYzLS43MS0uNzEtLjcxLjcxLS44Ny44N3YtOS4wM2gtMy43M3YtLjk1YzAtMi44MS0xLjEyLTUuNDItMy4xNi03LjM1QTEwLjIxIDEwLjIxIDAgMCAwIDIxLjUgMHptMTMuODcgMjIuODR2LS45NGwuOTQuOTRoLS45NHptLTI4LjY5IDAgLjk0LS45NHYuOTRoLS45NHptMjguNjkgMy40OWguOTRsLS45NC45NHYtLjk0em0tMjguNjkgMGguOTR2Ljk0bC0uOTQtLjk0eiIgY2xhc3M9InN0MCIvPiYjeGE7ICAgIDxwYXRoIGQ9Ik0yMS4zNiA1LjFjLTIuNy4wNy00LjkgMi4zOS00LjkgNS4xNnYxLjgyaDEwLjA3di0xLjk1YzAtMS4zNy0uNTQtMi42NS0xLjUyLTMuNjFhNS4wMyA1LjAzIDAgMCAwLTMuNjUtMS40MnoiIGNsYXNzPSJzdDEiLz4mI3hhOyAgICA8cGF0aCBkPSJNMTQuOTcgMTAuMjZjMC0zLjU4IDIuODUtNi41NyA2LjM2LTYuNjYgMS43OC0uMDUgMy40Ni42MSA0LjczIDEuODVhNi40ODYgNi40ODYgMCAwIDEgMS45NyA0LjY4djEuOTVoMS4xMnYtMS45NWMwLTIuMTItLjg1LTQuMDktMi4zOC01LjU1YTcuNTg2IDcuNTg2IDAgMCAwLTUuNjctMi4wOWMtNC4wNi4yMS03LjI0IDMuNjItNy4yNCA3Ljc3djEuODFoMS4xMnYtMS44MXpNMTAuMTIgMjMuODRoMS40OXYxLjQ5aC0xLjQ5VjM2LjloMjIuNzZWMjUuMzNoLTEuNDl2LTEuNDloMS40OVYxMy41OEgxMC4xMnYxMC4yNnptMTguNjUgMGgxLjQ5djEuNDloLTEuNDl2LTEuNDl6bS0yLjYxIDBoMS40OXYxLjQ5aC0xLjQ5di0xLjQ5em0tNy43OC4xOWEzLjEzOCAzLjEzOCAwIDAgMSAyLjU1LTIuNTNjMi0uMzUgMy43NCAxLjE5IDMuNzQgMy4xMiAwIDEuMi0uNjcgMi4yNC0xLjY1IDIuNzhsLjU5IDQuMDloLTQuMjNsLjYzLTQuMDdhMy4xNjkgMy4xNjkgMCAwIDEtMS42My0zLjM5em0tMy4wNC0uMTloMS40OXYxLjQ5aC0xLjQ5di0xLjQ5em0tMi42MSAwaDEuNDl2MS40OWgtMS40OXYtMS40OXoiIGNsYXNzPSJzdDEiLz4mI3hhOyAgICA8cGF0aCBkPSJtMjAuMDIgMjcuNDItLjYzIDQuMDdoNC4yM2wtLjU5LTQuMDljLjk4LS41NCAxLjY1LTEuNTggMS42NS0yLjc4IDAtMS45NC0xLjc0LTMuNDctMy43NC0zLjEyYTMuMTUgMy4xNSAwIDAgMC0yLjU1IDIuNTNjLS4yOCAxLjQ1LjQ2IDIuNzcgMS42MyAzLjM5eiIgY2xhc3M9InN0MiIvPiYjeGE7ICAgIDxwYXRoIGQ9Im0zNi45NSAxOS45NS0xLjA2IDEuMDYgMi44MyAyLjgzaC00LjM1VjEyLjA5aC0zLjczdi0xLjk1YzAtMi41My0xLjAxLTQuODgtMi44NS02LjYzYTkuMDc3IDkuMDc3IDAgMCAwLTYuNzgtMi41Yy00Ljg1LjI1LTguNjYgNC4zMi04LjY2IDkuMjZ2MS44MUg4LjYydjExLjc1SDQuMjdMNy4xIDIxbC0xLjA2LTEuMDYtNC42MyA0LjYzIDQuNjMgNC42MyAxLjA2LTEuMDYtMi44My0yLjgzaDQuMzV2MTMuMDZoMjUuNzRWMjUuMzNoNC4zNWwtMi44MyAyLjgzIDEuMDYgMS4wNiA0LjYzLTQuNjMtNC42Mi00LjY0em0tMjMuMS05LjY4YzAtNC4xNSAzLjE4LTcuNTYgNy4yNC03Ljc3IDIuMTItLjExIDQuMTQuNjMgNS42NyAyLjA5YTcuNTcgNy41NyAwIDAgMSAyLjM4IDUuNTV2MS45NWgtMS4xMnYtMS45NWMwLTEuNzgtLjctMy40NC0xLjk3LTQuNjhhNi40NTkgNi40NTkgMCAwIDAtNC43My0xLjg1Yy0zLjUxLjA5LTYuMzYgMy4wOC02LjM2IDYuNjZ2MS44MmgtMS4xMnYtMS44MnptMTIuNjgtLjE0djEuOTVIMTYuNDZ2LTEuODJjMC0yLjc4IDIuMi01LjEgNC45LTUuMTYgMS4zOC0uMDMgMi42Ny40NyAzLjY1IDEuNDMuOTguOTUgMS41MiAyLjIzIDEuNTIgMy42em02LjM0IDEzLjcxaC0xLjQ5djEuNDloMS40OVYzNi45SDEwLjEyVjI1LjMzaDEuNDl2LTEuNDloLTEuNDlWMTMuNThoMjIuNzZ2MTAuMjZ6TTguNjIgMzkuNTF2Ljc0bDEuNS43NWgyMi43NWwxLjUtLjc1di0uNzR6IiBjbGFzcz0ic3QyIi8+JiN4YTsgICAgPHBhdGggZD0iTTE1LjM0IDIzLjg0aDEuNDl2MS40OWgtMS40OXpNMTIuNzMgMjMuODRoMS40OXYxLjQ5aC0xLjQ5ek0yOC43NyAyMy44NGgxLjQ5djEuNDloLTEuNDl6TTI2LjE2IDIzLjg0aDEuNDl2MS40OWgtMS40OXoiIGNsYXNzPSJzdDIiLz4mI3hhOzwvc3ZnPg==;container=0;" vertex="1" parent="0iEBDOv3ILu3kZ8N8QKH-1">
          <mxGeometry x="765" y="166" width="43" height="42" as="geometry" />
        </mxCell>
        <mxCell id="tKnzxsVanUNIupR3Zm6B-1" value="&lt;b&gt;&lt;font&gt;Network&lt;/font&gt;&lt;/b&gt;" style="whiteSpace=wrap;html=1;align=center;fontFamily=Calibri;verticalAlign=top;fillColor=#F5F4F2;rounded=1;arcSize=10;strokeColor=#9E9892;fontColor=#312D2A;fontSize=12;container=0;" vertex="1" parent="0iEBDOv3ILu3kZ8N8QKH-1">
          <mxGeometry x="678.0005000000001" y="134" width="77.72" height="86" as="geometry" />
        </mxCell>
        <mxCell id="tKnzxsVanUNIupR3Zm6B-2" value="" style="shape=image;verticalLabelPosition=bottom;verticalAlign=top;imageAspect=0;aspect=fixed;image=data:image/svg+xml,PHN2ZyB4bWxucz0iaHR0cDovL3d3dy53My5vcmcvMjAwMC9zdmciIHZpZXdCb3g9IjAgMCA0Mi4wNCA0MiIgZGF0YS1uYW1lPSJMYXllciAxIiBpZD0iTGF5ZXJfMSI+PG1ldGFkYXRhPiYjeGE7JiN4YTsgICAmI3hhOyAgICAgICYjeGE7ICAgICAgICAgJiN4YTsgICAgICAgICAgICAmI3hhOyAgICAgICAgICAgICAgIGljb24mI3hhOyAgICAgICAgICAgICAgIHNlcnZpY2UmI3hhOyAgICAgICAgICAgICAgIGludGVybmV0JiN4YTsgICAgICAgICAgICAgICB3d3cmI3hhOyAgICAgICAgICAgICAgIGNvbm5lY3Rpdml0eSYjeGE7ICAgICAgICAgICAgICAgY29tbXVuaWNhdGlvbiYjeGE7ICAgICAgICAgICAgJiN4YTsgICAgICAgICAmI3hhOyAgICAgICAgIDIwMjItMTEtMTBUMTc6MDk6MzAtMDY6MDAmI3hhOyAgICAgICAgIHhtcC5paWQ6NmFmNTE2NDEtZmI1ZC00ZjYzLWJkMTctM2M4ZDMzNDI4ZDkwJiN4YTsgICAgICAgICB4bXAuZGlkOjZhZjUxNjQxLWZiNWQtNGY2My1iZDE3LTNjOGQzMzQyOGQ5MCYjeGE7ICAgICAgICAgeG1wLmRpZDo2YWY1MTY0MS1mYjVkLTRmNjMtYmQxNy0zYzhkMzM0MjhkOTAmI3hhOyAgICAgICAgICYjeGE7ICAgICAgICAgICAgJiN4YTsgICAgICAgICAgICAgICAmI3hhOyAgICAgICAgICAgICAgICAgICYjeGE7ICAgICAgICAgICAgICAgICAgICAgc2F2ZWQmI3hhOyAgICAgICAgICAgICAgICAgICAgIHhtcC5paWQ6NmFmNTE2NDEtZmI1ZC00ZjYzLWJkMTctM2M4ZDMzNDI4ZDkwJiN4YTsgICAgICAgICAgICAgICAgICAgICAyMDIyLTExLTEwVDE3OjA5OjMwLTA2OjAwJiN4YTsgICAgICAgICAgICAgICAgICAgICBBZG9iZSBCcmlkZ2UgMjAyMSAoTWFjaW50b3NoKSYjeGE7ICAgICAgICAgICAgICAgICAgICAgL21ldGFkYXRhJiN4YTsgICAgICAgICAgICAgICAgICAmI3hhOyAgICAgICAgICAgICAgICYjeGE7ICAgICAgICAgICAgJiN4YTsgICAgICAgICAmI3hhOyAgICAgICYjeGE7ICAgJiN4YTsmI3hhOyAgICAgICAgICAgICAgICAgICAgICAgICAgICAgICAgICAgICAgICAgICAgICAgICAgICAgICAgICAgICAgICAgICAgICAgICAgICAgICAgICAgICAgICAgICAgICAgICAgICAmI3hhOyAgICAgICAgICAgICAgICAgICAgICAgICAgICAgICAgICAgICAgICAgICAgICAgICAgICAgICAgICAgICAgICAgICAgICAgICAgICAgICAgICAgICAgICAgICAgICAgICAgICAmI3hhOyAgICAgICAgICAgICAgICAgICAgICAgICAgICAgICAgICAgICAgICAgICAgICAgICAgICAgICAgICAgICAgICAgICAgICAgICAgICAgICAgICAgICAgICAgICAgICAgICAgICAmI3hhOyAgICAgICAgICAgICAgICAgICAgICAgICAgICAgICAgICAgICAgICAgICAgICAgICAgICAgICAgICAgICAgICAgICAgICAgICAgICAgICAgICAgICAgICAgICAgICAgICAgICAmI3hhOyAgICAgICAgICAgICAgICAgICAgICAgICAgICAgICAgICAgICAgICAgICAgICAgICAgICAgICAgICAgICAgICAgICAgICAgICAgICAgICAgICAgICAgICAgICAgICAgICAgICAmI3hhOyAgICAgICAgICAgICAgICAgICAgICAgICAgICAgICAgICAgICAgICAgICAgICAgICAgICAgICAgICAgICAgICAgICAgICAgICAgICAgICAgICAgICAgICAgICAgICAgICAgICAmI3hhOyAgICAgICAgICAgICAgICAgICAgICAgICAgICAgICAgICAgICAgICAgICAgICAgICAgICAgICAgICAgICAgICAgICAgICAgICAgICAgICAgICAgICAgICAgICAgICAgICAgICAmI3hhOyAgICAgICAgICAgICAgICAgICAgICAgICAgICAgICAgICAgICAgICAgICAgICAgICAgICAgICAgICAgICAgICAgICAgICAgICAgICAgICAgICAgICAgICAgICAgICAgICAgICAmI3hhOyAgICAgICAgICAgICAgICAgICAgICAgICAgICAgICAgICAgICAgICAgICAgICAgICAgICAgICAgICAgICAgICAgICAgICAgICAgICAgICAgICAgICAgICAgICAgICAgICAgICAmI3hhOyAgICAgICAgICAgICAgICAgICAgICAgICAgICAgICAgICAgICAgICAgICAgICAgICAgICAgICAgICAgICAgICAgICAgICAgICAgICAgICAgICAgICAgICAgICAgICAgICAgICAmI3hhOyAgICAgICAgICAgICAgICAgICAgICAgICAgICAgICAgICAgICAgICAgICAgICAgICAgICAgICAgICAgICAgICAgICAgICAgICAgICAgICAgICAgICAgICAgICAgICAgICAgICAmI3hhOyAgICAgICAgICAgICAgICAgICAgICAgICAgICAgICAgICAgICAgICAgICAgICAgICAgICAgICAgICAgICAgICAgICAgICAgICAgICAgICAgICAgICAgICAgICAgICAgICAgICAmI3hhOyAgICAgICAgICAgICAgICAgICAgICAgICAgICAgICAgICAgICAgICAgICAgICAgICAgICAgICAgICAgICAgICAgICAgICAgICAgICAgICAgICAgICAgICAgICAgICAgICAgICAmI3hhOyAgICAgICAgICAgICAgICAgICAgICAgICAgICAgICAgICAgICAgICAgICAgICAgICAgICAgICAgICAgICAgICAgICAgICAgICAgICAgICAgICAgICAgICAgICAgICAgICAgICAmI3hhOyAgICAgICAgICAgICAgICAgICAgICAgICAgICAgICAgICAgICAgICAgICAgICAgICAgICAgICAgICAgICAgICAgICAgICAgICAgICAgICAgICAgICAgICAgICAgICAgICAgICAmI3hhOyAgICAgICAgICAgICAgICAgICAgICAgICAgICAgICAgICAgICAgICAgICAgICAgICAgICAgICAgICAgICAgICAgICAgICAgICAgICAgICAgICAgICAgICAgICAgICAgICAgICAmI3hhOyAgICAgICAgICAgICAgICAgICAgICAgICAgICAgICAgICAgICAgICAgICAgICAgICAgICAgICAgICAgICAgICAgICAgICAgICAgICAgICAgICAgICAgICAgICAgICAgICAgICAmI3hhOyAgICAgICAgICAgICAgICAgICAgICAgICAgICAgICAgICAgICAgICAgICAgICAgICAgICAgICAgICAgICAgICAgICAgICAgICAgICAgICAgICAgICAgICAgICAgICAgICAgICAmI3hhOyAgICAgICAgICAgICAgICAgICAgICAgICAgICAgICAgICAgICAgICAgICAgICAgICAgICAgICAgICAgICAgICAgICAgICAgICAgICAgICAgICAgICAgICAgICAgICAgICAgICAmI3hhOyAgICAgICAgICAgICAgICAgICAgICAgICAgICAgICAgICAgICAgICAgICAgICAgICAgICAgICAgICAgICAgICAgICAgICAgICAgICAgICAgICAgICAgICAgICAgICAgICAgICAmI3hhOyAgICAgICAgICAgICAgICAgICAgICAgICAgICYjeGE7PC9tZXRhZGF0YT4mI3hhOzxwYXRoIGZpbGw9IiNmZmYiIGQ9Ik0yMSw0MS41YTkuMjUsOS4yNSwwLDAsMS05LjI1LTkuMjIsOSw5LDAsMCwxLDEuNDctNWwtLjQ3LS4wOGE5LDksMCwwLDEtMi41NC0xLjA2LDcuNzMsNy43MywwLDAsMS0xLjg1LjIyQTcuODcsNy44NywwLDAsMSw2LDExLDguNDgsOC40OCwwLDAsMSwxNC4zNCwzLjdhNy42MSw3LjYxLDAsMCwxLDEuMjUuMUExMy40MiwxMy40MiwwLDAsMSwyNC40MS41LDEzLjU2LDEzLjU2LDAsMCwxLDM3LjcyLDExLjc5YTcuODcsNy44NywwLDAsMS00LjA2LDE0LjYyLDcuNzIsNy43MiwwLDAsMS0yLjg1LS41NEExMy45MywxMy45MywwLDAsMSwyOSwyNi43bC0uNDguMTZhOS4xMyw5LjEzLDAsMCwxLDEuNzksNS40MkE5LjI1LDkuMjUsMCwwLDEsMjEsNDEuNVoiLz48cGF0aCBmaWxsPSIjZmZmIiBkPSJNMjQuNDEsMUExMywxMywwLDAsMSwzNy4yNywxMi4xMWE3LjM3LDcuMzcsMCwwLDEtNi40OSwxMy4yMSwxMy43LDEzLjcsMCwwLDEtMiwuOTFzLS40MS4xNS0xLjE3LjM1YTguNzMsOC43MywwLDEsMS0xNS4zNSw1LjdBOC42LDguNiwwLDAsMSwxNC4xMiwyN2wtMS4yNi0uMjFhOC4zNSw4LjM1LDAsMCwxLTIuNTUtMS4xQTcuMzcsNy4zNywwLDEsMSw2LjQ1LDExLjQyLDgsOCwwLDAsMSwxNC4zNCw0LjJhNy40NSw3LjQ1LDAsMCwxLDEuNC4xM0ExMi45MywxMi45MywwLDAsMSwyNC40MSwxbTAtMWExNCwxNCwwLDAsMC05LDMuMjcsMTAuMTMsMTAuMTMsMCwwLDAtMS4wOS0uMDcsOSw5LDAsMCwwLTguOCw3LjQ2QTguMzcsOC4zNywwLDAsMCw4LjM4LDI2LjkxYTgsOCwwLDAsMCwxLjc2LS4xOSw5LjcyLDkuNzIsMCwwLDAsMi4zMSwxLDkuNDYsOS40NiwwLDAsMC0xLjE4LDQuNiw5Ljc1LDkuNzUsMCwwLDAsMTkuNSwwLDkuNjIsOS42MiwwLDAsMC0xLjUxLTUuMTYsMTMuMDksMTMuMDksMCwwLDAsMS41OC0uNyw4LjIsOC4yLDAsMCwwLDIuODIuNDksOC4zNyw4LjM3LDAsMCwwLDQuNTItMTUuNDJBMTQuMDcsMTQuMDcsMCwwLDAsMjQuNDEsMFoiLz48cGF0aCBmaWxsPSJub25lIiBkPSJNMTcuMzIsMzEuNTRhMTMsMTMsMCwwLDEsMS4yMi00Ljg1LDEyLjYsMTIuNiwwLDAsMSwuOC0xLjQ0LDcuMjcsNy4yNywwLDAsMC01LjU1LDYuMjloMy41M1oiLz48cGF0aCBmaWxsPSJub25lIiBkPSJNMTguODIsMzNhMTEuNDcsMTEuNDcsMCwwLDAsMS43Niw1LjM1Yy4xNC4yMS4yOC40My40NC42NC4xNS0uMjEuMy0uNDMuNDMtLjY0QTExLjQ4LDExLjQ4LDAsMCwwLDIzLjIyLDMzWiIvPjxwYXRoIGZpbGw9Im5vbmUiIGQ9Ik0yMy4yMiwzMS41NGExMS4zOSwxMS4zOSwwLDAsMC0xLjY5LTUuMzVjLS4xNi0uMjYtLjMzLS41MS0uNTEtLjc2LS4xOC4yNS0uMzUuNS0uNTIuNzZhMTEuNjIsMTEuNjIsMCwwLDAtMS42OSw1LjM1WiIvPjxwYXRoIGZpbGw9Im5vbmUiIGQ9Ik0yMi41MSwxMS4yMUExLjQ5LDEuNDksMCwxLDAsMjEsMTIuNywxLjQ5LDEuNDksMCwwLDAsMjIuNTEsMTEuMjFaIi8+PHBhdGggZmlsbD0ibm9uZSIgZD0iTTEzLjM4LDE2LjA1YTEuNDksMS40OSwwLDEsMCwxLjQ5LDEuNDlBMS40OSwxLjQ5LDAsMCwwLDEzLjM4LDE2LjA1WiIvPjxwYXRoIGZpbGw9Im5vbmUiIGQ9Ik0yOC42NSwxOWExLjQ5LDEuNDksMCwxLDAtMS40OS0xLjQ5QTEuNDksMS40OSwwLDAsMCwyOC42NSwxOVoiLz48cGF0aCBmaWxsPSJub25lIiBkPSJNMjIuNywyNS4yNWExMi41MywxMi41MywwLDAsMSwuNzksMS40NCwxMi44NiwxMi44NiwwLDAsMSwxLjIzLDQuODVoMy41MkE3LjI2LDcuMjYsMCwwLDAsMjIuNywyNS4yNVoiLz48cGF0aCBmaWxsPSJub25lIiBkPSJNMTcuMzMsMzNIMTMuNzlhNy4yNyw3LjI3LDAsMCwwLDUuNjQsNi4zLDExLjg3LDExLjg3LDAsMCwxLS44Mi0xLjQyQTEyLjg5LDEyLjg5LDAsMCwxLDE3LjMzLDMzWiIvPjxwYXRoIGZpbGw9Im5vbmUiIGQ9Ik0yNC43MSwzM2ExMy4wOSwxMy4wOSwwLDAsMS0xLjI5LDQuODgsMTMuMzEsMTMuMzEsMCwwLDEtLjgxLDEuNDJBNy4yNiw3LjI2LDAsMCwwLDI4LjI0LDMzSDI0LjcxWiIvPjxwYXRoIGZpbGw9IiMyYzU5NjciIGQ9Ik0zNy4yNywxMi4xMUExMywxMywwLDAsMCwxNS43NCw0LjMzYTcuNDUsNy40NSwwLDAsMC0xLjQtLjEzLDgsOCwwLDAsMC03Ljg5LDcuMjIsNy4zNyw3LjM3LDAsMSwwLDMuODYsMTQuMjMsOC4zNSw4LjM1LDAsMCwwLDIuNTUsMS4xLDkuNjQsOS42NCwwLDAsMSwxLjA4LTEuMzEsNyw3LDAsMCwxLTMuMDgtMS4yMWwtLjMtLjIyLS4zNi4xMmE2LDYsMCwwLDEtMS44Mi4yOUE1Ljg4LDUuODgsMCwwLDEsNy4zLDEyLjc1bC42LS4xMVYxMmE2LjQ3LDYuNDcsMCwwLDEsNi40NC02LjM0LDYuNjYsNi42NiwwLDAsMSwxLjQ1LjE3bC40LjA5LjI5LS4yN2ExMS40OSwxMS40OSwwLDAsMSwxOS4zNiw3bDAsLjQuMzcuMThhNS44OCw1Ljg4LDAsMCwxLTIuNTksMTEuMTcsNS44LDUuOCwwLDAsMS0yLjYtLjYxbC0uMzYtLjE4LS4zNS4yMUExMS40OCwxMS40OCwwLDAsMSwyNy42NywyNWE5Ljc3LDkuNzcsMCwwLDEsMS4xMiwxLjIsMTMuNywxMy43LDAsMCwwLDItLjkxLDcuMjcsNy4yNywwLDAsMCwyLjg4LjU5LDcuMzcsNy4zNywwLDAsMCwzLjYxLTEzLjhaIi8+PHBhdGggZmlsbD0iIzJjNTk2NyIgZD0iTTI0LjM3LDI0LjIzVjE4LjI4aDEuNGEzLDMsMCwxLDAsMC0xLjQ5SDIyLjg4djdhMTAuMDYsMTAuMDYsMCwwLDAtMS4xMi0uMTZWMTQuMDlhMywzLDAsMSwwLTEuNDksMFYyMy42YTkuODgsOS44OCwwLDAsMC0xLjExLjE2di03aC0yLjlhMywzLDAsMSwwLDAsMS40OWgxLjQxdjUuOTVhOC43NSw4Ljc1LDAsMSwwLDYuNywwWm00LjI4LTguMThhMS40OSwxLjQ5LDAsMSwxLTEuNDksMS40OUExLjQ5LDEuNDksMCwwLDEsMjguNjUsMTYuMDVaTTEzLjM4LDE5YTEuNDksMS40OSwwLDEsMSwxLjQ5LTEuNDlBMS40OSwxLjQ5LDAsMCwxLDEzLjM4LDE5Wm02LjE1LTcuODJBMS40OSwxLjQ5LDAsMSwxLDIxLDEyLjcsMS40OSwxLjQ5LDAsMCwxLDE5LjUzLDExLjIxWm0xLDE1Yy4xNy0uMjYuMzQtLjUxLjUyLS43Ni4xOC4yNS4zNS41LjUxLjc2YTExLjM5LDExLjM5LDAsMCwxLDEuNjksNS4zNUgxOC44MUExMS42MiwxMS42MiwwLDAsMSwyMC41LDI2LjE5Wk0yMSwzOWMtLjE2LS4yMS0uMy0uNDMtLjQ0LS42NEExMS40NywxMS40NywwLDAsMSwxOC44MiwzM2g0LjRhMTEuNDgsMTEuNDgsMCwwLDEtMS43Nyw1LjM1QzIxLjMyLDM4LjU5LDIxLjE3LDM4LjgxLDIxLDM5Wk0xOS4zNCwyNS4yNWExMi42LDEyLjYsMCwwLDAtLjgsMS40NCwxMywxMywwLDAsMC0xLjIyLDQuODVIMTMuNzlBNy4yNyw3LjI3LDAsMCwxLDE5LjM0LDI1LjI1Wk0xMy43OSwzM2gzLjU0YTEyLjg5LDEyLjg5LDAsMCwwLDEuMjgsNC44OCwxMS44NywxMS44NywwLDAsMCwuODIsMS40MkE3LjI3LDcuMjcsMCwwLDEsMTMuNzksMzNabTguODIsNi4zYTEzLjMxLDEzLjMxLDAsMCwwLC44MS0xLjQyQTEzLjA5LDEzLjA5LDAsMCwwLDI0LjcxLDMzaDMuNTNBNy4yNiw3LjI2LDAsMCwxLDIyLjYxLDM5LjMzWm00LjUxLTcuNzloLTIuNGExMi44NiwxMi44NiwwLDAsMC0xLjIzLTQuODUsMTIuNTMsMTIuNTMsMCwwLDAtLjc5LTEuNDQsNy4yNiw3LjI2LDAsMCwxLDUuNTQsNi4yOVoiLz48L3N2Zz4=;container=0;" vertex="1" parent="0iEBDOv3ILu3kZ8N8QKH-1">
          <mxGeometry x="695.8605000000002" y="169" width="42" height="42" as="geometry" />
        </mxCell>
        <mxCell id="tKnzxsVanUNIupR3Zm6B-4" value="Target" style="text;strokeColor=none;align=center;fillColor=none;verticalAlign=middle;whiteSpace=wrap;rounded=0;spacing=0;rotation=0;html=1;fontColor=#000000;container=0;" vertex="1" parent="0iEBDOv3ILu3kZ8N8QKH-1">
          <mxGeometry x="917.815" y="206.99874999999793" width="39.37" height="28.3464" as="geometry" />
        </mxCell>
        <mxCell id="kuL6DLgfm3cLlOCiXe2V-52" value="&lt;font color=&quot;#ffffff&quot;&gt;&lt;b&gt;3&lt;br&gt;&lt;/b&gt;&lt;/font&gt;" style="rounded=1;whiteSpace=wrap;html=1;fillColor=#000000;strokeColor=#FFFFFF;fontColor=#161513;fontFamily=Calibri;labelBackgroundColor=none;align=center;arcSize=50;verticalAlign=middle;container=0;" parent="0iEBDOv3ILu3kZ8N8QKH-1" vertex="1">
          <mxGeometry x="927.5" y="226.38000000000102" width="20" height="20" as="geometry" />
        </mxCell>
      </root>
    </mxGraphModel>
  </diagram>
  <diagram id="w6zqyOfxYmzOwv48rcEQ" name="German">
    <mxGraphModel dx="2705" dy="7889" grid="1" gridSize="10" guides="1" tooltips="1" connect="1" arrows="1" fold="1" page="1" pageScale="1" pageWidth="1169" pageHeight="827" math="0" shadow="0">
      <root>
        <mxCell id="0" />
        <mxCell id="1" parent="0" />
        <mxCell id="OeXCMGSgX0iGmx0cAqVo-1" value="" style="group" vertex="1" connectable="0" parent="1">
          <mxGeometry y="-5787.389999999999" width="1006.29" height="273.35849999999937" as="geometry" />
        </mxCell>
        <mxCell id="jVQFfvSJNSyhb4Hxbe7O-1" value="&lt;b&gt;&lt;font color=&quot;#ae562c&quot;&gt;PSP&lt;/font&gt;&lt;/b&gt;" style="whiteSpace=wrap;html=1;strokeWidth=1;dashed=1;align=left;fontFamily=Calibri;verticalAlign=top;fillColor=none;fontColor=#312d2a;strokeColor=#AE562C;dashPattern=1 1;fontSize=12;perimeterSpacing=0;spacingLeft=60;container=0;" vertex="1" parent="OeXCMGSgX0iGmx0cAqVo-1">
          <mxGeometry x="410" y="23.358499999999367" width="200" height="250" as="geometry" />
        </mxCell>
        <mxCell id="jVQFfvSJNSyhb4Hxbe7O-2" value="&lt;b&gt;&lt;font&gt;VCN IGD&lt;/font&gt;&lt;/b&gt;" style="whiteSpace=wrap;html=1;strokeWidth=2;dashed=1;align=left;fontFamily=Calibri;verticalAlign=top;fillColor=none;fontColor=#AE562C;strokeColor=#AE562C;perimeterSpacing=0;fontSize=12;spacingLeft=5;container=0;" vertex="1" parent="OeXCMGSgX0iGmx0cAqVo-1">
          <mxGeometry x="417.78" y="67.35849999999937" width="172.22" height="196" as="geometry" />
        </mxCell>
        <mxCell id="jVQFfvSJNSyhb4Hxbe7O-3" value="&lt;div&gt;&lt;b&gt;&lt;font face=&quot;Calibri&quot;&gt;Regional Private&lt;/font&gt;&lt;/b&gt;&lt;/div&gt;&lt;div&gt;&lt;b&gt;&lt;font face=&quot;Calibri&quot;&gt;Subnet J&lt;/font&gt;&lt;/b&gt;&lt;/div&gt;&lt;font face=&quot;Calibri&quot; color=&quot;#312d2a&quot;&gt;10.0.2.0/24&lt;/font&gt;" style="whiteSpace=wrap;html=1;strokeWidth=1;dashed=1;align=left;fontFamily=Oracle Sans;verticalAlign=top;fillColor=none;fontColor=#AE562C;perimeterSpacing=0;strokeColor=#AE562C;fontSize=12;spacingLeft=5;direction=south;container=0;" vertex="1" parent="OeXCMGSgX0iGmx0cAqVo-1">
          <mxGeometry x="439.76" y="95.4384999999993" width="113.58" height="157.92" as="geometry" />
        </mxCell>
        <mxCell id="jVQFfvSJNSyhb4Hxbe7O-4" value="&lt;b style=&quot;border-color: var(--border-color);&quot;&gt;Rechenzentrum Teilnehmer&lt;/b&gt;" style="whiteSpace=wrap;html=1;align=center;fontFamily=Calibri;verticalAlign=top;fillColor=#F5F4F2;rounded=1;arcSize=4;strokeColor=#9E9892;fontColor=#312D2A;fontSize=12;container=0;" vertex="1" parent="OeXCMGSgX0iGmx0cAqVo-1">
          <mxGeometry y="94.9984999999997" width="160" height="171.36" as="geometry" />
        </mxCell>
        <mxCell id="jVQFfvSJNSyhb4Hxbe7O-5" value="&lt;b style=&quot;border-color: var(--border-color); color: rgb(49, 45, 42);&quot;&gt;Teilnehmer&lt;/b&gt;&amp;nbsp;Premise&lt;br&gt;Equipment" style="whiteSpace=wrap;html=1;strokeWidth=1;dashed=1;align=center;fontFamily=Calibri;verticalAlign=top;fontSize=12;dashPattern=1 1;glass=0;rounded=1;arcSize=2;container=0;" vertex="1" parent="OeXCMGSgX0iGmx0cAqVo-1">
          <mxGeometry x="15" y="118.91849999999977" width="134" height="137.44" as="geometry" />
        </mxCell>
        <mxCell id="jVQFfvSJNSyhb4Hxbe7O-6" value="" style="shape=image;verticalLabelPosition=bottom;verticalAlign=top;imageAspect=0;aspect=fixed;image=data:image/svg+xml,PHN2ZyB4bWxucz0iaHR0cDovL3d3dy53My5vcmcvMjAwMC9zdmciIHZpZXdCb3g9IjAgMCA0MiA0MiIgZGF0YS1uYW1lPSJMYXllciAxIiBpZD0iTGF5ZXJfMSI+PHRpdGxlPkN1c3RvbWVyIFByZW1pc2VzIEVxdWlwbWVudDwvdGl0bGU+PG1ldGFkYXRhPiYjeGE7JiN4YTsgICAmI3hhOyAgICAgICYjeGE7ICAgICAgICAgJiN4YTsgICAgICAgICAgICAmI3hhOyAgICAgICAgICAgICAgIEN1c3RvbWVyIFByZW1pc2VzIEVxdWlwbWVudCYjeGE7ICAgICAgICAgICAgJiN4YTsgICAgICAgICAmI3hhOyAgICAgICAgICYjeGE7ICAgICAgICAgICAgJiN4YTsgICAgICAgICAgICAgICBpY29uJiN4YTsgICAgICAgICAgICAgICBDdXN0b21lciYjeGE7ICAgICAgICAgICAgICAgT24gUHJlbWlzZXMmI3hhOyAgICAgICAgICAgICAgIEVxdWlwbWVudCYjeGE7ICAgICAgICAgICAgICAgcm91dGVyJiN4YTsgICAgICAgICAgICAgICBDUEUmI3hhOyAgICAgICAgICAgICYjeGE7ICAgICAgICAgJiN4YTsgICAgICAgICAyMDIyLTEwLTIxVDEzOjQ1OjI5LTA1OjAwJiN4YTsgICAgICAgICB4bXAuaWlkOmFjYzRmMGU5LTllN2YtNDc5NC04NzY2LTVmNGM1Yjc2ZDMzMCYjeGE7ICAgICAgICAgeG1wLmRpZDpiZjI1OWIzYi0zNjZiLTQzYmUtYjY0MS04OGNlMjM1ODM1ODMmI3hhOyAgICAgICAgIHhtcC5kaWQ6YmYyNTliM2ItMzY2Yi00M2JlLWI2NDEtODhjZTIzNTgzNTgzJiN4YTsgICAgICAgICAmI3hhOyAgICAgICAgICAgICYjeGE7ICAgICAgICAgICAgICAgJiN4YTsgICAgICAgICAgICAgICAgICAmI3hhOyAgICAgICAgICAgICAgICAgICAgIHNhdmVkJiN4YTsgICAgICAgICAgICAgICAgICAgICB4bXAuaWlkOmJmMjU5YjNiLTM2NmItNDNiZS1iNjQxLTg4Y2UyMzU4MzU4MyYjeGE7ICAgICAgICAgICAgICAgICAgICAgMjAyMS0wOC0zMVQxNTo0MzowMy0wNTowMCYjeGE7ICAgICAgICAgICAgICAgICAgICAgQWRvYmUgQnJpZGdlIDIwMjEgKE1hY2ludG9zaCkmI3hhOyAgICAgICAgICAgICAgICAgICAgIC9tZXRhZGF0YSYjeGE7ICAgICAgICAgICAgICAgICAgJiN4YTsgICAgICAgICAgICAgICAmI3hhOyAgICAgICAgICAgICAgICYjeGE7ICAgICAgICAgICAgICAgICAgJiN4YTsgICAgICAgICAgICAgICAgICAgICBzYXZlZCYjeGE7ICAgICAgICAgICAgICAgICAgICAgeG1wLmlpZDphY2M0ZjBlOS05ZTdmLTQ3OTQtODc2Ni01ZjRjNWI3NmQzMzAmI3hhOyAgICAgICAgICAgICAgICAgICAgIDIwMjItMTAtMjFUMTM6NDU6MjktMDU6MDAmI3hhOyAgICAgICAgICAgICAgICAgICAgIEFkb2JlIEJyaWRnZSAyMDIxIChNYWNpbnRvc2gpJiN4YTsgICAgICAgICAgICAgICAgICAgICAvbWV0YWRhdGEmI3hhOyAgICAgICAgICAgICAgICAgICYjeGE7ICAgICAgICAgICAgICAgJiN4YTsgICAgICAgICAgICAmI3hhOyAgICAgICAgICYjeGE7ICAgICAgJiN4YTsgICAmI3hhOyYjeGE7ICAgICAgICAgICAgICAgICAgICAgICAgICAgICAgICAgICAgICAgICAgICAgICAgICAgICAgICAgICAgICAgICAgICAgICAgICAgICAgICAgICAgICAgICAgICAgICAgICAgICYjeGE7ICAgICAgICAgICAgICAgICAgICAgICAgICAgICAgICAgICAgICAgICAgICAgICAgICAgICAgICAgICAgICAgICAgICAgICAgICAgICAgICAgICAgICAgICAgICAgICAgICAgICYjeGE7ICAgICAgICAgICAgICAgICAgICAgICAgICAgICAgICAgICAgICAgICAgICAgICAgICAgICAgICAgICAgICAgICAgICAgICAgICAgICAgICAgICAgICAgICAgICAgICAgICAgICYjeGE7ICAgICAgICAgICAgICAgICAgICAgICAgICAgICAgICAgICAgICAgICAgICAgICAgICAgICAgICAgICAgICAgICAgICAgICAgICAgICAgICAgICAgICAgICAgICAgICAgICAgICYjeGE7ICAgICAgICAgICAgICAgICAgICAgICAgICAgICAgICAgICAgICAgICAgICAgICAgICAgICAgICAgICAgICAgICAgICAgICAgICAgICAgICAgICAgICAgICAgICAgICAgICAgICYjeGE7ICAgICAgICAgICAgICAgICAgICAgICAgICAgICAgICAgICAgICAgICAgICAgICAgICAgICAgICAgICAgICAgICAgICAgICAgICAgICAgICAgICAgICAgICAgICAgICAgICAgICYjeGE7ICAgICAgICAgICAgICAgICAgICAgICAgICAgICAgICAgICAgICAgICAgICAgICAgICAgICAgICAgICAgICAgICAgICAgICAgICAgICAgICAgICAgICAgICAgICAgICAgICAgICYjeGE7ICAgICAgICAgICAgICAgICAgICAgICAgICAgICAgICAgICAgICAgICAgICAgICAgICAgICAgICAgICAgICAgICAgICAgICAgICAgICAgICAgICAgICAgICAgICAgICAgICAgICYjeGE7ICAgICAgICAgICAgICAgICAgICAgICAgICAgICAgICAgICAgICAgICAgICAgICAgICAgICAgICAgICAgICAgICAgICAgICAgICAgICAgICAgICAgICAgICAgICAgICAgICAgICYjeGE7ICAgICAgICAgICAgICAgICAgICAgICAgICAgICAgICAgICAgICAgICAgICAgICAgICAgICAgICAgICAgICAgICAgICAgICAgICAgICAgICAgICAgICAgICAgICAgICAgICAgICYjeGE7ICAgICAgICAgICAgICAgICAgICAgICAgICAgICAgICAgICAgICAgICAgICAgICAgICAgICAgICAgICAgICAgICAgICAgICAgICAgICAgICAgICAgICAgICAgICAgICAgICAgICYjeGE7ICAgICAgICAgICAgICAgICAgICAgICAgICAgICAgICAgICAgICAgICAgICAgICAgICAgICAgICAgICAgICAgICAgICAgICAgICAgICAgICAgICAgICAgICAgICAgICAgICAgICYjeGE7ICAgICAgICAgICAgICAgICAgICAgICAgICAgICAgICAgICAgICAgICAgICAgICAgICAgICAgICAgICAgICAgICAgICAgICAgICAgICAgICAgICAgICAgICAgICAgICAgICAgICYjeGE7ICAgICAgICAgICAgICAgICAgICAgICAgICAgICAgICAgICAgICAgICAgICAgICAgJiN4YTs8L21ldGFkYXRhPiYjeGE7PHJlY3QgZmlsbD0iI2ZmZiIgcng9IjIuMTciIGhlaWdodD0iNDEiIHdpZHRoPSI0MSIgeT0iMC41IiB4PSIwLjUiLz48cGF0aCBmaWxsPSIjZmZmIiBkPSJNMzkuMzMsMUExLjY3LDEuNjcsMCwwLDEsNDEsMi42N1YzOS4zM0ExLjY3LDEuNjcsMCwwLDEsMzkuMzMsNDFIMi42N0ExLjY3LDEuNjcsMCwwLDEsMSwzOS4zM1YyLjY3QTEuNjcsMS42NywwLDAsMSwyLjY3LDFIMzkuMzNtMC0xSDIuNjdBMi42OCwyLjY4LDAsMCwwLDAsMi42N1YzOS4zM0EyLjY4LDIuNjgsMCwwLDAsMi42Nyw0MkgzOS4zM0EyLjY4LDIuNjgsMCwwLDAsNDIsMzkuMzNWMi42N0EyLjY4LDIuNjgsMCwwLDAsMzkuMzMsMFoiLz48cGF0aCBmaWxsPSIjMmM1OTY3IiBkPSJNMzkuMzMsMUgyLjY3QTEuNjcsMS42NywwLDAsMCwxLDIuNjdWMzkuMzNBMS42NywxLjY3LDAsMCwwLDIuNjcsNDFIMzkuMzNBMS42NywxLjY3LDAsMCwwLDQxLDM5LjMzVjIuNjdBMS42NywxLjY3LDAsMCwwLDM5LjMzLDFabS4xOSwzOC4zM2EuMi4yLDAsMCwxLS4xOS4xOUgyLjY3YS4yLjIsMCwwLDEtLjE5LS4xOVYyLjY3YS4yLjIsMCwwLDEsLjE5LS4xOUgzOS4zM2EuMi4yLDAsMCwxLC4xOS4xOVoiLz48cGF0aCBmaWxsPSIjMmM1OTY3IiBkPSJNMjEsMy41OUExNy40MSwxNy40MSwwLDEsMCwzOC40MSwyMSwxNy40MywxNy40MywwLDAsMCwyMSwzLjU5Wm0wLDMzLjM0QTE1LjkzLDE1LjkzLDAsMSwxLDM2LjkzLDIxLDE2LDE2LDAsMCwxLDIxLDM2LjkzWiIvPjxwb2x5Z29uIGZpbGw9IiMyYzU5NjciIHBvaW50cz0iMjEuNzQgMzEuMDYgMjEuNzQgMTEuMTIgMjQgMTMuMzggMjUuMDQgMTIuMzMgMjEgOC4yOSAxNi45NiAxMi4zMyAxOCAxMy4zOCAyMC4yNiAxMS4xMiAyMC4yNiAzMS4wNiAxOCAyOC44MSAxNi45NiAyOS44NiAyMSAzMy45IDI1LjA0IDI5Ljg2IDI0IDI4LjgxIDIxLjc0IDMxLjA2Ii8+PHBvbHlnb24gZmlsbD0iIzJjNTk2NyIgcG9pbnRzPSIyNi44OSAxOCAyNS44NSAxNi45NiAyMS44IDIxIDI1Ljg1IDI1LjA0IDI2Ljg5IDI0IDI0LjY0IDIxLjc0IDMzLjc3IDIxLjc0IDMzLjc3IDIwLjI2IDI0LjY0IDIwLjI2IDI2Ljg5IDE4Ii8+PHBvbHlnb24gZmlsbD0iIzJjNTk2NyIgcG9pbnRzPSIxNi4xNSAxNi45NiAxNS4xMSAxOCAxNy4zNiAyMC4yNiA4LjIyIDIwLjI2IDguMjIgMjEuNzQgMTcuMzYgMjEuNzQgMTUuMTEgMjQgMTYuMTUgMjUuMDQgMjAuMiAyMSAxNi4xNSAxNi45NiIvPjwvc3ZnPg==;container=0;" vertex="1" parent="OeXCMGSgX0iGmx0cAqVo-1">
          <mxGeometry x="82.5" y="169" width="42" height="42" as="geometry" />
        </mxCell>
        <mxCell id="jVQFfvSJNSyhb4Hxbe7O-7" value="" style="endArrow=open;html=1;startArrow=none;startFill=0;endFill=0;rounded=0;fontFamily=Oracle Sans;fontSize=10.5;fontColor=#312D2A;labelBackgroundColor=none;strokeColor=#312D2A;endSize=6;elbow=vertical;" edge="1" parent="OeXCMGSgX0iGmx0cAqVo-1">
          <mxGeometry x="280.5" y="196.03999999999996" width="50" height="50" as="geometry">
            <mxPoint x="60.99999999999999" y="189" as="sourcePoint" />
            <mxPoint x="85" y="189" as="targetPoint" />
          </mxGeometry>
        </mxCell>
        <mxCell id="jVQFfvSJNSyhb4Hxbe7O-8" value="" style="endArrow=open;html=1;startArrow=open;startFill=0;endFill=0;strokeColor=#312d2a;elbow=vertical;rounded=0;fontFamily=Calibri;fontColor=#312D2A;entryX=0.821;entryY=0.286;entryDx=0;entryDy=0;entryPerimeter=0;" edge="1" parent="OeXCMGSgX0iGmx0cAqVo-1">
          <mxGeometry x="-401.3899999999994" y="-61.61500000000069" width="50" height="50" as="geometry">
            <mxPoint x="311" y="190" as="sourcePoint" />
            <mxPoint x="122" y="190" as="targetPoint" />
          </mxGeometry>
        </mxCell>
        <mxCell id="jVQFfvSJNSyhb4Hxbe7O-9" value="" style="shape=image;verticalLabelPosition=bottom;labelBackgroundColor=default;verticalAlign=top;aspect=fixed;imageAspect=0;image=data:image/svg+xml,PHN2ZyB4bWxucz0iaHR0cDovL3d3dy53My5vcmcvMjAwMC9zdmciIHhtbDpzcGFjZT0icHJlc2VydmUiIHN0eWxlPSJlbmFibGUtYmFja2dyb3VuZDpuZXcgMCAwIDQyLjk5IDQyIiB2aWV3Qm94PSIwIDAgNDIuOTkgNDIiIHk9IjAiIHg9IjAiIGlkPSJMYXllcl8xIiB2ZXJzaW9uPSIxLjEiPiYjeGE7ICAgIDxzdHlsZT4mI3hhOyAgICAgICAgLnN0MHtmaWxsOiNmZmZ9LnN0MXtmaWxsOm5vbmV9LnN0MntmaWxsOiMyYzU5Njd9JiN4YTsgICAgPC9zdHlsZT4mI3hhOyAgICA8cGF0aCBkPSJtMTAgNDEuNS0xLjg4LS45NFYyNS44M0g1LjQ4bDIuMzMgMi4zMy0xLjc2IDEuNzYtNS4zNC01LjM0IDUuMzQtNS4zNEw3LjgxIDIxbC0yLjMzIDIuMzNoMi42NVYxMS41OWgzLjczdi0xLjMxYzAtNS4yMSA0LjAxLTkuNSA5LjEzLTkuNzYuMTctLjAyLjM0LS4wMi41MS0uMDIgMi40OCAwIDQuODMuOTQgNi42MyAyLjY1IDEuOTQgMS44NCAzIDQuMzIgMyA2Ljk5djEuNDVoMy43M3YxMS43NWgyLjY1bC0yLjMzLTIuMzMgMS43Ni0xLjc2IDUuMzQgNS4zNC01LjM0IDUuMzQtMS43Ni0xLjc2IDIuMzMtMi4zM2gtMi42NXYxNC43M2wtMS44OC45NEgxMHoiIGNsYXNzPSJzdDAiLz4mI3hhOyAgICA8cGF0aCBkPSJNMjEuNSAxYzIuMzUgMCA0LjU3Ljg4IDYuMjggMi41MWE5LjA0NSA5LjA0NSAwIDAgMSAyLjg1IDYuNjN2MS45NWgzLjczdjExLjc1aDQuMzVsLTIuODMtMi44MyAxLjA2LTEuMDYgNC42MyA0LjYzLTQuNjMgNC42My0xLjA2LTEuMDYgMi44My0yLjgzaC00LjM1djE0LjkybC0xLjQ5Ljc2SDEwLjEybC0xLjUtLjc1VjI1LjMzSDQuMjdsMi44MyAyLjgzLTEuMDYgMS4wNi00LjYzLTQuNjMgNC42My00LjYzIDEuMDYgMS4wNi0yLjgzIDIuODNoNC4zNVYxMi4wOWgzLjczdi0xLjgxYzAtNC45NCAzLjgtOS4wMSA4LjY2LTkuMjYuMTctLjAyLjMzLS4wMi40OS0uMDJtMC0xYy0uMTggMC0uMzYgMC0uNTQuMDEtNS4zOS4yOC05LjYgNC43OS05LjYgMTAuMjZ2LjgxSDcuNjJ2OS4wM2wtLjg3LS44Ny0uNzEtLjcxLS43MS43MUwuNyAyMy44N2wtLjcuNzIuNzEuNzEgNC42MyA0LjYzLjcxLjcxLjcxLS43MS44Ny0uODdWNDAuODhsLjU1LjI4IDEuNS43NS4yLjA5aDIzLjI0bC4yMS0uMTEgMS41LS43NS41NS0uMjhWMjkuMDRsLjg3Ljg3LjcxLjcxLjcxLS43MSA0LjYzLTQuNjMuNzEtLjcxLS43MS0uNzEtNC42My00LjYzLS43MS0uNzEtLjcxLjcxLS44Ny44N3YtOS4wM2gtMy43M3YtLjk1YzAtMi44MS0xLjEyLTUuNDItMy4xNi03LjM1QTEwLjIxIDEwLjIxIDAgMCAwIDIxLjUgMHptMTMuODcgMjIuODR2LS45NGwuOTQuOTRoLS45NHptLTI4LjY5IDAgLjk0LS45NHYuOTRoLS45NHptMjguNjkgMy40OWguOTRsLS45NC45NHYtLjk0em0tMjguNjkgMGguOTR2Ljk0bC0uOTQtLjk0eiIgY2xhc3M9InN0MCIvPiYjeGE7ICAgIDxwYXRoIGQ9Ik0yMS4zNiA1LjFjLTIuNy4wNy00LjkgMi4zOS00LjkgNS4xNnYxLjgyaDEwLjA3di0xLjk1YzAtMS4zNy0uNTQtMi42NS0xLjUyLTMuNjFhNS4wMyA1LjAzIDAgMCAwLTMuNjUtMS40MnoiIGNsYXNzPSJzdDEiLz4mI3hhOyAgICA8cGF0aCBkPSJNMTQuOTcgMTAuMjZjMC0zLjU4IDIuODUtNi41NyA2LjM2LTYuNjYgMS43OC0uMDUgMy40Ni42MSA0LjczIDEuODVhNi40ODYgNi40ODYgMCAwIDEgMS45NyA0LjY4djEuOTVoMS4xMnYtMS45NWMwLTIuMTItLjg1LTQuMDktMi4zOC01LjU1YTcuNTg2IDcuNTg2IDAgMCAwLTUuNjctMi4wOWMtNC4wNi4yMS03LjI0IDMuNjItNy4yNCA3Ljc3djEuODFoMS4xMnYtMS44MXpNMTAuMTIgMjMuODRoMS40OXYxLjQ5aC0xLjQ5VjM2LjloMjIuNzZWMjUuMzNoLTEuNDl2LTEuNDloMS40OVYxMy41OEgxMC4xMnYxMC4yNnptMTguNjUgMGgxLjQ5djEuNDloLTEuNDl2LTEuNDl6bS0yLjYxIDBoMS40OXYxLjQ5aC0xLjQ5di0xLjQ5em0tNy43OC4xOWEzLjEzOCAzLjEzOCAwIDAgMSAyLjU1LTIuNTNjMi0uMzUgMy43NCAxLjE5IDMuNzQgMy4xMiAwIDEuMi0uNjcgMi4yNC0xLjY1IDIuNzhsLjU5IDQuMDloLTQuMjNsLjYzLTQuMDdhMy4xNjkgMy4xNjkgMCAwIDEtMS42My0zLjM5em0tMy4wNC0uMTloMS40OXYxLjQ5aC0xLjQ5di0xLjQ5em0tMi42MSAwaDEuNDl2MS40OWgtMS40OXYtMS40OXoiIGNsYXNzPSJzdDEiLz4mI3hhOyAgICA8cGF0aCBkPSJtMjAuMDIgMjcuNDItLjYzIDQuMDdoNC4yM2wtLjU5LTQuMDljLjk4LS41NCAxLjY1LTEuNTggMS42NS0yLjc4IDAtMS45NC0xLjc0LTMuNDctMy43NC0zLjEyYTMuMTUgMy4xNSAwIDAgMC0yLjU1IDIuNTNjLS4yOCAxLjQ1LjQ2IDIuNzcgMS42MyAzLjM5eiIgY2xhc3M9InN0MiIvPiYjeGE7ICAgIDxwYXRoIGQ9Im0zNi45NSAxOS45NS0xLjA2IDEuMDYgMi44MyAyLjgzaC00LjM1VjEyLjA5aC0zLjczdi0xLjk1YzAtMi41My0xLjAxLTQuODgtMi44NS02LjYzYTkuMDc3IDkuMDc3IDAgMCAwLTYuNzgtMi41Yy00Ljg1LjI1LTguNjYgNC4zMi04LjY2IDkuMjZ2MS44MUg4LjYydjExLjc1SDQuMjdMNy4xIDIxbC0xLjA2LTEuMDYtNC42MyA0LjYzIDQuNjMgNC42MyAxLjA2LTEuMDYtMi44My0yLjgzaDQuMzV2MTMuMDZoMjUuNzRWMjUuMzNoNC4zNWwtMi44MyAyLjgzIDEuMDYgMS4wNiA0LjYzLTQuNjMtNC42Mi00LjY0em0tMjMuMS05LjY4YzAtNC4xNSAzLjE4LTcuNTYgNy4yNC03Ljc3IDIuMTItLjExIDQuMTQuNjMgNS42NyAyLjA5YTcuNTcgNy41NyAwIDAgMSAyLjM4IDUuNTV2MS45NWgtMS4xMnYtMS45NWMwLTEuNzgtLjctMy40NC0xLjk3LTQuNjhhNi40NTkgNi40NTkgMCAwIDAtNC43My0xLjg1Yy0zLjUxLjA5LTYuMzYgMy4wOC02LjM2IDYuNjZ2MS44MmgtMS4xMnYtMS44MnptMTIuNjgtLjE0djEuOTVIMTYuNDZ2LTEuODJjMC0yLjc4IDIuMi01LjEgNC45LTUuMTYgMS4zOC0uMDMgMi42Ny40NyAzLjY1IDEuNDMuOTguOTUgMS41MiAyLjIzIDEuNTIgMy42em02LjM0IDEzLjcxaC0xLjQ5djEuNDloMS40OVYzNi45SDEwLjEyVjI1LjMzaDEuNDl2LTEuNDloLTEuNDlWMTMuNThoMjIuNzZ2MTAuMjZ6TTguNjIgMzkuNTF2Ljc0bDEuNS43NWgyMi43NWwxLjUtLjc1di0uNzR6IiBjbGFzcz0ic3QyIi8+JiN4YTsgICAgPHBhdGggZD0iTTE1LjM0IDIzLjg0aDEuNDl2MS40OWgtMS40OXpNMTIuNzMgMjMuODRoMS40OXYxLjQ5aC0xLjQ5ek0yOC43NyAyMy44NGgxLjQ5djEuNDloLTEuNDl6TTI2LjE2IDIzLjg0aDEuNDl2MS40OWgtMS40OXoiIGNsYXNzPSJzdDIiLz4mI3hhOzwvc3ZnPg==;container=0;" vertex="1" parent="OeXCMGSgX0iGmx0cAqVo-1">
          <mxGeometry x="310" y="166" width="43" height="42" as="geometry" />
        </mxCell>
        <mxCell id="jVQFfvSJNSyhb4Hxbe7O-10" value="" style="shape=image;verticalLabelPosition=bottom;labelBackgroundColor=default;verticalAlign=top;aspect=fixed;imageAspect=0;image=data:image/svg+xml,PHN2ZyB4bWxucz0iaHR0cDovL3d3dy53My5vcmcvMjAwMC9zdmciIHhtbDpzcGFjZT0icHJlc2VydmUiIHN0eWxlPSJlbmFibGUtYmFja2dyb3VuZDpuZXcgMCAwIDQyLjk5IDQyIiB2aWV3Qm94PSIwIDAgNDIuOTkgNDIiIHk9IjAiIHg9IjAiIGlkPSJMYXllcl8xIiB2ZXJzaW9uPSIxLjEiPiYjeGE7ICAgIDxzdHlsZT4mI3hhOyAgICAgICAgLnN0MHtmaWxsOiNmZmZ9LnN0MXtmaWxsOm5vbmV9LnN0MntmaWxsOiMyYzU5Njd9JiN4YTsgICAgPC9zdHlsZT4mI3hhOyAgICA8cGF0aCBkPSJtMTAgNDEuNS0xLjg4LS45NFYyNS44M0g1LjQ4bDIuMzMgMi4zMy0xLjc2IDEuNzYtNS4zNC01LjM0IDUuMzQtNS4zNEw3LjgxIDIxbC0yLjMzIDIuMzNoMi42NVYxMS41OWgzLjczdi0xLjMxYzAtNS4yMSA0LjAxLTkuNSA5LjEzLTkuNzYuMTctLjAyLjM0LS4wMi41MS0uMDIgMi40OCAwIDQuODMuOTQgNi42MyAyLjY1IDEuOTQgMS44NCAzIDQuMzIgMyA2Ljk5djEuNDVoMy43M3YxMS43NWgyLjY1bC0yLjMzLTIuMzMgMS43Ni0xLjc2IDUuMzQgNS4zNC01LjM0IDUuMzQtMS43Ni0xLjc2IDIuMzMtMi4zM2gtMi42NXYxNC43M2wtMS44OC45NEgxMHoiIGNsYXNzPSJzdDAiLz4mI3hhOyAgICA8cGF0aCBkPSJNMjEuNSAxYzIuMzUgMCA0LjU3Ljg4IDYuMjggMi41MWE5LjA0NSA5LjA0NSAwIDAgMSAyLjg1IDYuNjN2MS45NWgzLjczdjExLjc1aDQuMzVsLTIuODMtMi44MyAxLjA2LTEuMDYgNC42MyA0LjYzLTQuNjMgNC42My0xLjA2LTEuMDYgMi44My0yLjgzaC00LjM1djE0LjkybC0xLjQ5Ljc2SDEwLjEybC0xLjUtLjc1VjI1LjMzSDQuMjdsMi44MyAyLjgzLTEuMDYgMS4wNi00LjYzLTQuNjMgNC42My00LjYzIDEuMDYgMS4wNi0yLjgzIDIuODNoNC4zNVYxMi4wOWgzLjczdi0xLjgxYzAtNC45NCAzLjgtOS4wMSA4LjY2LTkuMjYuMTctLjAyLjMzLS4wMi40OS0uMDJtMC0xYy0uMTggMC0uMzYgMC0uNTQuMDEtNS4zOS4yOC05LjYgNC43OS05LjYgMTAuMjZ2LjgxSDcuNjJ2OS4wM2wtLjg3LS44Ny0uNzEtLjcxLS43MS43MUwuNyAyMy44N2wtLjcuNzIuNzEuNzEgNC42MyA0LjYzLjcxLjcxLjcxLS43MS44Ny0uODdWNDAuODhsLjU1LjI4IDEuNS43NS4yLjA5aDIzLjI0bC4yMS0uMTEgMS41LS43NS41NS0uMjhWMjkuMDRsLjg3Ljg3LjcxLjcxLjcxLS43MSA0LjYzLTQuNjMuNzEtLjcxLS43MS0uNzEtNC42My00LjYzLS43MS0uNzEtLjcxLjcxLS44Ny44N3YtOS4wM2gtMy43M3YtLjk1YzAtMi44MS0xLjEyLTUuNDItMy4xNi03LjM1QTEwLjIxIDEwLjIxIDAgMCAwIDIxLjUgMHptMTMuODcgMjIuODR2LS45NGwuOTQuOTRoLS45NHptLTI4LjY5IDAgLjk0LS45NHYuOTRoLS45NHptMjguNjkgMy40OWguOTRsLS45NC45NHYtLjk0em0tMjguNjkgMGguOTR2Ljk0bC0uOTQtLjk0eiIgY2xhc3M9InN0MCIvPiYjeGE7ICAgIDxwYXRoIGQ9Ik0yMS4zNiA1LjFjLTIuNy4wNy00LjkgMi4zOS00LjkgNS4xNnYxLjgyaDEwLjA3di0xLjk1YzAtMS4zNy0uNTQtMi42NS0xLjUyLTMuNjFhNS4wMyA1LjAzIDAgMCAwLTMuNjUtMS40MnoiIGNsYXNzPSJzdDEiLz4mI3hhOyAgICA8cGF0aCBkPSJNMTQuOTcgMTAuMjZjMC0zLjU4IDIuODUtNi41NyA2LjM2LTYuNjYgMS43OC0uMDUgMy40Ni42MSA0LjczIDEuODVhNi40ODYgNi40ODYgMCAwIDEgMS45NyA0LjY4djEuOTVoMS4xMnYtMS45NWMwLTIuMTItLjg1LTQuMDktMi4zOC01LjU1YTcuNTg2IDcuNTg2IDAgMCAwLTUuNjctMi4wOWMtNC4wNi4yMS03LjI0IDMuNjItNy4yNCA3Ljc3djEuODFoMS4xMnYtMS44MXpNMTAuMTIgMjMuODRoMS40OXYxLjQ5aC0xLjQ5VjM2LjloMjIuNzZWMjUuMzNoLTEuNDl2LTEuNDloMS40OVYxMy41OEgxMC4xMnYxMC4yNnptMTguNjUgMGgxLjQ5djEuNDloLTEuNDl2LTEuNDl6bS0yLjYxIDBoMS40OXYxLjQ5aC0xLjQ5di0xLjQ5em0tNy43OC4xOWEzLjEzOCAzLjEzOCAwIDAgMSAyLjU1LTIuNTNjMi0uMzUgMy43NCAxLjE5IDMuNzQgMy4xMiAwIDEuMi0uNjcgMi4yNC0xLjY1IDIuNzhsLjU5IDQuMDloLTQuMjNsLjYzLTQuMDdhMy4xNjkgMy4xNjkgMCAwIDEtMS42My0zLjM5em0tMy4wNC0uMTloMS40OXYxLjQ5aC0xLjQ5di0xLjQ5em0tMi42MSAwaDEuNDl2MS40OWgtMS40OXYtMS40OXoiIGNsYXNzPSJzdDEiLz4mI3hhOyAgICA8cGF0aCBkPSJtMjAuMDIgMjcuNDItLjYzIDQuMDdoNC4yM2wtLjU5LTQuMDljLjk4LS41NCAxLjY1LTEuNTggMS42NS0yLjc4IDAtMS45NC0xLjc0LTMuNDctMy43NC0zLjEyYTMuMTUgMy4xNSAwIDAgMC0yLjU1IDIuNTNjLS4yOCAxLjQ1LjQ2IDIuNzcgMS42MyAzLjM5eiIgY2xhc3M9InN0MiIvPiYjeGE7ICAgIDxwYXRoIGQ9Im0zNi45NSAxOS45NS0xLjA2IDEuMDYgMi44MyAyLjgzaC00LjM1VjEyLjA5aC0zLjczdi0xLjk1YzAtMi41My0xLjAxLTQuODgtMi44NS02LjYzYTkuMDc3IDkuMDc3IDAgMCAwLTYuNzgtMi41Yy00Ljg1LjI1LTguNjYgNC4zMi04LjY2IDkuMjZ2MS44MUg4LjYydjExLjc1SDQuMjdMNy4xIDIxbC0xLjA2LTEuMDYtNC42MyA0LjYzIDQuNjMgNC42MyAxLjA2LTEuMDYtMi44My0yLjgzaDQuMzV2MTMuMDZoMjUuNzRWMjUuMzNoNC4zNWwtMi44MyAyLjgzIDEuMDYgMS4wNiA0LjYzLTQuNjMtNC42Mi00LjY0em0tMjMuMS05LjY4YzAtNC4xNSAzLjE4LTcuNTYgNy4yNC03Ljc3IDIuMTItLjExIDQuMTQuNjMgNS42NyAyLjA5YTcuNTcgNy41NyAwIDAgMSAyLjM4IDUuNTV2MS45NWgtMS4xMnYtMS45NWMwLTEuNzgtLjctMy40NC0xLjk3LTQuNjhhNi40NTkgNi40NTkgMCAwIDAtNC43My0xLjg1Yy0zLjUxLjA5LTYuMzYgMy4wOC02LjM2IDYuNjZ2MS44MmgtMS4xMnYtMS44MnptMTIuNjgtLjE0djEuOTVIMTYuNDZ2LTEuODJjMC0yLjc4IDIuMi01LjEgNC45LTUuMTYgMS4zOC0uMDMgMi42Ny40NyAzLjY1IDEuNDMuOTguOTUgMS41MiAyLjIzIDEuNTIgMy42em02LjM0IDEzLjcxaC0xLjQ5djEuNDloMS40OVYzNi45SDEwLjEyVjI1LjMzaDEuNDl2LTEuNDloLTEuNDlWMTMuNThoMjIuNzZ2MTAuMjZ6TTguNjIgMzkuNTF2Ljc0bDEuNS43NWgyMi43NWwxLjUtLjc1di0uNzR6IiBjbGFzcz0ic3QyIi8+JiN4YTsgICAgPHBhdGggZD0iTTE1LjM0IDIzLjg0aDEuNDl2MS40OWgtMS40OXpNMTIuNzMgMjMuODRoMS40OXYxLjQ5aC0xLjQ5ek0yOC43NyAyMy44NGgxLjQ5djEuNDloLTEuNDl6TTI2LjE2IDIzLjg0aDEuNDl2MS40OWgtMS40OXoiIGNsYXNzPSJzdDIiLz4mI3hhOzwvc3ZnPg==;container=0;" vertex="1" parent="OeXCMGSgX0iGmx0cAqVo-1">
          <mxGeometry x="165.77999999999975" y="166" width="43" height="42" as="geometry" />
        </mxCell>
        <mxCell id="jVQFfvSJNSyhb4Hxbe7O-11" value="" style="shape=image;verticalLabelPosition=bottom;verticalAlign=top;imageAspect=0;aspect=fixed;image=data:image/svg+xml,PHN2ZyB4bWxucz0iaHR0cDovL3d3dy53My5vcmcvMjAwMC9zdmciIHhtbDpzcGFjZT0icHJlc2VydmUiIHN0eWxlPSJlbmFibGUtYmFja2dyb3VuZDpuZXcgMCAwIDUyLjQ1IDQyIiB2aWV3Qm94PSIwIDAgNTIuNDUgNDIiIHk9IjAiIHg9IjAiIGlkPSJMYXllcl8xIiB2ZXJzaW9uPSIxLjEiPiYjeGE7ICAgIDxzdHlsZT4mI3hhOyAgICAgICAgLnN0MHtmaWxsOiNmZmZ9LnN0MXtmaWxsOiMyYzU5Njd9JiN4YTsgICAgPC9zdHlsZT4mI3hhOyAgICA8cGF0aCBkPSJNLjUgNDEuNVYzLjM3Qy41IDEuNzkgMS43OS41IDMuMzcuNWgxMy4wOWMuOSAwIDEuNzYuNDMgMi4zIDEuMTZsMi42OCAzLjZINDkuMWMxLjU4IDAgMi44NyAxLjI5IDIuODcgMi44N1Y0MS41SC41eiIgY2xhc3M9InN0MCIvPiYjeGE7ICAgIDxwYXRoIGQ9Ik0xNi40NiAxYy43NCAwIDEuNDUuMzYgMS45Ljk1bDIuODMgMy44SDQ5LjFjMS4zIDAgMi4zNyAxLjA2IDIuMzcgMi4zN1Y0MUgxVjMuMzdDMSAyLjA2IDIuMDYgMSAzLjM3IDFoMTMuMDltMC0xSDMuMzdDMS41MSAwIDAgMS41MSAwIDMuMzdWNDJoNTIuNDVWOC4xMmMwLTEuODYtMS41MS0zLjM3LTMuMzctMy4zN2gtMjcuNGwtMi41My0zLjRBMy4zNjIgMy4zNjIgMCAwIDAgMTYuNDYgMHoiIGNsYXNzPSJzdDAiLz4mI3hhOyAgICA8cGF0aCBkPSJNNDkuMDkgNS43NkgyMS4xOGwtMi44My0zLjhjLS40NC0uNi0xLjE1LS45Ni0xLjg5LS45NkgzLjM3QzIuMDYgMSAxIDIuMDYgMSAzLjM3VjQxaDUwLjQ1VjguMTJjMC0xLjMtMS4wNi0yLjM2LTIuMzYtMi4zNnptLjI2IDMzLjE0SDMuMVYzLjM3YzAtLjE0LjEyLS4yNi4yNi0uMjZoMTMuMDljLjA4IDAgLjE2LjA0LjIxLjExbDMuNDYgNC42NWgyOC45NmMuMTQgMCAuMjYuMTIuMjYuMjZWMzguOXoiIGNsYXNzPSJzdDEiLz4mI3hhOyAgICA8cGF0aCBkPSJNOS4xNSAxMy42NGgyLjF2LTMuMTVoMy4xNXYtMi4xaC0zLjE1VjUuMjNoLTIuMXYzLjE2SDUuOTl2Mi4xaDMuMTZ6TTQwLjkzIDIyLjMybC0xLjg0LTMuMy0xLjgzIDMuMy0yLjc4IDUuMDItMS43MyAzLjEyaDEyLjczbC0xLjc1LTMuMTMtMi44LTUuMDF6bS00LjYyIDYuMDQgMi43OC01LjAyIDIuOCA1LjAyaC01LjU4ek0yOS41NiAyMC4yM2MtLjg4LS41NC0xLjg4LS44My0yLjktLjgzYTUuNTI2IDUuNTI2IDAgMCAwLTUuMzcgNi43OSA1LjUgNS41IDAgMCAwIDYuNjMgNC4xIDUuNTA4IDUuNTA4IDAgMCAwIDMuNDMtMi40NyA1LjU0IDUuNTQgMCAwIDAgLjY4LTQuMTcgNS40ODggNS40ODggMCAwIDAtMi40Ny0zLjQyem0wIDYuNDljLS40OC43OC0xLjIzIDEuMzItMi4xMiAxLjUzYTMuNDMzIDMuNDMzIDAgMCAxLTQuMTEtMi41NGMtLjQzLTEuODMuNzEtMy42OCAyLjU0LTQuMTEuMjYtLjA2LjUzLS4wOS43OS0uMDkuNjMgMCAxLjI0LjE3IDEuNzkuNTEuNzguNDggMS4zMiAxLjIzIDEuNTMgMi4xMi4yMS44OC4wNiAxLjgtLjQyIDIuNTh6TTE2LjgzIDIwLjczbC0uNjEtMS4wNEg5Ljk5bC0uNjEgMS4wNC0xLjkyIDMuMjgtLjYyIDEuMDYuNjIgMS4wNiAxLjkyIDMuMjkuNjEgMS4wNEgxNi4yM2wuNjEtMS4wNCAxLjkyLTMuMjkuNjItMS4wNi0uNjItMS4wNi0xLjkzLTMuMjh6bS0xLjgxIDcuNjNIMTEuMmwtMS45Mi0zLjI5IDEuOTItMy4yOGgzLjgybDEuOTIgMy4yOC0xLjkyIDMuMjl6IiBjbGFzcz0ic3QxIi8+JiN4YTs8L3N2Zz4=;container=0;" vertex="1" parent="OeXCMGSgX0iGmx0cAqVo-1">
          <mxGeometry x="415" width="52" height="42" as="geometry" />
        </mxCell>
        <mxCell id="jVQFfvSJNSyhb4Hxbe7O-12" value="" style="endArrow=open;html=1;startArrow=none;startFill=0;endFill=0;rounded=0;fontFamily=Oracle Sans;fontSize=10.5;fontColor=#312D2A;labelBackgroundColor=none;strokeColor=#000000;endSize=6;elbow=vertical;exitX=0.044;exitY=0.628;exitDx=0;exitDy=0;exitPerimeter=0;" edge="1" parent="OeXCMGSgX0iGmx0cAqVo-1" source="jVQFfvSJNSyhb4Hxbe7O-15">
          <mxGeometry x="254.49999999999997" y="270" width="50" height="50" as="geometry">
            <mxPoint x="464" y="280" as="sourcePoint" />
            <mxPoint x="354" y="190" as="targetPoint" />
          </mxGeometry>
        </mxCell>
        <mxCell id="jVQFfvSJNSyhb4Hxbe7O-13" value="" style="shape=image;verticalLabelPosition=bottom;verticalAlign=top;imageAspect=0;aspect=fixed;image=data:image/svg+xml,PHN2ZyB4bWxucz0iaHR0cDovL3d3dy53My5vcmcvMjAwMC9zdmciIHhtbG5zOnhsaW5rPSJodHRwOi8vd3d3LnczLm9yZy8xOTk5L3hsaW5rIiB2ZXJzaW9uPSIxLjEiIGlkPSJMYXllcl8xIiB4PSIwcHgiIHk9IjBweCIgdmlld0JveD0iMCAwIDQzLjUgNDIiIHN0eWxlPSJlbmFibGUtYmFja2dyb3VuZDpuZXcgMCAwIDQzLjUgNDI7IiB4bWw6c3BhY2U9InByZXNlcnZlIiB3aWR0aD0iNDMuNSIgaGVpZ2h0PSI0MiI+JiN4YTs8Zz4mI3hhOwk8Zz4mI3hhOwkJPHBhdGggc3R5bGU9ImZpbGw6I0ZGRkZGRjsiIGQ9Ik0zMS4yLDQxLjVjLTIuOCwwLTUuMy0yLTUuOS00LjhoLTcuMWMtMC42LDIuNy0zLDQuOC01LjksNC44Yy0zLjMsMC02LTIuNy02LTYmIzEwOyYjOTsmIzk7JiM5O2MwLTIuMSwxLjItNC4xLDMtNS4ybC0yLjItNi43Yy0wLjIsMC0wLjQsMC0wLjYsMGMtMy4zLDAtNi0yLjctNi02YzAtMy4zLDIuNy02LDYtNmMxLjUsMCwyLjksMC41LDQsMS42TDE2LjMsOSYjMTA7JiM5OyYjOTsmIzk7Yy0wLjMtMC44LTAuNS0xLjYtMC41LTIuNWMwLTMuMywyLjctNiw2LTZzNiwyLjcsNiw2YzAsMC44LTAuMiwxLjctMC41LDIuNWw1LjcsNC4yYzEuMS0xLDIuNS0xLjYsNC0xLjZjMy4zLDAsNiwyLjcsNiw2JiMxMDsmIzk7JiM5OyYjOTtzLTIuNyw2LTYsNmMtMC4yLDAtMC40LDAtMC42LDBsLTIuMiw2LjdjMS44LDEuMSwzLDMuMSwzLDUuMkMzNy4yLDM4LjgsMzQuNSw0MS41LDMxLjIsNDEuNXoiLz4mI3hhOwkJPHBhdGggc3R5bGU9ImZpbGw6I0ZGRkZGRjsiIGQ9Ik0yMS43LDFjMywwLDUuNSwyLjUsNS41LDUuNWMwLDAuOS0wLjIsMS44LTAuNywyLjZsNi40LDQuN2MxLTEuMSwyLjQtMS43LDQtMS43JiMxMDsmIzk7JiM5OyYjOTtjMywwLDUuNSwyLjUsNS41LDUuNWMwLDMtMi41LDUuNS01LjUsNS41Yy0wLjMsMC0wLjcsMC0xLTAuMWwtMi41LDcuNWMxLjgsMC45LDMuMSwyLjgsMy4xLDVjMCwzLTIuNSw1LjUtNS41LDUuNSYjMTA7JiM5OyYjOTsmIzk7Yy0yLjgsMC01LjEtMi4xLTUuNS00LjhoLTcuOWMtMC40LDIuNy0yLjcsNC44LTUuNSw0LjhjLTMsMC01LjUtMi41LTUuNS01LjVjMC0yLjIsMS4zLTQuMSwzLjEtNUw3LjUsMjNjLTAuMywwLjEtMC43LDAuMS0xLDAuMSYjMTA7JiM5OyYjOTsmIzk7Yy0zLDAtNS41LTIuNS01LjUtNS41czIuNS01LjUsNS41LTUuNWMxLjYsMCwzLDAuNyw0LDEuN2w2LjQtNC43Yy0wLjQtMC44LTAuNy0xLjctMC43LTIuNkMxNi4yLDMuNSwxOC43LDEsMjEuNywxIE0yMS43LDAmIzEwOyYjOTsmIzk7JiM5O2MtMy42LDAtNi41LDIuOS02LjUsNi41YzAsMC44LDAuMSwxLjYsMC40LDIuM2wtNS4xLDMuN2MtMS4xLTAuOS0yLjYtMS40LTQtMS40QzIuOSwxMS4xLDAsMTQsMCwxNy42czIuOSw2LjUsNi41LDYuNSYjMTA7JiM5OyYjOTsmIzk7YzAuMSwwLDAuMiwwLDAuMywwbDEuOSw2Yy0xLjgsMS4yLTIuOSwzLjItMi45LDUuNGMwLDMuNiwyLjksNi41LDYuNSw2LjVjMi45LDAsNS41LTIsNi4zLTQuOGg2LjNjMC44LDIuOCwzLjMsNC44LDYuMyw0LjgmIzEwOyYjOTsmIzk7JiM5O2MzLjYsMCw2LjUtMi45LDYuNS02LjVjMC0yLjItMS4xLTQuMi0yLjktNS40bDEuOS02YzAuMSwwLDAuMiwwLDAuMywwYzMuNiwwLDYuNS0yLjksNi41LTYuNWMwLTMuNi0yLjktNi41LTYuNS02LjUmIzEwOyYjOTsmIzk7JiM5O2MtMS41LDAtMi45LDAuNS00LjEsMS40bC01LjEtMy43YzAuMy0wLjcsMC40LTEuNSwwLjQtMi4zQzI4LjMsMi45LDI1LjMsMCwyMS43LDBMMjEuNywweiIvPiYjeGE7CTwvZz4mI3hhOwk8Zz4mI3hhOwkJPHBhdGggc3R5bGU9ImZpbGw6I0JCNTAxQzsiIGQ9Ik0zNywxMi4xYy0xLjYsMC0zLDAuNy00LDEuN2wtNi40LTQuN2MwLjQtMC44LDAuNy0xLjcsMC43LTIuNmMwLTMtMi41LTUuNS01LjUtNS41JiMxMDsmIzk7JiM5OyYjOTtzLTUuNSwyLjUtNS41LDUuNWMwLDAuOSwwLjIsMS44LDAuNywyLjZsLTYuNCw0LjdjLTEtMS0yLjQtMS43LTQtMS43Yy0zLDAtNS41LDIuNS01LjUsNS41czIuNSw1LjUsNS41LDUuNWMwLjMsMCwwLjcsMCwxLTAuMSYjMTA7JiM5OyYjOTsmIzk7bDIuNCw3LjVjLTEuOCwwLjktMy4xLDIuOC0zLjEsNWMwLDMsMi41LDUuNSw1LjUsNS41YzIuOCwwLDUuMS0yLjEsNS41LTQuOGg3LjljMC40LDIuNywyLjcsNC44LDUuNSw0LjhjMywwLDUuNS0yLjUsNS41LTUuNSYjMTA7JiM5OyYjOTsmIzk7YzAtMi4yLTEuMy00LjEtMy4xLTVMMzYsMjNjMC4zLDAuMSwwLjcsMC4xLDEsMC4xYzMsMCw1LjUtMi41LDUuNS01LjVTNDAsMTIuMSwzNywxMi4xeiBNMzEuMiwzOS41Yy0yLjIsMC00LTEuOC00LTQmIzEwOyYjOTsmIzk7JiM5O2MwLTIuMiwxLjgtNCw0LTRzNCwxLjgsNCw0QzM1LjIsMzcuNywzMy40LDM5LjUsMzEuMiwzOS41eiBNMTcuOCwzNC44Yy0wLjItMS4zLTAuOC0yLjQtMS43LTMuM2wzLTQuMmMwLjgsMC40LDEuNywwLjcsMi42LDAuNyYjMTA7JiM5OyYjOTsmIzk7YzAuOSwwLDEuOC0wLjIsMi42LTAuN2wzLDQuMmMtMC45LDAuOC0xLjUsMi0xLjcsMy4zSDE3Ljh6IE04LjMsMzUuNWMwLTIuMiwxLjgtNCw0LTRzNCwxLjgsNCw0YzAsMi4yLTEuOCw0LTQsNCYjMTA7JiM5OyYjOTsmIzk7UzguMywzNy43LDguMywzNS41eiBNNi41LDEzLjVjMi4yLDAsNCwxLjgsNCw0cy0xLjgsNC00LDRzLTQtMS44LTQtNFM0LjMsMTMuNSw2LjUsMTMuNXogTTE3LjcsNi41YzAtMi4yLDEuOC00LDQtNHM0LDEuOCw0LDQmIzEwOyYjOTsmIzk7JiM5O3MtMS44LDQtNCw0UzE3LjcsOC43LDE3LjcsNi41eiBNMzEuNiwxOC41bC00LjksMS42Yy0wLjgtMS42LTIuNC0yLjgtNC4yLTMuMVYxMmMxLjMtMC4yLDIuNC0wLjgsMy4yLTEuN2w2LjQsNC43JiMxMDsmIzk7JiM5OyYjOTtjLTAuNCwwLjgtMC43LDEuNy0wLjcsMi42QzMxLjUsMTcuOSwzMS41LDE4LjIsMzEuNiwxOC41eiBNMjUuOCwyMi41YzAsMi4yLTEuOCw0LTQsNHMtNC0xLjgtNC00czEuOC00LDQtNFMyNS44LDIwLjIsMjUuOCwyMi41eiYjMTA7JiM5OyYjOTsmIzk7IE0yMSwxMlYxN2MtMS45LDAuMy0zLjUsMS40LTQuMiwzLjFsLTQuOS0xLjZjMC4xLTAuMywwLjEtMC42LDAuMS0xYzAtMC45LTAuMi0xLjgtMC43LTIuNmw2LjQtNC43QzE4LjYsMTEuMiwxOS43LDExLjgsMjEsMTJ6JiMxMDsmIzk7JiM5OyYjOTsgTTExLjUsMTkuOWw0LjksMS42Yy0wLjEsMC4zLTAuMSwwLjYtMC4xLDFjMCwxLjYsMC43LDMsMS43LDRsLTMsNC4yYy0wLjgtMC40LTEuNy0wLjctMi42LTAuN2MtMC4zLDAtMC43LDAtMSwwLjFsLTIuNC03LjUmIzEwOyYjOTsmIzk7JiM5O0MxMCwyMiwxMC45LDIxLjEsMTEuNSwxOS45eiBNMzEuMiwzMGMtMC45LDAtMS44LDAuMi0yLjYsMC43bC0zLTQuMmMxLjEtMSwxLjctMi40LDEuNy00YzAtMC4zLDAtMC43LTAuMS0xbDQuOS0xLjYmIzEwOyYjOTsmIzk7JiM5O2MwLjUsMS4xLDEuNSwyLDIuNiwyLjZsLTIuNSw3LjVDMzEuOCwzMCwzMS41LDMwLDMxLjIsMzB6IE0zMywxNy42YzAtMi4yLDEuOC00LDQtNHM0LDEuOCw0LDRzLTEuOCw0LTQsNFMzMywxOS44LDMzLDE3LjZ6Ii8+JiN4YTsJPC9nPiYjeGE7PC9nPiYjeGE7PC9zdmc+;dashed=1;dashPattern=1 1;strokeColor=#bb511c;strokeWidth=3;fontColor=#AE562C;fontFamily=Helvetica;fontSize=12;fillColor=#FCFBFA;container=0;" vertex="1" parent="OeXCMGSgX0iGmx0cAqVo-1">
          <mxGeometry x="572.78" y="51" width="31.43" height="30" as="geometry" />
        </mxCell>
        <mxCell id="jVQFfvSJNSyhb4Hxbe7O-14" value="" style="shape=image;verticalLabelPosition=bottom;verticalAlign=top;imageAspect=0;aspect=fixed;image=data:image/svg+xml,PHN2ZyB4bWxucz0iaHR0cDovL3d3dy53My5vcmcvMjAwMC9zdmciIHZpZXdCb3g9IjAgMCA0MCA0MCI+JiN4YTsgICAgPHBhdGggZmlsbD0iI0ZGRiIgZD0iTS40NzYgMzkuNTJWMTMuMDc2aDE2Ljc2MlY1LjI5TDI4LjQ3Ni40OCAzOS42MiA1LjI4OVYxNS40OGMwIC4wOTYgMCAyLjU5Ni0xLjQyOCA1LjU3Ny0xLjIzOSAyLjY5Mi0zLjgxIDYuMzQ2LTkuMzM0IDguMzY1djEwSC40Nzd2LjA5NloiLz4mI3hhOyAgICA8cGF0aCBmaWxsPSIjRkZGIiBkPSJtMjguMzgxIDEuMDU4IDEwLjY2NyA0LjUxOXY5LjkwNGMwIC4wOTYgMCAyLjUtMS4zMzQgNS4zODQtMS4yMzggMi42OTMtMy43MTQgNi4yNS05LjA0NyA4LjE3NGwtLjE5LjA5NmgtLjA5NnY5LjkwM0guOTUydi0yNS40OGgxNi43NjJWNS41NzdsMTAuNjY3LTQuNTJabTAtMS4wNThMMjggLjE5MmwtMTAuNjY3IDQuNTItLjU3MS4yODh2Ny42OTNIMFY0MGgyOS4zMzNWMjkuODA4YzUuMzM0LTIuMTE2IDgtNS43NyA5LjIzOC04LjU1OEM0MCAxOC4xNzMgNDAgMTUuNTc3IDQwIDE1LjQ4VjVsLS41NzEtLjI4OEwyOC43NjIuMTkyIDI4LjM4IDBaIi8+JiN4YTsgICAgPHBhdGggZmlsbD0iI0FFNTYyQyIgZD0iTTI3LjA0OCAyOS43MTJIOS41MjRWMjIuOThoOS41MjRhMTcuMiAxNy4yIDAgMCAxLS42NjctMS4yNUg5LjUyNFYxNWg3LjE0M3YtMS4yNUguOTUydjI1LjM4NWgyNy40Mjl2LTguODQ2bC0uNDc2LS4xOTNjLS4yODYtLjE5Mi0uNTcyLS4yODgtLjg1Ny0uMzg0Wk0yLjE5IDE0LjkwNGg2LjA5NnY2LjczSDIuMTl2LTYuNzNabTYuMDk2IDcuOTh2Ni43MzFIMi4xOXYtNi43M2g2LjA5NlpNMi4xOSAzMC45NjNoNi4wOTZ2Ni43M0gyLjE5di02LjczWm0yNC44NTggNi43M0g5LjUyNHYtNi43M2gxNy41MjR2Ni43M1oiLz4mI3hhOyAgICA8cGF0aCBmaWxsPSIjQUU1NjJDIiBkPSJNMjUuNjIgMzUuMTkySDI0LjM4djEuMjVoMS4yMzh2LTEuMjVaTTIwLjM4IDM2LjQ0MmwxLjE0NC0xLjE1NCAxLjE0MiAxLjE1NC44NTgtLjk2MS0xLjE0My0xLjE1NCAxLjE0My0xLjE1NC0uODU4LS44NjUtMS4xNDIgMS4xNTQtMS4xNDMtMS4xNTQtLjk1My44NjUgMS4xNDMgMS4xNTQtMS4xNDMgMS4xNTQuOTUzLjk2MVpNMTcuNjE5IDM1LjE5MmgtMS4yMzh2MS4yNWgxLjIzOHYtMS4yNVpNMTEuNTI0IDM1LjQ4bC44NTcuOTYyIDEuMTQzLTEuMTU0IDEuMTQzIDEuMTU0Ljk1Mi0uOTYxLTEuMTQzLTEuMTU0IDEuMTQzLTEuMTU0LS45NTItLjg2NS0xLjE0MyAxLjE1NC0xLjE0My0xLjE1NC0uODU3Ljg2NSAxLjE0MyAxLjE1NC0xLjE0MyAxLjE1NFpNMTcuNjE5IDI3LjExNmgtMS4yMzh2MS4yNWgxLjIzOHYtMS4yNVpNMTEuNTI0IDI3LjQwNGwuODU3Ljk2MiAxLjE0My0xLjE1NCAxLjE0MyAxLjE1NC45NTItLjk2Mi0xLjE0My0xLjE1NCAxLjE0My0xLjE1NC0uOTUyLS44NjUtMS4xNDMgMS4xNTQtMS4xNDMtMS4xNTQtLjg1Ny44NjUgMS4xNDMgMS4xNTQtMS4xNDMgMS4xNTRaTTE2LjA5NSAyMC4zODVoMS4yMzh2LTEuMzQ2aC0xLjIzOHYxLjM0NlpNMTEuMTQzIDE5LjQyM2wuOTUyLjg2NSAxLjE0My0xLjE1MyAxLjE0MyAxLjE1My44NTctLjg2NS0xLjE0My0xLjE1NCAxLjE0My0xLjE1NC0uODU3LS45NjEtMS4xNDMgMS4xNTQtMS4xNDMtMS4xNTQtLjk1Mi45NjEgMS4xNDMgMS4xNTQtMS4xNDMgMS4xNTRaTTE3LjcxNCA1LjU3N3Y5LjkwNGMwIC4wOTYuMDk2IDIuNSAxLjMzNCA1LjM4NCAxLjIzOCAyLjY5MyAzLjgxIDYuMjUgOS4xNDMgOC4xNzNsLjE5LjA5Ni4xOS0uMDk2YzUuMzM0LTEuOTIzIDcuOTA1LTUuNDggOS4wNDgtOC4xNzMgMS4zMzMtMi44ODQgMS4zMzMtNS4yODggMS4zMzMtNS4zODRWNS41NzdsLTEwLjU3MS00LjUyLTEwLjY2NyA0LjUyWk0zNy44MSAxNS40OGMwIC4wOTYtLjE5IDguNzUtOS4zMzQgMTIuMjExLTMuODEtMS40NDItNi41NzEtMy45NDItOC4xOS03LjMwOC0xLjIzOC0yLjU5Ni0xLjIzOC00LjkwMy0xLjIzOC00LjkwM1Y2LjQ0Mmw5LjQyOC00LjAzOCA5LjMzNCA0LjAzOHY5LjAzOVoiLz4mI3hhOyAgICA8cGF0aCBmaWxsPSIjQUU1NjJDIiBkPSJNMjcuMjM4IDE2LjgyN2gtNC45NTJ2MS4yNWg0Ljk1MnYtMS4yNVpNMjcuMjM4IDEwLjM4NWgtNC45NTJ2MS4yNWg0Ljk1MnYtMS4yNVpNMzMuOTA1IDguOTQybC0yLjc2MiAyLjY5My0uOTUzLS45NjItLjk1Mi44NjYgMS45MDUgMS45MjMgMy42MTktMy42NTQtLjg1Ny0uODY2Wk0yMi4yODYgMTQuOTA0aDQuOTUydi0xLjM0NmgtNC45NTJ2MS4zNDZaIi8+JiN4YTs8L3N2Zz4=;container=0;" vertex="1" parent="OeXCMGSgX0iGmx0cAqVo-1">
          <mxGeometry x="536" y="69.47000000000025" width="40" height="40" as="geometry" />
        </mxCell>
        <mxCell id="jVQFfvSJNSyhb4Hxbe7O-15" value="" style="shape=image;verticalLabelPosition=bottom;labelBackgroundColor=default;verticalAlign=top;aspect=fixed;imageAspect=0;image=data:image/svg+xml,PHN2ZyB4bWxucz0iaHR0cDovL3d3dy53My5vcmcvMjAwMC9zdmciIHZpZXdCb3g9IjAgMCA1Ny4yNCA0MiIgZGF0YS1uYW1lPSJMYXllciAxIiBpZD0iTGF5ZXJfMSI+PGRlZnM+PHN0eWxlPi5jbHMtMXtmaWxsOiNmZmY7fS5jbHMtMntmaWxsOiMyYzU5Njc7fTwvc3R5bGU+PC9kZWZzPjx0aXRsZT5NYW5hZ2VkIFNlcnZlcjwvdGl0bGU+PG1ldGFkYXRhPiYjeGE7JiN4YTsgICAmI3hhOyAgICAgICYjeGE7ICAgICAgICAgVHJ1ZSYjeGE7ICAgICAgICAgMjAyMS0wNy0yMlQxNToyNDowNy0wNTowMCYjeGE7ICAgICAgICAgeG1wLmlpZDplOGI0MjE4Zi0zYjYzLTQzZDktYTE0Zi1kN2M5ZjVjOWJkNDcmI3hhOyAgICAgICAgIHhtcC5kaWQ6ZGUwNzMzNjEtMzEwMS00MGE5LWJiY2EtNzU0ZWYzYjkwYWVhJiN4YTsgICAgICAgICB4bXAuZGlkOmRlMDczMzYxLTMxMDEtNDBhOS1iYmNhLTc1NGVmM2I5MGFlYSYjeGE7ICAgICAgICAgJiN4YTsgICAgICAgICAgICAmI3hhOyAgICAgICAgICAgICAgICYjeGE7ICAgICAgICAgICAgICAgICAgJiN4YTsgICAgICAgICAgICAgICAgICAgICBzYXZlZCYjeGE7ICAgICAgICAgICAgICAgICAgICAgeG1wLmlpZDpkZTA3MzM2MS0zMTAxLTQwYTktYmJjYS03NTRlZjNiOTBhZWEmI3hhOyAgICAgICAgICAgICAgICAgICAgIDIwMjEtMDYtMjNUMTU6NTQtMDU6MDAmI3hhOyAgICAgICAgICAgICAgICAgICAgIEFkb2JlIEJyaWRnZSAyMDIxIChNYWNpbnRvc2gpJiN4YTsgICAgICAgICAgICAgICAgICAgICAvbWV0YWRhdGEmI3hhOyAgICAgICAgICAgICAgICAgICYjeGE7ICAgICAgICAgICAgICAgJiN4YTsgICAgICAgICAgICAgICAmI3hhOyAgICAgICAgICAgICAgICAgICYjeGE7ICAgICAgICAgICAgICAgICAgICAgc2F2ZWQmI3hhOyAgICAgICAgICAgICAgICAgICAgIHhtcC5paWQ6ZThiNDIxOGYtM2I2My00M2Q5LWExNGYtZDdjOWY1YzliZDQ3JiN4YTsgICAgICAgICAgICAgICAgICAgICAyMDIxLTA3LTIyVDE1OjI0OjA3LTA1OjAwJiN4YTsgICAgICAgICAgICAgICAgICAgICBBZG9iZSBCcmlkZ2UgMjAyMSAoTWFjaW50b3NoKSYjeGE7ICAgICAgICAgICAgICAgICAgICAgL21ldGFkYXRhJiN4YTsgICAgICAgICAgICAgICAgICAmI3hhOyAgICAgICAgICAgICAgICYjeGE7ICAgICAgICAgICAgJiN4YTsgICAgICAgICAmI3hhOyAgICAgICAgICYjeGE7ICAgICAgICAgICAgJiN4YTsgICAgICAgICAgICAgICBNYW5hZ2VkIFNlcnZlciYjeGE7ICAgICAgICAgICAgJiN4YTsgICAgICAgICAmI3hhOyAgICAgICAgICYjeGE7ICAgICAgICAgICAgJiN4YTsgICAgICAgICAgICAgICBPcmFjbGUgQWxsIFJpZ2h0cyBSZXNlcnZlZCYjeGE7ICAgICAgICAgICAgJiN4YTsgICAgICAgICAmI3hhOyAgICAgICAgICYjeGE7ICAgICAgICAgICAgJiN4YTsgICAgICAgICAgICAgICBpY29uJiN4YTsgICAgICAgICAgICAgICB0ZWNobm9sb2d5JiN4YTsgICAgICAgICAgICAgICBIYXJkd2FyZSYjeGE7ICAgICAgICAgICAgICAgRGF0YSBNYW5hZ2VtZW50JiN4YTsgICAgICAgICAgICAmI3hhOyAgICAgICAgICYjeGE7ICAgICAgICAgJiN4YTsgICAgICAgICAgICAmI3hhOyAgICAgICAgICAgICAgIGljb24mI3hhOyAgICAgICAgICAgICAgIHRlY2hub2xvZ3kmI3hhOyAgICAgICAgICAgICAgIEhhcmR3YXJlJiN4YTsgICAgICAgICAgICAgICBEYXRhIE1hbmFnZW1lbnQmI3hhOyAgICAgICAgICAgICYjeGE7ICAgICAgICAgJiN4YTsgICAgICAmI3hhOyAgICYjeGE7JiN4YTsgICAgICAgICAgICAgICAgICAgICAgICAgICAgICAgICAgICAgICAgICAgICAgICAgICAgICAgICAgICAgICAgICAgICAgICAgICAgICAgICAgICAgICAgICAgICAgICAgICAgJiN4YTsgICAgICAgICAgICAgICAgICAgICAgICAgICAgICAgICAgICAgICAgICAgICAgICAgICAgICAgICAgICAgICAgICAgICAgICAgICAgICAgICAgICAgICAgICAgICAgICAgICAgJiN4YTsgICAgICAgICAgICAgICAgICAgICAgICAgICAgICAgICAgICAgICAgICAgICAgICAgICAgICAgICAgICAgICAgICAgICAgICAgICAgICAgICAgICAgICAgICAgICAgICAgICAgJiN4YTsgICAgICAgICAgICAgICAgICAgICAgICAgICAgICAgICAgICAgICAgICAgICAgICAgICAgICAgICAgICAgICAgICAgICAgICAgICAgICAgICAgICAgICAgICAgICAgICAgICAgJiN4YTsgICAgICAgICAgICAgICAgICAgICAgICAgICAgICAgICAgICAgICAgICAgICAgICAgICAgICAgICAgICAgICAgICAgICAgICAgICAgICAgICAgICAgICAgICAgICAgICAgICAgJiN4YTsgICAgICAgICAgICAgICAgICAgICAgICAgICAgICAgICAgICAgICAgICAgICAgICAgICAgICAgICAgICAgICAgICAgICAgICAgICAgICAgICAgICAgICAgICAgICAgICAgICAgJiN4YTsgICAgICAgICAgICAgICAgICAgICAgICAgICAgICAgICAgICAgICAgICAgICAgICAgICAgICAgICAgICAgICAgICAgICAgICAgICAgICAgICAgICAgICAgICAgICAgICAgICAgJiN4YTsgICAgICAgICAgICAgICAgICAgICAgICAgICAgICAgICAgICAgICAgICAgICAgICAgICAgICAgICAgICAmI3hhOzwvbWV0YWRhdGE+JiN4YTs8cG9seWdvbiBwb2ludHM9IjAuNSA0MS41IDAuNSAzOS44NCAyLjU5IDM4LjggMy4wNiAzOC44IDMuMDYgMC41IDIzLjYzIDAuNSAyMy42MyAzOC44IDI0LjEgMzguOCAyNi4xOSAzOS44NCAyNi4xOSA0MS41IDAuNSA0MS41IiBjbGFzcz0iY2xzLTEiLz48cGF0aCBkPSJNMjMuMTMsMVYzOS4zSDI0bDEuNzEuODVWNDFIMXYtLjg1bDEuNzEtLjg1aC44NVYxSDIzLjEzbTEtMUgyLjU2VjM4LjNIMi40N2wtLjIxLjEtMS43MS44NUwwLDM5LjUzVjQySDI2LjY5VjM5LjUzbC0uNTYtLjI4LTEuNy0uODUtLjIxLS4xaC0uMDlWMFoiIGNsYXNzPSJjbHMtMSIvPjxwYXRoIGQ9Ik0zMy4zMSwzNC41OGwxLjkxLTEuOTEuNi42VjMxLjVIMjMuOTFWMTIuNjlhMiwyLDAsMCwxLDItMmg2LjQ3YTIsMiwwLDAsMSwxLjU5LjhsMS4xNSwxLjU0SDM2VjExLjI4bC0uNi42TDMzLjUyLDEwbDMuODctMy44Nkw0MS4yNSwxMGwtMS45MSwxLjkxLS42LS42djEuNzdoOC44N2EyLDIsMCwwLDEsMiwydjUuOWgxLjc3bC0uNTgtLjU4LDEuOTItMS45MSwzLjgzLDMuODQtMy44NiwzLjg2LTEuOTEtMS45MS42LS42SDQ5LjU5VjMxLjVIMzguNTJ2MS43N2wuNjEtLjZMNDEsMzQuNThsLTMuODcsMy44NloiIGNsYXNzPSJjbHMtMSIvPjxwYXRoIGQ9Ik0zNy4zOSw2LjgyLDQwLjU0LDEwbC0xLjIsMS4yMS0xLjEtMS4xdjMuNDdoOS4zN0ExLjQ4LDEuNDgsMCwwLDEsNDkuMDksMTV2Ni40aDMuNDhsLTEuMDgtMS4wOCwxLjIxLTEuMiwzLjEyLDMuMTMtMy4xNSwzLjE1LTEuMi0xLjIsMS4xLTEuMUg0OS4wOVYzMUgzOHYzLjQ4bDEuMTEtMS4xLDEuMiwxLjItMy4xNiwzLjE2TDM0LDM0LjU4bDEuMi0xLjIsMS4xLDEuMVYzMUgyNC40MVYxMi42OWExLjQ3LDEuNDcsMCwwLDEsMS40Ny0xLjQ4aDYuNDdhMS41LDEuNSwwLDAsMSwxLjE5LjZsMS4zLDEuNzRoMS43VjEwLjA4bC0xLjEsMS4xTDM0LjIzLDEwbDMuMTYtMy4xNW0wLTEuNDItLjcxLjcxTDMzLjUyLDkuMjdsLS43LjcuMzkuNGEyLjQ4LDIuNDgsMCwwLDAtLjg2LS4xNkgyNS44OGEyLjQ4LDIuNDgsMCwwLDAtMi40NywyLjQ4VjMySDM1LjE5bC0uNjcuNjctMS4yMSwxLjItLjcxLjcxLjcxLjcxLDMuMTYsMy4xNS43LjcxLjcxLS43MUw0MSwzNS4yOWwuNy0uNzEtLjctLjcxLTEuMjEtMS4yTDM5LjE2LDMySDUwLjA5VjI0LjI3bC42Ny42NywxLjIsMS4yLjcxLjcxLjcxLS43MUw1Ni41MywyM2wuNzEtLjctLjcxLS43MUw1My40LDE4LjQ0bC0uNy0uNzEtLjcxLjcxLTEuMiwxLjItLjcuN1YxNWEyLjQ4LDIuNDgsMCwwLDAtMi40OC0yLjQ4SDM5LjM4bC42Ni0uNjcsMS4yMS0xLjJMNDIsMTBsLS43MS0uN0wzOC4wOSw2LjExbC0uNy0uNzFabS0yLDcuMTUtLjE3LS4yMy4yMy4yM1ptLjEzLDAsLjA3LS4wNnYuMDZabTMuNzcsMHYtLjA2bC4wNi4wNlptMTAuODUsNy44OHYtLjA3bC4wNy4wN1ptMCwzLjdoLjA2bC0uMDYuMDZ2LS4wNlpNMzksMzJoLjA3bC0uMDcuMDZWMzJabS0zLjc2LDBoLjA2di4wNkwzNS4yNiwzMloiIGNsYXNzPSJjbHMtMSIvPjxwYXRoIGQ9Ik0xOC40NSw4LjIzSDguMjRWOS45NEg2LjU0djEuN2gxLjd2MS43SDE4LjQ1di0xLjdoMS43VjkuOTRoLTEuN1ptLTEuNywzLjQxSDkuOTRWOS45NGg2LjgxWiIgY2xhc3M9ImNscy0yIi8+PHJlY3QgaGVpZ2h0PSIxLjciIHdpZHRoPSIxMy42MiIgeT0iNS4yNiIgeD0iNi41NCIgY2xhc3M9ImNscy0yIi8+PHJlY3QgaGVpZ2h0PSIxLjciIHdpZHRoPSIxMy42MiIgeT0iMTQuNjIiIHg9IjYuNTQiIGNsYXNzPSJjbHMtMiIvPjxyZWN0IGhlaWdodD0iMS43IiB3aWR0aD0iMTMuNjIiIHk9IjM1LjA0IiB4PSI2LjU0IiBjbGFzcz0iY2xzLTIiLz48cmVjdCBoZWlnaHQ9IjEuNyIgd2lkdGg9IjEzLjYyIiB5PSIzMi4wNiIgeD0iNi41NCIgY2xhc3M9ImNscy0yIi8+PHBhdGggZD0iTTYuNTQsMzAuNzlIMjAuMTV2LTZINi41NFptMS43LTQuMjZIMTguNDV2Mi41Nkg4LjI0WiIgY2xhc3M9ImNscy0yIi8+PHBhdGggZD0iTTYuNTQsMjMuNTVIMjAuMTVWMTcuNkg2LjU0Wm0xLjctNC4yNUgxOC40NXYyLjU1SDguMjRaIiBjbGFzcz0iY2xzLTIiLz48cGF0aCBkPSJNMjQsMzkuM2gtLjg1VjFIMy41NlYzOS4zSDIuNzFMMSw0MC4xNVY0MUgyNS42OXYtLjg1TDI0LDM5LjNabS0xOC43MiwwVjIuN0gyMS40M1YzOS4zWiIgY2xhc3M9ImNscy0yIi8+PHBhdGggZD0iTTQ3LjYxLDEzLjU1SDM0Ljg0bC0xLjMtMS43NGExLjUsMS41LDAsMCwwLTEuMTktLjZIMjUuODhhMS40NywxLjQ3LDAsMCwwLTEuNDcsMS40OFYzMUg0OS4wOVYxNUExLjQ4LDEuNDgsMCwwLDAsNDcuNjEsMTMuNTVabS0xNS4zNy0uNjQuOTEsMS4yM0wzMiwxNS42OEgyNi4xMVYxMi45MVpNNDcuMzksMjkuM0gyNi4xMVYxNy4zOGg2YTEuNDksMS40OSwwLDAsMCwxLjE4LS41OWwxLjE1LTEuNTNoMTNaIiBjbGFzcz0iY2xzLTIiLz48cG9seWdvbiBwb2ludHM9IjUyLjcgMTkuMTUgNTEuNDkgMjAuMzUgNTIuNTcgMjEuNDMgNTAuMzcgMjEuNDMgNTAuMzcgMjMuMTMgNTIuNTcgMjMuMTMgNTEuNDcgMjQuMjMgNTIuNjcgMjUuNDMgNTUuODIgMjIuMjggNTIuNyAxOS4xNSIgY2xhc3M9ImNscy0yIi8+PHBvbHlnb24gcG9pbnRzPSIzNi41MyAxMC4wOCAzNi41MyAxMi4yOCAzOC4yNCAxMi4yOCAzOC4yNCAxMC4wOCAzOS4zNCAxMS4xOCA0MC41NCA5Ljk3IDM3LjM5IDYuODIgMzQuMjMgOS45NyAzNS40NCAxMS4xOCAzNi41MyAxMC4wOCIgY2xhc3M9ImNscy0yIi8+PHBvbHlnb24gcG9pbnRzPSIzOC4wMiAzNC40OCAzOC4wMiAzMi4yOCAzNi4zMiAzMi4yOCAzNi4zMiAzNC40OCAzNS4yMiAzMy4zOCAzNC4wMiAzNC41OCAzNy4xNyAzNy43NCA0MC4zMyAzNC41OCAzOS4xMyAzMy4zOCAzOC4wMiAzNC40OCIgY2xhc3M9ImNscy0yIi8+PC9zdmc+;flipH=0;container=0;" vertex="1" parent="OeXCMGSgX0iGmx0cAqVo-1">
          <mxGeometry x="458.5" y="163" width="57" height="42" as="geometry" />
        </mxCell>
        <mxCell id="jVQFfvSJNSyhb4Hxbe7O-16" value="&lt;div&gt;Identity Manager&lt;/div&gt;" style="text;strokeColor=none;align=center;fillColor=none;verticalAlign=middle;whiteSpace=wrap;rounded=0;spacing=0;rotation=0;html=1;fontColor=#000000;container=0;" vertex="1" parent="OeXCMGSgX0iGmx0cAqVo-1">
          <mxGeometry x="439.756" y="207.83999999999833" width="94.488" height="20.078699999999998" as="geometry" />
        </mxCell>
        <mxCell id="jVQFfvSJNSyhb4Hxbe7O-17" value="&lt;b&gt;&lt;font color=&quot;#ffffff&quot;&gt;1&lt;br&gt;&lt;/font&gt;&lt;/b&gt;" style="rounded=1;whiteSpace=wrap;html=1;fillColor=#000000;strokeColor=#FFFFFF;fontColor=#161513;fontFamily=Calibri;labelBackgroundColor=none;align=center;arcSize=50;verticalAlign=middle;aspect=fixed;container=0;" vertex="1" parent="OeXCMGSgX0iGmx0cAqVo-1">
          <mxGeometry x="475.9764" y="225.35500000000138" width="22.047199999999997" height="22.05" as="geometry" />
        </mxCell>
        <mxCell id="jVQFfvSJNSyhb4Hxbe7O-18" value="&lt;b&gt;&lt;font color=&quot;#ffffff&quot;&gt;2&lt;br&gt;&lt;/font&gt;&lt;/b&gt;" style="rounded=1;whiteSpace=wrap;html=1;fillColor=#000000;strokeColor=#FFFFFF;fontColor=#161513;fontFamily=Calibri;labelBackgroundColor=none;align=center;arcSize=50;verticalAlign=middle;aspect=fixed;container=0;" vertex="1" parent="OeXCMGSgX0iGmx0cAqVo-1">
          <mxGeometry x="34.4764" y="228.35500000000138" width="22.047199999999997" height="22.05" as="geometry" />
        </mxCell>
        <mxCell id="jVQFfvSJNSyhb4Hxbe7O-19" value="Quelle" style="text;strokeColor=none;align=center;fillColor=none;verticalAlign=middle;whiteSpace=wrap;rounded=0;spacing=0;rotation=0;html=1;fontColor=#000000;container=0;" vertex="1" parent="OeXCMGSgX0iGmx0cAqVo-1">
          <mxGeometry x="25.815" y="206.99874999999793" width="39.37" height="28.3464" as="geometry" />
        </mxCell>
        <mxCell id="jVQFfvSJNSyhb4Hxbe7O-20" value="&lt;b&gt;&lt;font&gt;CNP&lt;/font&gt;&lt;/b&gt;" style="whiteSpace=wrap;html=1;align=center;fontFamily=Calibri;verticalAlign=top;fillColor=#F5F4F2;rounded=1;arcSize=10;strokeColor=#9E9892;fontColor=#312D2A;fontSize=12;container=0;" vertex="1" parent="OeXCMGSgX0iGmx0cAqVo-1">
          <mxGeometry x="221.42050000000017" y="134" width="77.72" height="86" as="geometry" />
        </mxCell>
        <mxCell id="jVQFfvSJNSyhb4Hxbe7O-21" value="" style="shape=image;verticalLabelPosition=bottom;verticalAlign=top;imageAspect=0;aspect=fixed;image=data:image/svg+xml,PHN2ZyB4bWxucz0iaHR0cDovL3d3dy53My5vcmcvMjAwMC9zdmciIHZpZXdCb3g9IjAgMCA0Mi4wNCA0MiIgZGF0YS1uYW1lPSJMYXllciAxIiBpZD0iTGF5ZXJfMSI+PG1ldGFkYXRhPiYjeGE7JiN4YTsgICAmI3hhOyAgICAgICYjeGE7ICAgICAgICAgJiN4YTsgICAgICAgICAgICAmI3hhOyAgICAgICAgICAgICAgIGljb24mI3hhOyAgICAgICAgICAgICAgIHNlcnZpY2UmI3hhOyAgICAgICAgICAgICAgIGludGVybmV0JiN4YTsgICAgICAgICAgICAgICB3d3cmI3hhOyAgICAgICAgICAgICAgIGNvbm5lY3Rpdml0eSYjeGE7ICAgICAgICAgICAgICAgY29tbXVuaWNhdGlvbiYjeGE7ICAgICAgICAgICAgJiN4YTsgICAgICAgICAmI3hhOyAgICAgICAgIDIwMjItMTEtMTBUMTc6MDk6MzAtMDY6MDAmI3hhOyAgICAgICAgIHhtcC5paWQ6NmFmNTE2NDEtZmI1ZC00ZjYzLWJkMTctM2M4ZDMzNDI4ZDkwJiN4YTsgICAgICAgICB4bXAuZGlkOjZhZjUxNjQxLWZiNWQtNGY2My1iZDE3LTNjOGQzMzQyOGQ5MCYjeGE7ICAgICAgICAgeG1wLmRpZDo2YWY1MTY0MS1mYjVkLTRmNjMtYmQxNy0zYzhkMzM0MjhkOTAmI3hhOyAgICAgICAgICYjeGE7ICAgICAgICAgICAgJiN4YTsgICAgICAgICAgICAgICAmI3hhOyAgICAgICAgICAgICAgICAgICYjeGE7ICAgICAgICAgICAgICAgICAgICAgc2F2ZWQmI3hhOyAgICAgICAgICAgICAgICAgICAgIHhtcC5paWQ6NmFmNTE2NDEtZmI1ZC00ZjYzLWJkMTctM2M4ZDMzNDI4ZDkwJiN4YTsgICAgICAgICAgICAgICAgICAgICAyMDIyLTExLTEwVDE3OjA5OjMwLTA2OjAwJiN4YTsgICAgICAgICAgICAgICAgICAgICBBZG9iZSBCcmlkZ2UgMjAyMSAoTWFjaW50b3NoKSYjeGE7ICAgICAgICAgICAgICAgICAgICAgL21ldGFkYXRhJiN4YTsgICAgICAgICAgICAgICAgICAmI3hhOyAgICAgICAgICAgICAgICYjeGE7ICAgICAgICAgICAgJiN4YTsgICAgICAgICAmI3hhOyAgICAgICYjeGE7ICAgJiN4YTsmI3hhOyAgICAgICAgICAgICAgICAgICAgICAgICAgICAgICAgICAgICAgICAgICAgICAgICAgICAgICAgICAgICAgICAgICAgICAgICAgICAgICAgICAgICAgICAgICAgICAgICAgICAmI3hhOyAgICAgICAgICAgICAgICAgICAgICAgICAgICAgICAgICAgICAgICAgICAgICAgICAgICAgICAgICAgICAgICAgICAgICAgICAgICAgICAgICAgICAgICAgICAgICAgICAgICAmI3hhOyAgICAgICAgICAgICAgICAgICAgICAgICAgICAgICAgICAgICAgICAgICAgICAgICAgICAgICAgICAgICAgICAgICAgICAgICAgICAgICAgICAgICAgICAgICAgICAgICAgICAmI3hhOyAgICAgICAgICAgICAgICAgICAgICAgICAgICAgICAgICAgICAgICAgICAgICAgICAgICAgICAgICAgICAgICAgICAgICAgICAgICAgICAgICAgICAgICAgICAgICAgICAgICAmI3hhOyAgICAgICAgICAgICAgICAgICAgICAgICAgICAgICAgICAgICAgICAgICAgICAgICAgICAgICAgICAgICAgICAgICAgICAgICAgICAgICAgICAgICAgICAgICAgICAgICAgICAmI3hhOyAgICAgICAgICAgICAgICAgICAgICAgICAgICAgICAgICAgICAgICAgICAgICAgICAgICAgICAgICAgICAgICAgICAgICAgICAgICAgICAgICAgICAgICAgICAgICAgICAgICAmI3hhOyAgICAgICAgICAgICAgICAgICAgICAgICAgICAgICAgICAgICAgICAgICAgICAgICAgICAgICAgICAgICAgICAgICAgICAgICAgICAgICAgICAgICAgICAgICAgICAgICAgICAmI3hhOyAgICAgICAgICAgICAgICAgICAgICAgICAgICAgICAgICAgICAgICAgICAgICAgICAgICAgICAgICAgICAgICAgICAgICAgICAgICAgICAgICAgICAgICAgICAgICAgICAgICAmI3hhOyAgICAgICAgICAgICAgICAgICAgICAgICAgICAgICAgICAgICAgICAgICAgICAgICAgICAgICAgICAgICAgICAgICAgICAgICAgICAgICAgICAgICAgICAgICAgICAgICAgICAmI3hhOyAgICAgICAgICAgICAgICAgICAgICAgICAgICAgICAgICAgICAgICAgICAgICAgICAgICAgICAgICAgICAgICAgICAgICAgICAgICAgICAgICAgICAgICAgICAgICAgICAgICAmI3hhOyAgICAgICAgICAgICAgICAgICAgICAgICAgICAgICAgICAgICAgICAgICAgICAgICAgICAgICAgICAgICAgICAgICAgICAgICAgICAgICAgICAgICAgICAgICAgICAgICAgICAmI3hhOyAgICAgICAgICAgICAgICAgICAgICAgICAgICAgICAgICAgICAgICAgICAgICAgICAgICAgICAgICAgICAgICAgICAgICAgICAgICAgICAgICAgICAgICAgICAgICAgICAgICAmI3hhOyAgICAgICAgICAgICAgICAgICAgICAgICAgICAgICAgICAgICAgICAgICAgICAgICAgICAgICAgICAgICAgICAgICAgICAgICAgICAgICAgICAgICAgICAgICAgICAgICAgICAmI3hhOyAgICAgICAgICAgICAgICAgICAgICAgICAgICAgICAgICAgICAgICAgICAgICAgICAgICAgICAgICAgICAgICAgICAgICAgICAgICAgICAgICAgICAgICAgICAgICAgICAgICAmI3hhOyAgICAgICAgICAgICAgICAgICAgICAgICAgICAgICAgICAgICAgICAgICAgICAgICAgICAgICAgICAgICAgICAgICAgICAgICAgICAgICAgICAgICAgICAgICAgICAgICAgICAmI3hhOyAgICAgICAgICAgICAgICAgICAgICAgICAgICAgICAgICAgICAgICAgICAgICAgICAgICAgICAgICAgICAgICAgICAgICAgICAgICAgICAgICAgICAgICAgICAgICAgICAgICAmI3hhOyAgICAgICAgICAgICAgICAgICAgICAgICAgICAgICAgICAgICAgICAgICAgICAgICAgICAgICAgICAgICAgICAgICAgICAgICAgICAgICAgICAgICAgICAgICAgICAgICAgICAmI3hhOyAgICAgICAgICAgICAgICAgICAgICAgICAgICAgICAgICAgICAgICAgICAgICAgICAgICAgICAgICAgICAgICAgICAgICAgICAgICAgICAgICAgICAgICAgICAgICAgICAgICAmI3hhOyAgICAgICAgICAgICAgICAgICAgICAgICAgICAgICAgICAgICAgICAgICAgICAgICAgICAgICAgICAgICAgICAgICAgICAgICAgICAgICAgICAgICAgICAgICAgICAgICAgICAmI3hhOyAgICAgICAgICAgICAgICAgICAgICAgICAgICAgICAgICAgICAgICAgICAgICAgICAgICAgICAgICAgICAgICAgICAgICAgICAgICAgICAgICAgICAgICAgICAgICAgICAgICAmI3hhOyAgICAgICAgICAgICAgICAgICAgICAgICAgICYjeGE7PC9tZXRhZGF0YT4mI3hhOzxwYXRoIGZpbGw9IiNmZmYiIGQ9Ik0yMSw0MS41YTkuMjUsOS4yNSwwLDAsMS05LjI1LTkuMjIsOSw5LDAsMCwxLDEuNDctNWwtLjQ3LS4wOGE5LDksMCwwLDEtMi41NC0xLjA2LDcuNzMsNy43MywwLDAsMS0xLjg1LjIyQTcuODcsNy44NywwLDAsMSw2LDExLDguNDgsOC40OCwwLDAsMSwxNC4zNCwzLjdhNy42MSw3LjYxLDAsMCwxLDEuMjUuMUExMy40MiwxMy40MiwwLDAsMSwyNC40MS41LDEzLjU2LDEzLjU2LDAsMCwxLDM3LjcyLDExLjc5YTcuODcsNy44NywwLDAsMS00LjA2LDE0LjYyLDcuNzIsNy43MiwwLDAsMS0yLjg1LS41NEExMy45MywxMy45MywwLDAsMSwyOSwyNi43bC0uNDguMTZhOS4xMyw5LjEzLDAsMCwxLDEuNzksNS40MkE5LjI1LDkuMjUsMCwwLDEsMjEsNDEuNVoiLz48cGF0aCBmaWxsPSIjZmZmIiBkPSJNMjQuNDEsMUExMywxMywwLDAsMSwzNy4yNywxMi4xMWE3LjM3LDcuMzcsMCwwLDEtNi40OSwxMy4yMSwxMy43LDEzLjcsMCwwLDEtMiwuOTFzLS40MS4xNS0xLjE3LjM1YTguNzMsOC43MywwLDEsMS0xNS4zNSw1LjdBOC42LDguNiwwLDAsMSwxNC4xMiwyN2wtMS4yNi0uMjFhOC4zNSw4LjM1LDAsMCwxLTIuNTUtMS4xQTcuMzcsNy4zNywwLDEsMSw2LjQ1LDExLjQyLDgsOCwwLDAsMSwxNC4zNCw0LjJhNy40NSw3LjQ1LDAsMCwxLDEuNC4xM0ExMi45MywxMi45MywwLDAsMSwyNC40MSwxbTAtMWExNCwxNCwwLDAsMC05LDMuMjcsMTAuMTMsMTAuMTMsMCwwLDAtMS4wOS0uMDcsOSw5LDAsMCwwLTguOCw3LjQ2QTguMzcsOC4zNywwLDAsMCw4LjM4LDI2LjkxYTgsOCwwLDAsMCwxLjc2LS4xOSw5LjcyLDkuNzIsMCwwLDAsMi4zMSwxLDkuNDYsOS40NiwwLDAsMC0xLjE4LDQuNiw5Ljc1LDkuNzUsMCwwLDAsMTkuNSwwLDkuNjIsOS42MiwwLDAsMC0xLjUxLTUuMTYsMTMuMDksMTMuMDksMCwwLDAsMS41OC0uNyw4LjIsOC4yLDAsMCwwLDIuODIuNDksOC4zNyw4LjM3LDAsMCwwLDQuNTItMTUuNDJBMTQuMDcsMTQuMDcsMCwwLDAsMjQuNDEsMFoiLz48cGF0aCBmaWxsPSJub25lIiBkPSJNMTcuMzIsMzEuNTRhMTMsMTMsMCwwLDEsMS4yMi00Ljg1LDEyLjYsMTIuNiwwLDAsMSwuOC0xLjQ0LDcuMjcsNy4yNywwLDAsMC01LjU1LDYuMjloMy41M1oiLz48cGF0aCBmaWxsPSJub25lIiBkPSJNMTguODIsMzNhMTEuNDcsMTEuNDcsMCwwLDAsMS43Niw1LjM1Yy4xNC4yMS4yOC40My40NC42NC4xNS0uMjEuMy0uNDMuNDMtLjY0QTExLjQ4LDExLjQ4LDAsMCwwLDIzLjIyLDMzWiIvPjxwYXRoIGZpbGw9Im5vbmUiIGQ9Ik0yMy4yMiwzMS41NGExMS4zOSwxMS4zOSwwLDAsMC0xLjY5LTUuMzVjLS4xNi0uMjYtLjMzLS41MS0uNTEtLjc2LS4xOC4yNS0uMzUuNS0uNTIuNzZhMTEuNjIsMTEuNjIsMCwwLDAtMS42OSw1LjM1WiIvPjxwYXRoIGZpbGw9Im5vbmUiIGQ9Ik0yMi41MSwxMS4yMUExLjQ5LDEuNDksMCwxLDAsMjEsMTIuNywxLjQ5LDEuNDksMCwwLDAsMjIuNTEsMTEuMjFaIi8+PHBhdGggZmlsbD0ibm9uZSIgZD0iTTEzLjM4LDE2LjA1YTEuNDksMS40OSwwLDEsMCwxLjQ5LDEuNDlBMS40OSwxLjQ5LDAsMCwwLDEzLjM4LDE2LjA1WiIvPjxwYXRoIGZpbGw9Im5vbmUiIGQ9Ik0yOC42NSwxOWExLjQ5LDEuNDksMCwxLDAtMS40OS0xLjQ5QTEuNDksMS40OSwwLDAsMCwyOC42NSwxOVoiLz48cGF0aCBmaWxsPSJub25lIiBkPSJNMjIuNywyNS4yNWExMi41MywxMi41MywwLDAsMSwuNzksMS40NCwxMi44NiwxMi44NiwwLDAsMSwxLjIzLDQuODVoMy41MkE3LjI2LDcuMjYsMCwwLDAsMjIuNywyNS4yNVoiLz48cGF0aCBmaWxsPSJub25lIiBkPSJNMTcuMzMsMzNIMTMuNzlhNy4yNyw3LjI3LDAsMCwwLDUuNjQsNi4zLDExLjg3LDExLjg3LDAsMCwxLS44Mi0xLjQyQTEyLjg5LDEyLjg5LDAsMCwxLDE3LjMzLDMzWiIvPjxwYXRoIGZpbGw9Im5vbmUiIGQ9Ik0yNC43MSwzM2ExMy4wOSwxMy4wOSwwLDAsMS0xLjI5LDQuODgsMTMuMzEsMTMuMzEsMCwwLDEtLjgxLDEuNDJBNy4yNiw3LjI2LDAsMCwwLDI4LjI0LDMzSDI0LjcxWiIvPjxwYXRoIGZpbGw9IiMyYzU5NjciIGQ9Ik0zNy4yNywxMi4xMUExMywxMywwLDAsMCwxNS43NCw0LjMzYTcuNDUsNy40NSwwLDAsMC0xLjQtLjEzLDgsOCwwLDAsMC03Ljg5LDcuMjIsNy4zNyw3LjM3LDAsMSwwLDMuODYsMTQuMjMsOC4zNSw4LjM1LDAsMCwwLDIuNTUsMS4xLDkuNjQsOS42NCwwLDAsMSwxLjA4LTEuMzEsNyw3LDAsMCwxLTMuMDgtMS4yMWwtLjMtLjIyLS4zNi4xMmE2LDYsMCwwLDEtMS44Mi4yOUE1Ljg4LDUuODgsMCwwLDEsNy4zLDEyLjc1bC42LS4xMVYxMmE2LjQ3LDYuNDcsMCwwLDEsNi40NC02LjM0LDYuNjYsNi42NiwwLDAsMSwxLjQ1LjE3bC40LjA5LjI5LS4yN2ExMS40OSwxMS40OSwwLDAsMSwxOS4zNiw3bDAsLjQuMzcuMThhNS44OCw1Ljg4LDAsMCwxLTIuNTksMTEuMTcsNS44LDUuOCwwLDAsMS0yLjYtLjYxbC0uMzYtLjE4LS4zNS4yMUExMS40OCwxMS40OCwwLDAsMSwyNy42NywyNWE5Ljc3LDkuNzcsMCwwLDEsMS4xMiwxLjIsMTMuNywxMy43LDAsMCwwLDItLjkxLDcuMjcsNy4yNywwLDAsMCwyLjg4LjU5LDcuMzcsNy4zNywwLDAsMCwzLjYxLTEzLjhaIi8+PHBhdGggZmlsbD0iIzJjNTk2NyIgZD0iTTI0LjM3LDI0LjIzVjE4LjI4aDEuNGEzLDMsMCwxLDAsMC0xLjQ5SDIyLjg4djdhMTAuMDYsMTAuMDYsMCwwLDAtMS4xMi0uMTZWMTQuMDlhMywzLDAsMSwwLTEuNDksMFYyMy42YTkuODgsOS44OCwwLDAsMC0xLjExLjE2di03aC0yLjlhMywzLDAsMSwwLDAsMS40OWgxLjQxdjUuOTVhOC43NSw4Ljc1LDAsMSwwLDYuNywwWm00LjI4LTguMThhMS40OSwxLjQ5LDAsMSwxLTEuNDksMS40OUExLjQ5LDEuNDksMCwwLDEsMjguNjUsMTYuMDVaTTEzLjM4LDE5YTEuNDksMS40OSwwLDEsMSwxLjQ5LTEuNDlBMS40OSwxLjQ5LDAsMCwxLDEzLjM4LDE5Wm02LjE1LTcuODJBMS40OSwxLjQ5LDAsMSwxLDIxLDEyLjcsMS40OSwxLjQ5LDAsMCwxLDE5LjUzLDExLjIxWm0xLDE1Yy4xNy0uMjYuMzQtLjUxLjUyLS43Ni4xOC4yNS4zNS41LjUxLjc2YTExLjM5LDExLjM5LDAsMCwxLDEuNjksNS4zNUgxOC44MUExMS42MiwxMS42MiwwLDAsMSwyMC41LDI2LjE5Wk0yMSwzOWMtLjE2LS4yMS0uMy0uNDMtLjQ0LS42NEExMS40NywxMS40NywwLDAsMSwxOC44MiwzM2g0LjRhMTEuNDgsMTEuNDgsMCwwLDEtMS43Nyw1LjM1QzIxLjMyLDM4LjU5LDIxLjE3LDM4LjgxLDIxLDM5Wk0xOS4zNCwyNS4yNWExMi42LDEyLjYsMCwwLDAtLjgsMS40NCwxMywxMywwLDAsMC0xLjIyLDQuODVIMTMuNzlBNy4yNyw3LjI3LDAsMCwxLDE5LjM0LDI1LjI1Wk0xMy43OSwzM2gzLjU0YTEyLjg5LDEyLjg5LDAsMCwwLDEuMjgsNC44OCwxMS44NywxMS44NywwLDAsMCwuODIsMS40MkE3LjI3LDcuMjcsMCwwLDEsMTMuNzksMzNabTguODIsNi4zYTEzLjMxLDEzLjMxLDAsMCwwLC44MS0xLjQyQTEzLjA5LDEzLjA5LDAsMCwwLDI0LjcxLDMzaDMuNTNBNy4yNiw3LjI2LDAsMCwxLDIyLjYxLDM5LjMzWm00LjUxLTcuNzloLTIuNGExMi44NiwxMi44NiwwLDAsMC0xLjIzLTQuODUsMTIuNTMsMTIuNTMsMCwwLDAtLjc5LTEuNDQsNy4yNiw3LjI2LDAsMCwxLDUuNTQsNi4yOVoiLz48L3N2Zz4=;container=0;" vertex="1" parent="OeXCMGSgX0iGmx0cAqVo-1">
          <mxGeometry x="239.2805000000002" y="169" width="42" height="42" as="geometry" />
        </mxCell>
        <mxCell id="jVQFfvSJNSyhb4Hxbe7O-22" value="" style="shape=image;verticalLabelPosition=bottom;verticalAlign=top;imageAspect=0;aspect=fixed;image=data:image/svg+xml,PHN2ZyB4bWxucz0iaHR0cDovL3d3dy53My5vcmcvMjAwMC9zdmciIHZpZXdCb3g9IjAgMCA0My4xOCA0MiIgZGF0YS1uYW1lPSJMYXllciAxIiBpZD0iTGF5ZXJfMSI+JiN4YTsgICAgPGRlZnM+JiN4YTsgICAgICAgIDxzdHlsZT4mI3hhOyAgICAgICAgICAgIC5jbHMtMXtmaWxsOiNmZmZ9LmNscy0ye2ZpbGw6IzJjNTk2N30mI3hhOyAgICAgICAgPC9zdHlsZT4mI3hhOyAgICA8L2RlZnM+JiN4YTsgICAgPHBhdGggZD0iTTM4LjA5IDQxLjVhNC41OSA0LjU5IDAgMCAxLTEuMjUtOXYtMi40M0gyNGEyLjY5IDIuNjkgMCAwIDEtMS4xOCAxLjE4djEuMjVhNC41OSA0LjU5IDAgMSAxLTIuNDkgMHYtMS4yNWEyLjY5IDIuNjkgMCAwIDEtMS4xOC0xLjE4SDYuMzl2Mi40NGE0LjU5IDQuNTkgMCAxIDEtMi40OSAwdi00LjloMTUuMjdhMi43NyAyLjc3IDAgMCAxIDEuMTgtMS4xOXYtMS41OUg2LjQyVjIuNWEyIDIgMCAwIDEgMi0ySDE2YTIgMiAwIDAgMSAxLjYxLjgxTDE5IDMuMjRoMTUuNzhhMiAyIDAgMCAxIDIgMnYxOS41OUgyMi44NHYxLjU2QTIuNzcgMi43NyAwIDAgMSAyNCAyNy41OGgxNS4zM3Y0LjkyYTQuNTggNC41OCAwIDAgMS0xLjI0IDlaIiBjbGFzcz0iY2xzLTEiLz4mI3hhOyAgICA8cGF0aCBkPSJNMTYgMWExLjUxIDEuNTEgMCAwIDEgMS4yMS42MWwxLjU5IDIuMTNoMTZhMS41MSAxLjUxIDAgMCAxIDEuNSAxLjV2MTkuMDlIMjIuMzR2Mi4zOWEyLjI5IDIuMjkgMCAwIDEgMS4zNiAxLjM2aDE1LjEzdjQuODFhNC4wOSA0LjA5IDAgMSAxLTEuNDggMHYtMy4zMkgyMy43YTIuMjQgMi4yNCAwIDAgMS0xLjM2IDEuMzV2MmE0LjA5IDQuMDkgMCAxIDEtMS40OSAwdi0yYTIuMiAyLjIgMCAwIDEtMS4zNS0xLjM1SDUuODl2My4zM2E0LjA5IDQuMDkgMCAxIDEtMS40OSAwdi00LjhoMTUuMWEyLjI0IDIuMjQgMCAwIDEgMS4zNS0xLjM2di0yLjQxSDYuOTJWMi41QTEuNSAxLjUgMCAwIDEgOC40MiAxSDE2bTAtMUg4LjQyYTIuNSAyLjUgMCAwIDAtMi41IDIuNXYyMi44M2gxMy45M3YuNzhhMy4yMSAzLjIxIDAgMCAwLTEgMUgzLjR2NWE1LjA5IDUuMDkgMCAxIDAgMy40OSAwdi0xLjU0aDEyYTMuMjEgMy4yMSAwIDAgMCAxIDF2LjU5YTUuMDkgNS4wOSAwIDEgMCAzLjQ5IDB2LS41OWEzLjIxIDMuMjEgMCAwIDAgMS0xaDEydjEuNTZhNS4wOSA1LjA5IDAgMSAwIDMuNDggMHYtNS4wNUgyNC4zMWEzLjIxIDMuMjEgMCAwIDAtMS0xdi0uNzhoMTMuOTdWNS4yNGEyLjUxIDIuNTEgMCAwIDAtMi41LTIuNUgxOS4yNkwxOCAxYTIuNTIgMi41MiAwIDAgMC0yLTFaIiBjbGFzcz0iY2xzLTEiLz4mI3hhOyAgICA8cGF0aCBkPSJNMzguODMgMzIuODl2LTQuODFIMjMuN2EyLjI5IDIuMjkgMCAwIDAtMS4zNi0xLjM2di0yLjM5aDEzLjk0VjUuMjRhMS41MSAxLjUxIDAgMCAwLTEuNS0xLjVoLTE2bC0xLjYxLTIuMTNBMS41MSAxLjUxIDAgMCAwIDE2IDFIOC40MmExLjUxIDEuNTEgMCAwIDAtMS41MSAxLjV2MjEuODNoMTMuOTR2Mi4zOWEyLjI0IDIuMjQgMCAwIDAtMS4zNSAxLjM2SDQuNHY0LjhhNC4wOSA0LjA5IDAgMSAwIDEuNDkgMHYtMy4zMUgxOS41YTIuMiAyLjIgMCAwIDAgMS4zNSAxLjM1djJhNC4wOSA0LjA5IDAgMSAwIDEuNDkgMHYtMmEyLjI0IDIuMjQgMCAwIDAgMS4zNi0xLjM1aDEzLjY1djMuMzJhNC4wOSA0LjA5IDAgMSAwIDEuNDggMFpNOC40IDIuNUgxNmwyIDIuNzRoMTYuNzl2MTcuNjFIOC40Wk0yLjQ5IDM2LjkxYTIuNiAyLjYgMCAxIDEgMi42IDIuNiAyLjYgMi42IDAgMCAxLTIuNi0yLjZabTE5LjExLTcuMzRhLjc2Ljc2IDAgMCAxLS43NS0uNzUuNzUuNzUgMCAwIDEgLjc1LS43NC43NC43NCAwIDAgMSAuNzQuNzQuNzUuNzUgMCAwIDEtLjc0Ljc1Wm0wIDkuOTRhMi42IDIuNiAwIDEgMSAyLjYtMi42IDIuNiAyLjYgMCAwIDEtMi42IDIuNlptMTMuODktMi42YTIuNiAyLjYgMCAxIDEgMi42IDIuNiAyLjYgMi42IDAgMCAxLTIuNi0yLjZaIiBjbGFzcz0iY2xzLTIiLz4mI3hhOyAgICA8cGF0aCBkPSJNMjguNjYgMTguMjhWOS43YTIgMiAwIDAgMC0xLjEzLTEuNTMgOC40MSA4LjQxIDAgMCAwLTIuNjItLjg5QTE3LjI5IDE3LjI5IDAgMCAwIDIxLjYgN2ExNy41IDE3LjUgMCAwIDAtMy4zNC4zIDguMDggOC4wOCAwIDAgMC0yLjY0LjkzIDEuOTMgMS45MyAwIDAgMC0xLjA4IDEuNnY4LjQ2YTEuOTEgMS45MSAwIDAgMCAxLjA4IDEuNTkgNy44NCA3Ljg0IDAgMCAwIDIuNjQuOTQgMTcuNSAxNy41IDAgMCAwIDMuMzQuMyAxNy41IDE3LjUgMCAwIDAgMy4zNC0uMyA3Ljg0IDcuODQgMCAwIDAgMi42NC0uOTQgMS45MSAxLjkxIDAgMCAwIDEuMDgtMS42Wk0xNiA5Ljc4YzAtLjEuMTUtLjIyLjQtLjM3QTUuMTcgNS4xNyAwIDAgMSAxNy41MiA5YTEwLjQxIDEwLjQxIDAgMCAxIDEuNzYtLjM5IDE3Ljg3IDE3Ljg3IDAgMCAxIDIuMzgtLjE1IDE2Ljg5IDE2Ljg5IDAgMCAxIDIuNDQuMTcgMTAuNDQgMTAuNDQgMCAwIDEgMS43OC4zNyA1LjIyIDUuMjIgMCAwIDEgMS4xMi40NGMuMjMuMTUuMzUuMjcuMzUuMzhzLS4xMi4yMi0uMzUuMzdhNC43MyA0LjczIDAgMCAxLTEuMDcuNDcgMTAuNDQgMTAuNDQgMCAwIDEtMS43OC4zOSAxNS41OCAxNS41OCAwIDAgMS0yLjQ0LjE3IDE1LjQ1IDE1LjQ1IDAgMCAxLTIuNDMtLjE3IDEwLjQ0IDEwLjQ0IDAgMCAxLTEuNzgtLjM5IDQuNzMgNC43MyAwIDAgMS0xLjA3LS40N2MtLjI5LS4xOS0uNDMtLjI3LS40My0uMzdabS0uMTkgMS44YTkuMTggOS4xOCAwIDAgMCAyLjU3LjggMTcuODMgMTcuODMgMCAwIDAgMy4xLjI2aDEuMjRsLjkyLS4wN2MuMjYgMCAuNTEtLjA3Ljc2LS4xMmwuOTEtLjE3LjI1LS4wN0EzLjE3IDMuMTcgMCAwIDAgMjYgMTJsLjQ4LS4xNS41Mi0uMTVoLjA3bC4xNS0uMDl2Mi40N2MwIC4xLS4xMS4yMy0uMzUuMzhhNC43MyA0LjczIDAgMCAxLTEuMDcuNDcgMTAuNzkgMTAuNzkgMCAwIDEtMS43OS4zOSAxNS43NiAxNS43NiAwIDAgMS0yLjQ1LjE4IDE1LjY2IDE1LjY2IDAgMCAxLTIuNDUtLjE4IDEwLjU3IDEwLjU3IDAgMCAxLTEuNzktLjM5IDQuNzMgNC43MyAwIDAgMS0xLjA3LS40N2MtLjI0LS4xNS0uMzYtLjI4LS4zNi0uMzhabTUuNjcgOGExNyAxNyAwIDAgMS0yLjQ1LS4xNyAxMC41NyAxMC41NyAwIDAgMS0xLjc5LS4zOSA1LjE5IDUuMTkgMCAwIDEtMS4wNy0uNDhjLS4yNC0uMTQtLjM2LS4yNy0uMzYtLjM3di0yLjRhOC41OCA4LjU4IDAgMCAwIDIuNTcuNzkgMTcuODMgMTcuODMgMCAwIDAgMy4xLjI2aC43MUExNi45NCAxNi45NCAwIDAgMCAyNSAxNi42YTcuMzggNy4zOCAwIDAgMCAyLjE3LS43djIuMzJjMCAuMS0uMTEuMjMtLjM1LjM3YTUuMTkgNS4xOSAwIDAgMS0xLjA3LjQ4IDEwLjc5IDEwLjc5IDAgMCAxLTEuNzkuMzkgMTcuMTQgMTcuMTQgMCAwIDEtMi40NS4xN1oiIGNsYXNzPSJjbHMtMiIvPiYjeGE7PC9zdmc+" vertex="1" parent="OeXCMGSgX0iGmx0cAqVo-1">
          <mxGeometry x="24" y="169" width="43" height="42" as="geometry" />
        </mxCell>
        <mxCell id="jVQFfvSJNSyhb4Hxbe7O-23" value="" style="shape=image;verticalLabelPosition=bottom;labelBackgroundColor=default;verticalAlign=top;aspect=fixed;imageAspect=0;image=data:image/svg+xml,PHN2ZyB4bWxucz0iaHR0cDovL3d3dy53My5vcmcvMjAwMC9zdmciIHhtbDpzcGFjZT0icHJlc2VydmUiIHN0eWxlPSJlbmFibGUtYmFja2dyb3VuZDpuZXcgMCAwIDQyLjk5IDQyIiB2aWV3Qm94PSIwIDAgNDIuOTkgNDIiIHk9IjAiIHg9IjAiIGlkPSJMYXllcl8xIiB2ZXJzaW9uPSIxLjEiPiYjeGE7ICAgIDxzdHlsZT4mI3hhOyAgICAgICAgLnN0MHtmaWxsOiNmZmZ9LnN0MXtmaWxsOm5vbmV9LnN0MntmaWxsOiMyYzU5Njd9JiN4YTsgICAgPC9zdHlsZT4mI3hhOyAgICA8cGF0aCBkPSJtMTAgNDEuNS0xLjg4LS45NFYyNS44M0g1LjQ4bDIuMzMgMi4zMy0xLjc2IDEuNzYtNS4zNC01LjM0IDUuMzQtNS4zNEw3LjgxIDIxbC0yLjMzIDIuMzNoMi42NVYxMS41OWgzLjczdi0xLjMxYzAtNS4yMSA0LjAxLTkuNSA5LjEzLTkuNzYuMTctLjAyLjM0LS4wMi41MS0uMDIgMi40OCAwIDQuODMuOTQgNi42MyAyLjY1IDEuOTQgMS44NCAzIDQuMzIgMyA2Ljk5djEuNDVoMy43M3YxMS43NWgyLjY1bC0yLjMzLTIuMzMgMS43Ni0xLjc2IDUuMzQgNS4zNC01LjM0IDUuMzQtMS43Ni0xLjc2IDIuMzMtMi4zM2gtMi42NXYxNC43M2wtMS44OC45NEgxMHoiIGNsYXNzPSJzdDAiLz4mI3hhOyAgICA8cGF0aCBkPSJNMjEuNSAxYzIuMzUgMCA0LjU3Ljg4IDYuMjggMi41MWE5LjA0NSA5LjA0NSAwIDAgMSAyLjg1IDYuNjN2MS45NWgzLjczdjExLjc1aDQuMzVsLTIuODMtMi44MyAxLjA2LTEuMDYgNC42MyA0LjYzLTQuNjMgNC42My0xLjA2LTEuMDYgMi44My0yLjgzaC00LjM1djE0LjkybC0xLjQ5Ljc2SDEwLjEybC0xLjUtLjc1VjI1LjMzSDQuMjdsMi44MyAyLjgzLTEuMDYgMS4wNi00LjYzLTQuNjMgNC42My00LjYzIDEuMDYgMS4wNi0yLjgzIDIuODNoNC4zNVYxMi4wOWgzLjczdi0xLjgxYzAtNC45NCAzLjgtOS4wMSA4LjY2LTkuMjYuMTctLjAyLjMzLS4wMi40OS0uMDJtMC0xYy0uMTggMC0uMzYgMC0uNTQuMDEtNS4zOS4yOC05LjYgNC43OS05LjYgMTAuMjZ2LjgxSDcuNjJ2OS4wM2wtLjg3LS44Ny0uNzEtLjcxLS43MS43MUwuNyAyMy44N2wtLjcuNzIuNzEuNzEgNC42MyA0LjYzLjcxLjcxLjcxLS43MS44Ny0uODdWNDAuODhsLjU1LjI4IDEuNS43NS4yLjA5aDIzLjI0bC4yMS0uMTEgMS41LS43NS41NS0uMjhWMjkuMDRsLjg3Ljg3LjcxLjcxLjcxLS43MSA0LjYzLTQuNjMuNzEtLjcxLS43MS0uNzEtNC42My00LjYzLS43MS0uNzEtLjcxLjcxLS44Ny44N3YtOS4wM2gtMy43M3YtLjk1YzAtMi44MS0xLjEyLTUuNDItMy4xNi03LjM1QTEwLjIxIDEwLjIxIDAgMCAwIDIxLjUgMHptMTMuODcgMjIuODR2LS45NGwuOTQuOTRoLS45NHptLTI4LjY5IDAgLjk0LS45NHYuOTRoLS45NHptMjguNjkgMy40OWguOTRsLS45NC45NHYtLjk0em0tMjguNjkgMGguOTR2Ljk0bC0uOTQtLjk0eiIgY2xhc3M9InN0MCIvPiYjeGE7ICAgIDxwYXRoIGQ9Ik0yMS4zNiA1LjFjLTIuNy4wNy00LjkgMi4zOS00LjkgNS4xNnYxLjgyaDEwLjA3di0xLjk1YzAtMS4zNy0uNTQtMi42NS0xLjUyLTMuNjFhNS4wMyA1LjAzIDAgMCAwLTMuNjUtMS40MnoiIGNsYXNzPSJzdDEiLz4mI3hhOyAgICA8cGF0aCBkPSJNMTQuOTcgMTAuMjZjMC0zLjU4IDIuODUtNi41NyA2LjM2LTYuNjYgMS43OC0uMDUgMy40Ni42MSA0LjczIDEuODVhNi40ODYgNi40ODYgMCAwIDEgMS45NyA0LjY4djEuOTVoMS4xMnYtMS45NWMwLTIuMTItLjg1LTQuMDktMi4zOC01LjU1YTcuNTg2IDcuNTg2IDAgMCAwLTUuNjctMi4wOWMtNC4wNi4yMS03LjI0IDMuNjItNy4yNCA3Ljc3djEuODFoMS4xMnYtMS44MXpNMTAuMTIgMjMuODRoMS40OXYxLjQ5aC0xLjQ5VjM2LjloMjIuNzZWMjUuMzNoLTEuNDl2LTEuNDloMS40OVYxMy41OEgxMC4xMnYxMC4yNnptMTguNjUgMGgxLjQ5djEuNDloLTEuNDl2LTEuNDl6bS0yLjYxIDBoMS40OXYxLjQ5aC0xLjQ5di0xLjQ5em0tNy43OC4xOWEzLjEzOCAzLjEzOCAwIDAgMSAyLjU1LTIuNTNjMi0uMzUgMy43NCAxLjE5IDMuNzQgMy4xMiAwIDEuMi0uNjcgMi4yNC0xLjY1IDIuNzhsLjU5IDQuMDloLTQuMjNsLjYzLTQuMDdhMy4xNjkgMy4xNjkgMCAwIDEtMS42My0zLjM5em0tMy4wNC0uMTloMS40OXYxLjQ5aC0xLjQ5di0xLjQ5em0tMi42MSAwaDEuNDl2MS40OWgtMS40OXYtMS40OXoiIGNsYXNzPSJzdDEiLz4mI3hhOyAgICA8cGF0aCBkPSJtMjAuMDIgMjcuNDItLjYzIDQuMDdoNC4yM2wtLjU5LTQuMDljLjk4LS41NCAxLjY1LTEuNTggMS42NS0yLjc4IDAtMS45NC0xLjc0LTMuNDctMy43NC0zLjEyYTMuMTUgMy4xNSAwIDAgMC0yLjU1IDIuNTNjLS4yOCAxLjQ1LjQ2IDIuNzcgMS42MyAzLjM5eiIgY2xhc3M9InN0MiIvPiYjeGE7ICAgIDxwYXRoIGQ9Im0zNi45NSAxOS45NS0xLjA2IDEuMDYgMi44MyAyLjgzaC00LjM1VjEyLjA5aC0zLjczdi0xLjk1YzAtMi41My0xLjAxLTQuODgtMi44NS02LjYzYTkuMDc3IDkuMDc3IDAgMCAwLTYuNzgtMi41Yy00Ljg1LjI1LTguNjYgNC4zMi04LjY2IDkuMjZ2MS44MUg4LjYydjExLjc1SDQuMjdMNy4xIDIxbC0xLjA2LTEuMDYtNC42MyA0LjYzIDQuNjMgNC42MyAxLjA2LTEuMDYtMi44My0yLjgzaDQuMzV2MTMuMDZoMjUuNzRWMjUuMzNoNC4zNWwtMi44MyAyLjgzIDEuMDYgMS4wNiA0LjYzLTQuNjMtNC42Mi00LjY0em0tMjMuMS05LjY4YzAtNC4xNSAzLjE4LTcuNTYgNy4yNC03Ljc3IDIuMTItLjExIDQuMTQuNjMgNS42NyAyLjA5YTcuNTcgNy41NyAwIDAgMSAyLjM4IDUuNTV2MS45NWgtMS4xMnYtMS45NWMwLTEuNzgtLjctMy40NC0xLjk3LTQuNjhhNi40NTkgNi40NTkgMCAwIDAtNC43My0xLjg1Yy0zLjUxLjA5LTYuMzYgMy4wOC02LjM2IDYuNjZ2MS44MmgtMS4xMnYtMS44MnptMTIuNjgtLjE0djEuOTVIMTYuNDZ2LTEuODJjMC0yLjc4IDIuMi01LjEgNC45LTUuMTYgMS4zOC0uMDMgMi42Ny40NyAzLjY1IDEuNDMuOTguOTUgMS41MiAyLjIzIDEuNTIgMy42em02LjM0IDEzLjcxaC0xLjQ5djEuNDloMS40OVYzNi45SDEwLjEyVjI1LjMzaDEuNDl2LTEuNDloLTEuNDlWMTMuNThoMjIuNzZ2MTAuMjZ6TTguNjIgMzkuNTF2Ljc0bDEuNS43NWgyMi43NWwxLjUtLjc1di0uNzR6IiBjbGFzcz0ic3QyIi8+JiN4YTsgICAgPHBhdGggZD0iTTE1LjM0IDIzLjg0aDEuNDl2MS40OWgtMS40OXpNMTIuNzMgMjMuODRoMS40OXYxLjQ5aC0xLjQ5ek0yOC43NyAyMy44NGgxLjQ5djEuNDloLTEuNDl6TTI2LjE2IDIzLjg0aDEuNDl2MS40OWgtMS40OXoiIGNsYXNzPSJzdDIiLz4mI3hhOzwvc3ZnPg==;container=0;" vertex="1" parent="OeXCMGSgX0iGmx0cAqVo-1">
          <mxGeometry x="622" y="166" width="43" height="42" as="geometry" />
        </mxCell>
        <mxCell id="jVQFfvSJNSyhb4Hxbe7O-24" value="&lt;b style=&quot;border-color: var(--border-color);&quot;&gt;Rechenzentrum Service Provider&lt;/b&gt;" style="whiteSpace=wrap;html=1;align=center;fontFamily=Calibri;verticalAlign=top;fillColor=#F5F4F2;rounded=1;arcSize=4;strokeColor=#9E9892;fontColor=#312D2A;fontSize=12;container=0;" vertex="1" parent="OeXCMGSgX0iGmx0cAqVo-1">
          <mxGeometry x="819" y="98.9984999999997" width="187.29" height="171.36" as="geometry" />
        </mxCell>
        <mxCell id="jVQFfvSJNSyhb4Hxbe7O-25" value="&lt;b style=&quot;border-color: var(--border-color); color: rgb(49, 45, 42);&quot;&gt;Service Provider&lt;/b&gt;&amp;nbsp;Premise&lt;br&gt;Equipment" style="whiteSpace=wrap;html=1;strokeWidth=1;dashed=1;align=center;fontFamily=Calibri;verticalAlign=top;fontSize=12;dashPattern=1 1;glass=0;rounded=1;arcSize=2;container=0;" vertex="1" parent="OeXCMGSgX0iGmx0cAqVo-1">
          <mxGeometry x="832" y="122.91849999999977" width="164.29" height="137.44" as="geometry" />
        </mxCell>
        <mxCell id="jVQFfvSJNSyhb4Hxbe7O-26" value="" style="shape=image;verticalLabelPosition=bottom;verticalAlign=top;imageAspect=0;aspect=fixed;image=data:image/svg+xml,PHN2ZyB4bWxucz0iaHR0cDovL3d3dy53My5vcmcvMjAwMC9zdmciIHZpZXdCb3g9IjAgMCA0MiA0MiIgZGF0YS1uYW1lPSJMYXllciAxIiBpZD0iTGF5ZXJfMSI+PHRpdGxlPkN1c3RvbWVyIFByZW1pc2VzIEVxdWlwbWVudDwvdGl0bGU+PG1ldGFkYXRhPiYjeGE7JiN4YTsgICAmI3hhOyAgICAgICYjeGE7ICAgICAgICAgJiN4YTsgICAgICAgICAgICAmI3hhOyAgICAgICAgICAgICAgIEN1c3RvbWVyIFByZW1pc2VzIEVxdWlwbWVudCYjeGE7ICAgICAgICAgICAgJiN4YTsgICAgICAgICAmI3hhOyAgICAgICAgICYjeGE7ICAgICAgICAgICAgJiN4YTsgICAgICAgICAgICAgICBpY29uJiN4YTsgICAgICAgICAgICAgICBDdXN0b21lciYjeGE7ICAgICAgICAgICAgICAgT24gUHJlbWlzZXMmI3hhOyAgICAgICAgICAgICAgIEVxdWlwbWVudCYjeGE7ICAgICAgICAgICAgICAgcm91dGVyJiN4YTsgICAgICAgICAgICAgICBDUEUmI3hhOyAgICAgICAgICAgICYjeGE7ICAgICAgICAgJiN4YTsgICAgICAgICAyMDIyLTEwLTIxVDEzOjQ1OjI5LTA1OjAwJiN4YTsgICAgICAgICB4bXAuaWlkOmFjYzRmMGU5LTllN2YtNDc5NC04NzY2LTVmNGM1Yjc2ZDMzMCYjeGE7ICAgICAgICAgeG1wLmRpZDpiZjI1OWIzYi0zNjZiLTQzYmUtYjY0MS04OGNlMjM1ODM1ODMmI3hhOyAgICAgICAgIHhtcC5kaWQ6YmYyNTliM2ItMzY2Yi00M2JlLWI2NDEtODhjZTIzNTgzNTgzJiN4YTsgICAgICAgICAmI3hhOyAgICAgICAgICAgICYjeGE7ICAgICAgICAgICAgICAgJiN4YTsgICAgICAgICAgICAgICAgICAmI3hhOyAgICAgICAgICAgICAgICAgICAgIHNhdmVkJiN4YTsgICAgICAgICAgICAgICAgICAgICB4bXAuaWlkOmJmMjU5YjNiLTM2NmItNDNiZS1iNjQxLTg4Y2UyMzU4MzU4MyYjeGE7ICAgICAgICAgICAgICAgICAgICAgMjAyMS0wOC0zMVQxNTo0MzowMy0wNTowMCYjeGE7ICAgICAgICAgICAgICAgICAgICAgQWRvYmUgQnJpZGdlIDIwMjEgKE1hY2ludG9zaCkmI3hhOyAgICAgICAgICAgICAgICAgICAgIC9tZXRhZGF0YSYjeGE7ICAgICAgICAgICAgICAgICAgJiN4YTsgICAgICAgICAgICAgICAmI3hhOyAgICAgICAgICAgICAgICYjeGE7ICAgICAgICAgICAgICAgICAgJiN4YTsgICAgICAgICAgICAgICAgICAgICBzYXZlZCYjeGE7ICAgICAgICAgICAgICAgICAgICAgeG1wLmlpZDphY2M0ZjBlOS05ZTdmLTQ3OTQtODc2Ni01ZjRjNWI3NmQzMzAmI3hhOyAgICAgICAgICAgICAgICAgICAgIDIwMjItMTAtMjFUMTM6NDU6MjktMDU6MDAmI3hhOyAgICAgICAgICAgICAgICAgICAgIEFkb2JlIEJyaWRnZSAyMDIxIChNYWNpbnRvc2gpJiN4YTsgICAgICAgICAgICAgICAgICAgICAvbWV0YWRhdGEmI3hhOyAgICAgICAgICAgICAgICAgICYjeGE7ICAgICAgICAgICAgICAgJiN4YTsgICAgICAgICAgICAmI3hhOyAgICAgICAgICYjeGE7ICAgICAgJiN4YTsgICAmI3hhOyYjeGE7ICAgICAgICAgICAgICAgICAgICAgICAgICAgICAgICAgICAgICAgICAgICAgICAgICAgICAgICAgICAgICAgICAgICAgICAgICAgICAgICAgICAgICAgICAgICAgICAgICAgICYjeGE7ICAgICAgICAgICAgICAgICAgICAgICAgICAgICAgICAgICAgICAgICAgICAgICAgICAgICAgICAgICAgICAgICAgICAgICAgICAgICAgICAgICAgICAgICAgICAgICAgICAgICYjeGE7ICAgICAgICAgICAgICAgICAgICAgICAgICAgICAgICAgICAgICAgICAgICAgICAgICAgICAgICAgICAgICAgICAgICAgICAgICAgICAgICAgICAgICAgICAgICAgICAgICAgICYjeGE7ICAgICAgICAgICAgICAgICAgICAgICAgICAgICAgICAgICAgICAgICAgICAgICAgICAgICAgICAgICAgICAgICAgICAgICAgICAgICAgICAgICAgICAgICAgICAgICAgICAgICYjeGE7ICAgICAgICAgICAgICAgICAgICAgICAgICAgICAgICAgICAgICAgICAgICAgICAgICAgICAgICAgICAgICAgICAgICAgICAgICAgICAgICAgICAgICAgICAgICAgICAgICAgICYjeGE7ICAgICAgICAgICAgICAgICAgICAgICAgICAgICAgICAgICAgICAgICAgICAgICAgICAgICAgICAgICAgICAgICAgICAgICAgICAgICAgICAgICAgICAgICAgICAgICAgICAgICYjeGE7ICAgICAgICAgICAgICAgICAgICAgICAgICAgICAgICAgICAgICAgICAgICAgICAgICAgICAgICAgICAgICAgICAgICAgICAgICAgICAgICAgICAgICAgICAgICAgICAgICAgICYjeGE7ICAgICAgICAgICAgICAgICAgICAgICAgICAgICAgICAgICAgICAgICAgICAgICAgICAgICAgICAgICAgICAgICAgICAgICAgICAgICAgICAgICAgICAgICAgICAgICAgICAgICYjeGE7ICAgICAgICAgICAgICAgICAgICAgICAgICAgICAgICAgICAgICAgICAgICAgICAgICAgICAgICAgICAgICAgICAgICAgICAgICAgICAgICAgICAgICAgICAgICAgICAgICAgICYjeGE7ICAgICAgICAgICAgICAgICAgICAgICAgICAgICAgICAgICAgICAgICAgICAgICAgICAgICAgICAgICAgICAgICAgICAgICAgICAgICAgICAgICAgICAgICAgICAgICAgICAgICYjeGE7ICAgICAgICAgICAgICAgICAgICAgICAgICAgICAgICAgICAgICAgICAgICAgICAgICAgICAgICAgICAgICAgICAgICAgICAgICAgICAgICAgICAgICAgICAgICAgICAgICAgICYjeGE7ICAgICAgICAgICAgICAgICAgICAgICAgICAgICAgICAgICAgICAgICAgICAgICAgICAgICAgICAgICAgICAgICAgICAgICAgICAgICAgICAgICAgICAgICAgICAgICAgICAgICYjeGE7ICAgICAgICAgICAgICAgICAgICAgICAgICAgICAgICAgICAgICAgICAgICAgICAgICAgICAgICAgICAgICAgICAgICAgICAgICAgICAgICAgICAgICAgICAgICAgICAgICAgICYjeGE7ICAgICAgICAgICAgICAgICAgICAgICAgICAgICAgICAgICAgICAgICAgICAgICAgJiN4YTs8L21ldGFkYXRhPiYjeGE7PHJlY3QgZmlsbD0iI2ZmZiIgcng9IjIuMTciIGhlaWdodD0iNDEiIHdpZHRoPSI0MSIgeT0iMC41IiB4PSIwLjUiLz48cGF0aCBmaWxsPSIjZmZmIiBkPSJNMzkuMzMsMUExLjY3LDEuNjcsMCwwLDEsNDEsMi42N1YzOS4zM0ExLjY3LDEuNjcsMCwwLDEsMzkuMzMsNDFIMi42N0ExLjY3LDEuNjcsMCwwLDEsMSwzOS4zM1YyLjY3QTEuNjcsMS42NywwLDAsMSwyLjY3LDFIMzkuMzNtMC0xSDIuNjdBMi42OCwyLjY4LDAsMCwwLDAsMi42N1YzOS4zM0EyLjY4LDIuNjgsMCwwLDAsMi42Nyw0MkgzOS4zM0EyLjY4LDIuNjgsMCwwLDAsNDIsMzkuMzNWMi42N0EyLjY4LDIuNjgsMCwwLDAsMzkuMzMsMFoiLz48cGF0aCBmaWxsPSIjMmM1OTY3IiBkPSJNMzkuMzMsMUgyLjY3QTEuNjcsMS42NywwLDAsMCwxLDIuNjdWMzkuMzNBMS42NywxLjY3LDAsMCwwLDIuNjcsNDFIMzkuMzNBMS42NywxLjY3LDAsMCwwLDQxLDM5LjMzVjIuNjdBMS42NywxLjY3LDAsMCwwLDM5LjMzLDFabS4xOSwzOC4zM2EuMi4yLDAsMCwxLS4xOS4xOUgyLjY3YS4yLjIsMCwwLDEtLjE5LS4xOVYyLjY3YS4yLjIsMCwwLDEsLjE5LS4xOUgzOS4zM2EuMi4yLDAsMCwxLC4xOS4xOVoiLz48cGF0aCBmaWxsPSIjMmM1OTY3IiBkPSJNMjEsMy41OUExNy40MSwxNy40MSwwLDEsMCwzOC40MSwyMSwxNy40MywxNy40MywwLDAsMCwyMSwzLjU5Wm0wLDMzLjM0QTE1LjkzLDE1LjkzLDAsMSwxLDM2LjkzLDIxLDE2LDE2LDAsMCwxLDIxLDM2LjkzWiIvPjxwb2x5Z29uIGZpbGw9IiMyYzU5NjciIHBvaW50cz0iMjEuNzQgMzEuMDYgMjEuNzQgMTEuMTIgMjQgMTMuMzggMjUuMDQgMTIuMzMgMjEgOC4yOSAxNi45NiAxMi4zMyAxOCAxMy4zOCAyMC4yNiAxMS4xMiAyMC4yNiAzMS4wNiAxOCAyOC44MSAxNi45NiAyOS44NiAyMSAzMy45IDI1LjA0IDI5Ljg2IDI0IDI4LjgxIDIxLjc0IDMxLjA2Ii8+PHBvbHlnb24gZmlsbD0iIzJjNTk2NyIgcG9pbnRzPSIyNi44OSAxOCAyNS44NSAxNi45NiAyMS44IDIxIDI1Ljg1IDI1LjA0IDI2Ljg5IDI0IDI0LjY0IDIxLjc0IDMzLjc3IDIxLjc0IDMzLjc3IDIwLjI2IDI0LjY0IDIwLjI2IDI2Ljg5IDE4Ii8+PHBvbHlnb24gZmlsbD0iIzJjNTk2NyIgcG9pbnRzPSIxNi4xNSAxNi45NiAxNS4xMSAxOCAxNy4zNiAyMC4yNiA4LjIyIDIwLjI2IDguMjIgMjEuNzQgMTcuMzYgMjEuNzQgMTUuMTEgMjQgMTYuMTUgMjUuMDQgMjAuMiAyMSAxNi4xNSAxNi45NiIvPjwvc3ZnPg==;container=0;" vertex="1" parent="OeXCMGSgX0iGmx0cAqVo-1">
          <mxGeometry x="852" y="170" width="42" height="42" as="geometry" />
        </mxCell>
        <mxCell id="jVQFfvSJNSyhb4Hxbe7O-27" value="" style="shape=image;verticalLabelPosition=bottom;verticalAlign=top;imageAspect=0;aspect=fixed;image=data:image/svg+xml,PHN2ZyB4bWxucz0iaHR0cDovL3d3dy53My5vcmcvMjAwMC9zdmciIHZpZXdCb3g9IjAgMCA0My4xOCA0MiIgZGF0YS1uYW1lPSJMYXllciAxIiBpZD0iTGF5ZXJfMSI+JiN4YTsgICAgPGRlZnM+JiN4YTsgICAgICAgIDxzdHlsZT4mI3hhOyAgICAgICAgICAgIC5jbHMtMXtmaWxsOiNmZmZ9LmNscy0ye2ZpbGw6IzJjNTk2N30mI3hhOyAgICAgICAgPC9zdHlsZT4mI3hhOyAgICA8L2RlZnM+JiN4YTsgICAgPHBhdGggZD0iTTM4LjA5IDQxLjVhNC41OSA0LjU5IDAgMCAxLTEuMjUtOXYtMi40M0gyNGEyLjY5IDIuNjkgMCAwIDEtMS4xOCAxLjE4djEuMjVhNC41OSA0LjU5IDAgMSAxLTIuNDkgMHYtMS4yNWEyLjY5IDIuNjkgMCAwIDEtMS4xOC0xLjE4SDYuMzl2Mi40NGE0LjU5IDQuNTkgMCAxIDEtMi40OSAwdi00LjloMTUuMjdhMi43NyAyLjc3IDAgMCAxIDEuMTgtMS4xOXYtMS41OUg2LjQyVjIuNWEyIDIgMCAwIDEgMi0ySDE2YTIgMiAwIDAgMSAxLjYxLjgxTDE5IDMuMjRoMTUuNzhhMiAyIDAgMCAxIDIgMnYxOS41OUgyMi44NHYxLjU2QTIuNzcgMi43NyAwIDAgMSAyNCAyNy41OGgxNS4zM3Y0LjkyYTQuNTggNC41OCAwIDAgMS0xLjI0IDlaIiBjbGFzcz0iY2xzLTEiLz4mI3hhOyAgICA8cGF0aCBkPSJNMTYgMWExLjUxIDEuNTEgMCAwIDEgMS4yMS42MWwxLjU5IDIuMTNoMTZhMS41MSAxLjUxIDAgMCAxIDEuNSAxLjV2MTkuMDlIMjIuMzR2Mi4zOWEyLjI5IDIuMjkgMCAwIDEgMS4zNiAxLjM2aDE1LjEzdjQuODFhNC4wOSA0LjA5IDAgMSAxLTEuNDggMHYtMy4zMkgyMy43YTIuMjQgMi4yNCAwIDAgMS0xLjM2IDEuMzV2MmE0LjA5IDQuMDkgMCAxIDEtMS40OSAwdi0yYTIuMiAyLjIgMCAwIDEtMS4zNS0xLjM1SDUuODl2My4zM2E0LjA5IDQuMDkgMCAxIDEtMS40OSAwdi00LjhoMTUuMWEyLjI0IDIuMjQgMCAwIDEgMS4zNS0xLjM2di0yLjQxSDYuOTJWMi41QTEuNSAxLjUgMCAwIDEgOC40MiAxSDE2bTAtMUg4LjQyYTIuNSAyLjUgMCAwIDAtMi41IDIuNXYyMi44M2gxMy45M3YuNzhhMy4yMSAzLjIxIDAgMCAwLTEgMUgzLjR2NWE1LjA5IDUuMDkgMCAxIDAgMy40OSAwdi0xLjU0aDEyYTMuMjEgMy4yMSAwIDAgMCAxIDF2LjU5YTUuMDkgNS4wOSAwIDEgMCAzLjQ5IDB2LS41OWEzLjIxIDMuMjEgMCAwIDAgMS0xaDEydjEuNTZhNS4wOSA1LjA5IDAgMSAwIDMuNDggMHYtNS4wNUgyNC4zMWEzLjIxIDMuMjEgMCAwIDAtMS0xdi0uNzhoMTMuOTdWNS4yNGEyLjUxIDIuNTEgMCAwIDAtMi41LTIuNUgxOS4yNkwxOCAxYTIuNTIgMi41MiAwIDAgMC0yLTFaIiBjbGFzcz0iY2xzLTEiLz4mI3hhOyAgICA8cGF0aCBkPSJNMzguODMgMzIuODl2LTQuODFIMjMuN2EyLjI5IDIuMjkgMCAwIDAtMS4zNi0xLjM2di0yLjM5aDEzLjk0VjUuMjRhMS41MSAxLjUxIDAgMCAwLTEuNS0xLjVoLTE2bC0xLjYxLTIuMTNBMS41MSAxLjUxIDAgMCAwIDE2IDFIOC40MmExLjUxIDEuNTEgMCAwIDAtMS41MSAxLjV2MjEuODNoMTMuOTR2Mi4zOWEyLjI0IDIuMjQgMCAwIDAtMS4zNSAxLjM2SDQuNHY0LjhhNC4wOSA0LjA5IDAgMSAwIDEuNDkgMHYtMy4zMUgxOS41YTIuMiAyLjIgMCAwIDAgMS4zNSAxLjM1djJhNC4wOSA0LjA5IDAgMSAwIDEuNDkgMHYtMmEyLjI0IDIuMjQgMCAwIDAgMS4zNi0xLjM1aDEzLjY1djMuMzJhNC4wOSA0LjA5IDAgMSAwIDEuNDggMFpNOC40IDIuNUgxNmwyIDIuNzRoMTYuNzl2MTcuNjFIOC40Wk0yLjQ5IDM2LjkxYTIuNiAyLjYgMCAxIDEgMi42IDIuNiAyLjYgMi42IDAgMCAxLTIuNi0yLjZabTE5LjExLTcuMzRhLjc2Ljc2IDAgMCAxLS43NS0uNzUuNzUuNzUgMCAwIDEgLjc1LS43NC43NC43NCAwIDAgMSAuNzQuNzQuNzUuNzUgMCAwIDEtLjc0Ljc1Wm0wIDkuOTRhMi42IDIuNiAwIDEgMSAyLjYtMi42IDIuNiAyLjYgMCAwIDEtMi42IDIuNlptMTMuODktMi42YTIuNiAyLjYgMCAxIDEgMi42IDIuNiAyLjYgMi42IDAgMCAxLTIuNi0yLjZaIiBjbGFzcz0iY2xzLTIiLz4mI3hhOyAgICA8cGF0aCBkPSJNMjguNjYgMTguMjhWOS43YTIgMiAwIDAgMC0xLjEzLTEuNTMgOC40MSA4LjQxIDAgMCAwLTIuNjItLjg5QTE3LjI5IDE3LjI5IDAgMCAwIDIxLjYgN2ExNy41IDE3LjUgMCAwIDAtMy4zNC4zIDguMDggOC4wOCAwIDAgMC0yLjY0LjkzIDEuOTMgMS45MyAwIDAgMC0xLjA4IDEuNnY4LjQ2YTEuOTEgMS45MSAwIDAgMCAxLjA4IDEuNTkgNy44NCA3Ljg0IDAgMCAwIDIuNjQuOTQgMTcuNSAxNy41IDAgMCAwIDMuMzQuMyAxNy41IDE3LjUgMCAwIDAgMy4zNC0uMyA3Ljg0IDcuODQgMCAwIDAgMi42NC0uOTQgMS45MSAxLjkxIDAgMCAwIDEuMDgtMS42Wk0xNiA5Ljc4YzAtLjEuMTUtLjIyLjQtLjM3QTUuMTcgNS4xNyAwIDAgMSAxNy41MiA5YTEwLjQxIDEwLjQxIDAgMCAxIDEuNzYtLjM5IDE3Ljg3IDE3Ljg3IDAgMCAxIDIuMzgtLjE1IDE2Ljg5IDE2Ljg5IDAgMCAxIDIuNDQuMTcgMTAuNDQgMTAuNDQgMCAwIDEgMS43OC4zNyA1LjIyIDUuMjIgMCAwIDEgMS4xMi40NGMuMjMuMTUuMzUuMjcuMzUuMzhzLS4xMi4yMi0uMzUuMzdhNC43MyA0LjczIDAgMCAxLTEuMDcuNDcgMTAuNDQgMTAuNDQgMCAwIDEtMS43OC4zOSAxNS41OCAxNS41OCAwIDAgMS0yLjQ0LjE3IDE1LjQ1IDE1LjQ1IDAgMCAxLTIuNDMtLjE3IDEwLjQ0IDEwLjQ0IDAgMCAxLTEuNzgtLjM5IDQuNzMgNC43MyAwIDAgMS0xLjA3LS40N2MtLjI5LS4xOS0uNDMtLjI3LS40My0uMzdabS0uMTkgMS44YTkuMTggOS4xOCAwIDAgMCAyLjU3LjggMTcuODMgMTcuODMgMCAwIDAgMy4xLjI2aDEuMjRsLjkyLS4wN2MuMjYgMCAuNTEtLjA3Ljc2LS4xMmwuOTEtLjE3LjI1LS4wN0EzLjE3IDMuMTcgMCAwIDAgMjYgMTJsLjQ4LS4xNS41Mi0uMTVoLjA3bC4xNS0uMDl2Mi40N2MwIC4xLS4xMS4yMy0uMzUuMzhhNC43MyA0LjczIDAgMCAxLTEuMDcuNDcgMTAuNzkgMTAuNzkgMCAwIDEtMS43OS4zOSAxNS43NiAxNS43NiAwIDAgMS0yLjQ1LjE4IDE1LjY2IDE1LjY2IDAgMCAxLTIuNDUtLjE4IDEwLjU3IDEwLjU3IDAgMCAxLTEuNzktLjM5IDQuNzMgNC43MyAwIDAgMS0xLjA3LS40N2MtLjI0LS4xNS0uMzYtLjI4LS4zNi0uMzhabTUuNjcgOGExNyAxNyAwIDAgMS0yLjQ1LS4xNyAxMC41NyAxMC41NyAwIDAgMS0xLjc5LS4zOSA1LjE5IDUuMTkgMCAwIDEtMS4wNy0uNDhjLS4yNC0uMTQtLjM2LS4yNy0uMzYtLjM3di0yLjRhOC41OCA4LjU4IDAgMCAwIDIuNTcuNzkgMTcuODMgMTcuODMgMCAwIDAgMy4xLjI2aC43MUExNi45NCAxNi45NCAwIDAgMCAyNSAxNi42YTcuMzggNy4zOCAwIDAgMCAyLjE3LS43djIuMzJjMCAuMS0uMTEuMjMtLjM1LjM3YTUuMTkgNS4xOSAwIDAgMS0xLjA3LjQ4IDEwLjc5IDEwLjc5IDAgMCAxLTEuNzkuMzkgMTcuMTQgMTcuMTQgMCAwIDEtMi40NS4xN1oiIGNsYXNzPSJjbHMtMiIvPiYjeGE7PC9zdmc+" vertex="1" parent="OeXCMGSgX0iGmx0cAqVo-1">
          <mxGeometry x="916" y="170" width="43" height="42" as="geometry" />
        </mxCell>
        <mxCell id="jVQFfvSJNSyhb4Hxbe7O-28" value="" style="endArrow=open;html=1;startArrow=none;startFill=0;endFill=0;rounded=0;fontFamily=Oracle Sans;fontSize=10.5;fontColor=#312D2A;labelBackgroundColor=none;strokeColor=#000000;endSize=6;elbow=vertical;exitX=0.044;exitY=0.628;exitDx=0;exitDy=0;exitPerimeter=0;" edge="1" parent="OeXCMGSgX0iGmx0cAqVo-1">
          <mxGeometry x="415.97999999999996" y="265.7599999999993" width="50" height="50" as="geometry">
            <mxPoint x="515.5" y="189.71849999999904" as="sourcePoint" />
            <mxPoint x="622.5" y="189.71849999999904" as="targetPoint" />
          </mxGeometry>
        </mxCell>
        <mxCell id="jVQFfvSJNSyhb4Hxbe7O-29" value="" style="endArrow=open;html=1;startArrow=open;startFill=0;endFill=0;strokeColor=#312d2a;elbow=vertical;rounded=0;fontFamily=Calibri;fontColor=#312D2A;entryX=0.821;entryY=0.286;entryDx=0;entryDy=0;entryPerimeter=0;" edge="1" parent="OeXCMGSgX0iGmx0cAqVo-1">
          <mxGeometry x="141.61000000000058" y="-61.20500000000084" width="50" height="50" as="geometry">
            <mxPoint x="854" y="190.40999999999985" as="sourcePoint" />
            <mxPoint x="665" y="190.40999999999985" as="targetPoint" />
          </mxGeometry>
        </mxCell>
        <mxCell id="jVQFfvSJNSyhb4Hxbe7O-30" value="" style="shape=image;verticalLabelPosition=bottom;labelBackgroundColor=default;verticalAlign=top;aspect=fixed;imageAspect=0;image=data:image/svg+xml,PHN2ZyB4bWxucz0iaHR0cDovL3d3dy53My5vcmcvMjAwMC9zdmciIHhtbDpzcGFjZT0icHJlc2VydmUiIHN0eWxlPSJlbmFibGUtYmFja2dyb3VuZDpuZXcgMCAwIDQyLjk5IDQyIiB2aWV3Qm94PSIwIDAgNDIuOTkgNDIiIHk9IjAiIHg9IjAiIGlkPSJMYXllcl8xIiB2ZXJzaW9uPSIxLjEiPiYjeGE7ICAgIDxzdHlsZT4mI3hhOyAgICAgICAgLnN0MHtmaWxsOiNmZmZ9LnN0MXtmaWxsOm5vbmV9LnN0MntmaWxsOiMyYzU5Njd9JiN4YTsgICAgPC9zdHlsZT4mI3hhOyAgICA8cGF0aCBkPSJtMTAgNDEuNS0xLjg4LS45NFYyNS44M0g1LjQ4bDIuMzMgMi4zMy0xLjc2IDEuNzYtNS4zNC01LjM0IDUuMzQtNS4zNEw3LjgxIDIxbC0yLjMzIDIuMzNoMi42NVYxMS41OWgzLjczdi0xLjMxYzAtNS4yMSA0LjAxLTkuNSA5LjEzLTkuNzYuMTctLjAyLjM0LS4wMi41MS0uMDIgMi40OCAwIDQuODMuOTQgNi42MyAyLjY1IDEuOTQgMS44NCAzIDQuMzIgMyA2Ljk5djEuNDVoMy43M3YxMS43NWgyLjY1bC0yLjMzLTIuMzMgMS43Ni0xLjc2IDUuMzQgNS4zNC01LjM0IDUuMzQtMS43Ni0xLjc2IDIuMzMtMi4zM2gtMi42NXYxNC43M2wtMS44OC45NEgxMHoiIGNsYXNzPSJzdDAiLz4mI3hhOyAgICA8cGF0aCBkPSJNMjEuNSAxYzIuMzUgMCA0LjU3Ljg4IDYuMjggMi41MWE5LjA0NSA5LjA0NSAwIDAgMSAyLjg1IDYuNjN2MS45NWgzLjczdjExLjc1aDQuMzVsLTIuODMtMi44MyAxLjA2LTEuMDYgNC42MyA0LjYzLTQuNjMgNC42My0xLjA2LTEuMDYgMi44My0yLjgzaC00LjM1djE0LjkybC0xLjQ5Ljc2SDEwLjEybC0xLjUtLjc1VjI1LjMzSDQuMjdsMi44MyAyLjgzLTEuMDYgMS4wNi00LjYzLTQuNjMgNC42My00LjYzIDEuMDYgMS4wNi0yLjgzIDIuODNoNC4zNVYxMi4wOWgzLjczdi0xLjgxYzAtNC45NCAzLjgtOS4wMSA4LjY2LTkuMjYuMTctLjAyLjMzLS4wMi40OS0uMDJtMC0xYy0uMTggMC0uMzYgMC0uNTQuMDEtNS4zOS4yOC05LjYgNC43OS05LjYgMTAuMjZ2LjgxSDcuNjJ2OS4wM2wtLjg3LS44Ny0uNzEtLjcxLS43MS43MUwuNyAyMy44N2wtLjcuNzIuNzEuNzEgNC42MyA0LjYzLjcxLjcxLjcxLS43MS44Ny0uODdWNDAuODhsLjU1LjI4IDEuNS43NS4yLjA5aDIzLjI0bC4yMS0uMTEgMS41LS43NS41NS0uMjhWMjkuMDRsLjg3Ljg3LjcxLjcxLjcxLS43MSA0LjYzLTQuNjMuNzEtLjcxLS43MS0uNzEtNC42My00LjYzLS43MS0uNzEtLjcxLjcxLS44Ny44N3YtOS4wM2gtMy43M3YtLjk1YzAtMi44MS0xLjEyLTUuNDItMy4xNi03LjM1QTEwLjIxIDEwLjIxIDAgMCAwIDIxLjUgMHptMTMuODcgMjIuODR2LS45NGwuOTQuOTRoLS45NHptLTI4LjY5IDAgLjk0LS45NHYuOTRoLS45NHptMjguNjkgMy40OWguOTRsLS45NC45NHYtLjk0em0tMjguNjkgMGguOTR2Ljk0bC0uOTQtLjk0eiIgY2xhc3M9InN0MCIvPiYjeGE7ICAgIDxwYXRoIGQ9Ik0yMS4zNiA1LjFjLTIuNy4wNy00LjkgMi4zOS00LjkgNS4xNnYxLjgyaDEwLjA3di0xLjk1YzAtMS4zNy0uNTQtMi42NS0xLjUyLTMuNjFhNS4wMyA1LjAzIDAgMCAwLTMuNjUtMS40MnoiIGNsYXNzPSJzdDEiLz4mI3hhOyAgICA8cGF0aCBkPSJNMTQuOTcgMTAuMjZjMC0zLjU4IDIuODUtNi41NyA2LjM2LTYuNjYgMS43OC0uMDUgMy40Ni42MSA0LjczIDEuODVhNi40ODYgNi40ODYgMCAwIDEgMS45NyA0LjY4djEuOTVoMS4xMnYtMS45NWMwLTIuMTItLjg1LTQuMDktMi4zOC01LjU1YTcuNTg2IDcuNTg2IDAgMCAwLTUuNjctMi4wOWMtNC4wNi4yMS03LjI0IDMuNjItNy4yNCA3Ljc3djEuODFoMS4xMnYtMS44MXpNMTAuMTIgMjMuODRoMS40OXYxLjQ5aC0xLjQ5VjM2LjloMjIuNzZWMjUuMzNoLTEuNDl2LTEuNDloMS40OVYxMy41OEgxMC4xMnYxMC4yNnptMTguNjUgMGgxLjQ5djEuNDloLTEuNDl2LTEuNDl6bS0yLjYxIDBoMS40OXYxLjQ5aC0xLjQ5di0xLjQ5em0tNy43OC4xOWEzLjEzOCAzLjEzOCAwIDAgMSAyLjU1LTIuNTNjMi0uMzUgMy43NCAxLjE5IDMuNzQgMy4xMiAwIDEuMi0uNjcgMi4yNC0xLjY1IDIuNzhsLjU5IDQuMDloLTQuMjNsLjYzLTQuMDdhMy4xNjkgMy4xNjkgMCAwIDEtMS42My0zLjM5em0tMy4wNC0uMTloMS40OXYxLjQ5aC0xLjQ5di0xLjQ5em0tMi42MSAwaDEuNDl2MS40OWgtMS40OXYtMS40OXoiIGNsYXNzPSJzdDEiLz4mI3hhOyAgICA8cGF0aCBkPSJtMjAuMDIgMjcuNDItLjYzIDQuMDdoNC4yM2wtLjU5LTQuMDljLjk4LS41NCAxLjY1LTEuNTggMS42NS0yLjc4IDAtMS45NC0xLjc0LTMuNDctMy43NC0zLjEyYTMuMTUgMy4xNSAwIDAgMC0yLjU1IDIuNTNjLS4yOCAxLjQ1LjQ2IDIuNzcgMS42MyAzLjM5eiIgY2xhc3M9InN0MiIvPiYjeGE7ICAgIDxwYXRoIGQ9Im0zNi45NSAxOS45NS0xLjA2IDEuMDYgMi44MyAyLjgzaC00LjM1VjEyLjA5aC0zLjczdi0xLjk1YzAtMi41My0xLjAxLTQuODgtMi44NS02LjYzYTkuMDc3IDkuMDc3IDAgMCAwLTYuNzgtMi41Yy00Ljg1LjI1LTguNjYgNC4zMi04LjY2IDkuMjZ2MS44MUg4LjYydjExLjc1SDQuMjdMNy4xIDIxbC0xLjA2LTEuMDYtNC42MyA0LjYzIDQuNjMgNC42MyAxLjA2LTEuMDYtMi44My0yLjgzaDQuMzV2MTMuMDZoMjUuNzRWMjUuMzNoNC4zNWwtMi44MyAyLjgzIDEuMDYgMS4wNiA0LjYzLTQuNjMtNC42Mi00LjY0em0tMjMuMS05LjY4YzAtNC4xNSAzLjE4LTcuNTYgNy4yNC03Ljc3IDIuMTItLjExIDQuMTQuNjMgNS42NyAyLjA5YTcuNTcgNy41NyAwIDAgMSAyLjM4IDUuNTV2MS45NWgtMS4xMnYtMS45NWMwLTEuNzgtLjctMy40NC0xLjk3LTQuNjhhNi40NTkgNi40NTkgMCAwIDAtNC43My0xLjg1Yy0zLjUxLjA5LTYuMzYgMy4wOC02LjM2IDYuNjZ2MS44MmgtMS4xMnYtMS44MnptMTIuNjgtLjE0djEuOTVIMTYuNDZ2LTEuODJjMC0yLjc4IDIuMi01LjEgNC45LTUuMTYgMS4zOC0uMDMgMi42Ny40NyAzLjY1IDEuNDMuOTguOTUgMS41MiAyLjIzIDEuNTIgMy42em02LjM0IDEzLjcxaC0xLjQ5djEuNDloMS40OVYzNi45SDEwLjEyVjI1LjMzaDEuNDl2LTEuNDloLTEuNDlWMTMuNThoMjIuNzZ2MTAuMjZ6TTguNjIgMzkuNTF2Ljc0bDEuNS43NWgyMi43NWwxLjUtLjc1di0uNzR6IiBjbGFzcz0ic3QyIi8+JiN4YTsgICAgPHBhdGggZD0iTTE1LjM0IDIzLjg0aDEuNDl2MS40OWgtMS40OXpNMTIuNzMgMjMuODRoMS40OXYxLjQ5aC0xLjQ5ek0yOC43NyAyMy44NGgxLjQ5djEuNDloLTEuNDl6TTI2LjE2IDIzLjg0aDEuNDl2MS40OWgtMS40OXoiIGNsYXNzPSJzdDIiLz4mI3hhOzwvc3ZnPg==;container=0;" vertex="1" parent="OeXCMGSgX0iGmx0cAqVo-1">
          <mxGeometry x="765" y="166" width="43" height="42" as="geometry" />
        </mxCell>
        <mxCell id="jVQFfvSJNSyhb4Hxbe7O-31" value="&lt;b&gt;&lt;font&gt;Netzwerk&lt;/font&gt;&lt;/b&gt;" style="whiteSpace=wrap;html=1;align=center;fontFamily=Calibri;verticalAlign=top;fillColor=#F5F4F2;rounded=1;arcSize=10;strokeColor=#9E9892;fontColor=#312D2A;fontSize=12;container=0;" vertex="1" parent="OeXCMGSgX0iGmx0cAqVo-1">
          <mxGeometry x="678.0005000000001" y="134" width="77.72" height="86" as="geometry" />
        </mxCell>
        <mxCell id="jVQFfvSJNSyhb4Hxbe7O-32" value="" style="shape=image;verticalLabelPosition=bottom;verticalAlign=top;imageAspect=0;aspect=fixed;image=data:image/svg+xml,PHN2ZyB4bWxucz0iaHR0cDovL3d3dy53My5vcmcvMjAwMC9zdmciIHZpZXdCb3g9IjAgMCA0Mi4wNCA0MiIgZGF0YS1uYW1lPSJMYXllciAxIiBpZD0iTGF5ZXJfMSI+PG1ldGFkYXRhPiYjeGE7JiN4YTsgICAmI3hhOyAgICAgICYjeGE7ICAgICAgICAgJiN4YTsgICAgICAgICAgICAmI3hhOyAgICAgICAgICAgICAgIGljb24mI3hhOyAgICAgICAgICAgICAgIHNlcnZpY2UmI3hhOyAgICAgICAgICAgICAgIGludGVybmV0JiN4YTsgICAgICAgICAgICAgICB3d3cmI3hhOyAgICAgICAgICAgICAgIGNvbm5lY3Rpdml0eSYjeGE7ICAgICAgICAgICAgICAgY29tbXVuaWNhdGlvbiYjeGE7ICAgICAgICAgICAgJiN4YTsgICAgICAgICAmI3hhOyAgICAgICAgIDIwMjItMTEtMTBUMTc6MDk6MzAtMDY6MDAmI3hhOyAgICAgICAgIHhtcC5paWQ6NmFmNTE2NDEtZmI1ZC00ZjYzLWJkMTctM2M4ZDMzNDI4ZDkwJiN4YTsgICAgICAgICB4bXAuZGlkOjZhZjUxNjQxLWZiNWQtNGY2My1iZDE3LTNjOGQzMzQyOGQ5MCYjeGE7ICAgICAgICAgeG1wLmRpZDo2YWY1MTY0MS1mYjVkLTRmNjMtYmQxNy0zYzhkMzM0MjhkOTAmI3hhOyAgICAgICAgICYjeGE7ICAgICAgICAgICAgJiN4YTsgICAgICAgICAgICAgICAmI3hhOyAgICAgICAgICAgICAgICAgICYjeGE7ICAgICAgICAgICAgICAgICAgICAgc2F2ZWQmI3hhOyAgICAgICAgICAgICAgICAgICAgIHhtcC5paWQ6NmFmNTE2NDEtZmI1ZC00ZjYzLWJkMTctM2M4ZDMzNDI4ZDkwJiN4YTsgICAgICAgICAgICAgICAgICAgICAyMDIyLTExLTEwVDE3OjA5OjMwLTA2OjAwJiN4YTsgICAgICAgICAgICAgICAgICAgICBBZG9iZSBCcmlkZ2UgMjAyMSAoTWFjaW50b3NoKSYjeGE7ICAgICAgICAgICAgICAgICAgICAgL21ldGFkYXRhJiN4YTsgICAgICAgICAgICAgICAgICAmI3hhOyAgICAgICAgICAgICAgICYjeGE7ICAgICAgICAgICAgJiN4YTsgICAgICAgICAmI3hhOyAgICAgICYjeGE7ICAgJiN4YTsmI3hhOyAgICAgICAgICAgICAgICAgICAgICAgICAgICAgICAgICAgICAgICAgICAgICAgICAgICAgICAgICAgICAgICAgICAgICAgICAgICAgICAgICAgICAgICAgICAgICAgICAgICAmI3hhOyAgICAgICAgICAgICAgICAgICAgICAgICAgICAgICAgICAgICAgICAgICAgICAgICAgICAgICAgICAgICAgICAgICAgICAgICAgICAgICAgICAgICAgICAgICAgICAgICAgICAmI3hhOyAgICAgICAgICAgICAgICAgICAgICAgICAgICAgICAgICAgICAgICAgICAgICAgICAgICAgICAgICAgICAgICAgICAgICAgICAgICAgICAgICAgICAgICAgICAgICAgICAgICAmI3hhOyAgICAgICAgICAgICAgICAgICAgICAgICAgICAgICAgICAgICAgICAgICAgICAgICAgICAgICAgICAgICAgICAgICAgICAgICAgICAgICAgICAgICAgICAgICAgICAgICAgICAmI3hhOyAgICAgICAgICAgICAgICAgICAgICAgICAgICAgICAgICAgICAgICAgICAgICAgICAgICAgICAgICAgICAgICAgICAgICAgICAgICAgICAgICAgICAgICAgICAgICAgICAgICAmI3hhOyAgICAgICAgICAgICAgICAgICAgICAgICAgICAgICAgICAgICAgICAgICAgICAgICAgICAgICAgICAgICAgICAgICAgICAgICAgICAgICAgICAgICAgICAgICAgICAgICAgICAmI3hhOyAgICAgICAgICAgICAgICAgICAgICAgICAgICAgICAgICAgICAgICAgICAgICAgICAgICAgICAgICAgICAgICAgICAgICAgICAgICAgICAgICAgICAgICAgICAgICAgICAgICAmI3hhOyAgICAgICAgICAgICAgICAgICAgICAgICAgICAgICAgICAgICAgICAgICAgICAgICAgICAgICAgICAgICAgICAgICAgICAgICAgICAgICAgICAgICAgICAgICAgICAgICAgICAmI3hhOyAgICAgICAgICAgICAgICAgICAgICAgICAgICAgICAgICAgICAgICAgICAgICAgICAgICAgICAgICAgICAgICAgICAgICAgICAgICAgICAgICAgICAgICAgICAgICAgICAgICAmI3hhOyAgICAgICAgICAgICAgICAgICAgICAgICAgICAgICAgICAgICAgICAgICAgICAgICAgICAgICAgICAgICAgICAgICAgICAgICAgICAgICAgICAgICAgICAgICAgICAgICAgICAmI3hhOyAgICAgICAgICAgICAgICAgICAgICAgICAgICAgICAgICAgICAgICAgICAgICAgICAgICAgICAgICAgICAgICAgICAgICAgICAgICAgICAgICAgICAgICAgICAgICAgICAgICAmI3hhOyAgICAgICAgICAgICAgICAgICAgICAgICAgICAgICAgICAgICAgICAgICAgICAgICAgICAgICAgICAgICAgICAgICAgICAgICAgICAgICAgICAgICAgICAgICAgICAgICAgICAmI3hhOyAgICAgICAgICAgICAgICAgICAgICAgICAgICAgICAgICAgICAgICAgICAgICAgICAgICAgICAgICAgICAgICAgICAgICAgICAgICAgICAgICAgICAgICAgICAgICAgICAgICAmI3hhOyAgICAgICAgICAgICAgICAgICAgICAgICAgICAgICAgICAgICAgICAgICAgICAgICAgICAgICAgICAgICAgICAgICAgICAgICAgICAgICAgICAgICAgICAgICAgICAgICAgICAmI3hhOyAgICAgICAgICAgICAgICAgICAgICAgICAgICAgICAgICAgICAgICAgICAgICAgICAgICAgICAgICAgICAgICAgICAgICAgICAgICAgICAgICAgICAgICAgICAgICAgICAgICAmI3hhOyAgICAgICAgICAgICAgICAgICAgICAgICAgICAgICAgICAgICAgICAgICAgICAgICAgICAgICAgICAgICAgICAgICAgICAgICAgICAgICAgICAgICAgICAgICAgICAgICAgICAmI3hhOyAgICAgICAgICAgICAgICAgICAgICAgICAgICAgICAgICAgICAgICAgICAgICAgICAgICAgICAgICAgICAgICAgICAgICAgICAgICAgICAgICAgICAgICAgICAgICAgICAgICAmI3hhOyAgICAgICAgICAgICAgICAgICAgICAgICAgICAgICAgICAgICAgICAgICAgICAgICAgICAgICAgICAgICAgICAgICAgICAgICAgICAgICAgICAgICAgICAgICAgICAgICAgICAmI3hhOyAgICAgICAgICAgICAgICAgICAgICAgICAgICAgICAgICAgICAgICAgICAgICAgICAgICAgICAgICAgICAgICAgICAgICAgICAgICAgICAgICAgICAgICAgICAgICAgICAgICAmI3hhOyAgICAgICAgICAgICAgICAgICAgICAgICAgICAgICAgICAgICAgICAgICAgICAgICAgICAgICAgICAgICAgICAgICAgICAgICAgICAgICAgICAgICAgICAgICAgICAgICAgICAmI3hhOyAgICAgICAgICAgICAgICAgICAgICAgICAgICYjeGE7PC9tZXRhZGF0YT4mI3hhOzxwYXRoIGZpbGw9IiNmZmYiIGQ9Ik0yMSw0MS41YTkuMjUsOS4yNSwwLDAsMS05LjI1LTkuMjIsOSw5LDAsMCwxLDEuNDctNWwtLjQ3LS4wOGE5LDksMCwwLDEtMi41NC0xLjA2LDcuNzMsNy43MywwLDAsMS0xLjg1LjIyQTcuODcsNy44NywwLDAsMSw2LDExLDguNDgsOC40OCwwLDAsMSwxNC4zNCwzLjdhNy42MSw3LjYxLDAsMCwxLDEuMjUuMUExMy40MiwxMy40MiwwLDAsMSwyNC40MS41LDEzLjU2LDEzLjU2LDAsMCwxLDM3LjcyLDExLjc5YTcuODcsNy44NywwLDAsMS00LjA2LDE0LjYyLDcuNzIsNy43MiwwLDAsMS0yLjg1LS41NEExMy45MywxMy45MywwLDAsMSwyOSwyNi43bC0uNDguMTZhOS4xMyw5LjEzLDAsMCwxLDEuNzksNS40MkE5LjI1LDkuMjUsMCwwLDEsMjEsNDEuNVoiLz48cGF0aCBmaWxsPSIjZmZmIiBkPSJNMjQuNDEsMUExMywxMywwLDAsMSwzNy4yNywxMi4xMWE3LjM3LDcuMzcsMCwwLDEtNi40OSwxMy4yMSwxMy43LDEzLjcsMCwwLDEtMiwuOTFzLS40MS4xNS0xLjE3LjM1YTguNzMsOC43MywwLDEsMS0xNS4zNSw1LjdBOC42LDguNiwwLDAsMSwxNC4xMiwyN2wtMS4yNi0uMjFhOC4zNSw4LjM1LDAsMCwxLTIuNTUtMS4xQTcuMzcsNy4zNywwLDEsMSw2LjQ1LDExLjQyLDgsOCwwLDAsMSwxNC4zNCw0LjJhNy40NSw3LjQ1LDAsMCwxLDEuNC4xM0ExMi45MywxMi45MywwLDAsMSwyNC40MSwxbTAtMWExNCwxNCwwLDAsMC05LDMuMjcsMTAuMTMsMTAuMTMsMCwwLDAtMS4wOS0uMDcsOSw5LDAsMCwwLTguOCw3LjQ2QTguMzcsOC4zNywwLDAsMCw4LjM4LDI2LjkxYTgsOCwwLDAsMCwxLjc2LS4xOSw5LjcyLDkuNzIsMCwwLDAsMi4zMSwxLDkuNDYsOS40NiwwLDAsMC0xLjE4LDQuNiw5Ljc1LDkuNzUsMCwwLDAsMTkuNSwwLDkuNjIsOS42MiwwLDAsMC0xLjUxLTUuMTYsMTMuMDksMTMuMDksMCwwLDAsMS41OC0uNyw4LjIsOC4yLDAsMCwwLDIuODIuNDksOC4zNyw4LjM3LDAsMCwwLDQuNTItMTUuNDJBMTQuMDcsMTQuMDcsMCwwLDAsMjQuNDEsMFoiLz48cGF0aCBmaWxsPSJub25lIiBkPSJNMTcuMzIsMzEuNTRhMTMsMTMsMCwwLDEsMS4yMi00Ljg1LDEyLjYsMTIuNiwwLDAsMSwuOC0xLjQ0LDcuMjcsNy4yNywwLDAsMC01LjU1LDYuMjloMy41M1oiLz48cGF0aCBmaWxsPSJub25lIiBkPSJNMTguODIsMzNhMTEuNDcsMTEuNDcsMCwwLDAsMS43Niw1LjM1Yy4xNC4yMS4yOC40My40NC42NC4xNS0uMjEuMy0uNDMuNDMtLjY0QTExLjQ4LDExLjQ4LDAsMCwwLDIzLjIyLDMzWiIvPjxwYXRoIGZpbGw9Im5vbmUiIGQ9Ik0yMy4yMiwzMS41NGExMS4zOSwxMS4zOSwwLDAsMC0xLjY5LTUuMzVjLS4xNi0uMjYtLjMzLS41MS0uNTEtLjc2LS4xOC4yNS0uMzUuNS0uNTIuNzZhMTEuNjIsMTEuNjIsMCwwLDAtMS42OSw1LjM1WiIvPjxwYXRoIGZpbGw9Im5vbmUiIGQ9Ik0yMi41MSwxMS4yMUExLjQ5LDEuNDksMCwxLDAsMjEsMTIuNywxLjQ5LDEuNDksMCwwLDAsMjIuNTEsMTEuMjFaIi8+PHBhdGggZmlsbD0ibm9uZSIgZD0iTTEzLjM4LDE2LjA1YTEuNDksMS40OSwwLDEsMCwxLjQ5LDEuNDlBMS40OSwxLjQ5LDAsMCwwLDEzLjM4LDE2LjA1WiIvPjxwYXRoIGZpbGw9Im5vbmUiIGQ9Ik0yOC42NSwxOWExLjQ5LDEuNDksMCwxLDAtMS40OS0xLjQ5QTEuNDksMS40OSwwLDAsMCwyOC42NSwxOVoiLz48cGF0aCBmaWxsPSJub25lIiBkPSJNMjIuNywyNS4yNWExMi41MywxMi41MywwLDAsMSwuNzksMS40NCwxMi44NiwxMi44NiwwLDAsMSwxLjIzLDQuODVoMy41MkE3LjI2LDcuMjYsMCwwLDAsMjIuNywyNS4yNVoiLz48cGF0aCBmaWxsPSJub25lIiBkPSJNMTcuMzMsMzNIMTMuNzlhNy4yNyw3LjI3LDAsMCwwLDUuNjQsNi4zLDExLjg3LDExLjg3LDAsMCwxLS44Mi0xLjQyQTEyLjg5LDEyLjg5LDAsMCwxLDE3LjMzLDMzWiIvPjxwYXRoIGZpbGw9Im5vbmUiIGQ9Ik0yNC43MSwzM2ExMy4wOSwxMy4wOSwwLDAsMS0xLjI5LDQuODgsMTMuMzEsMTMuMzEsMCwwLDEtLjgxLDEuNDJBNy4yNiw3LjI2LDAsMCwwLDI4LjI0LDMzSDI0LjcxWiIvPjxwYXRoIGZpbGw9IiMyYzU5NjciIGQ9Ik0zNy4yNywxMi4xMUExMywxMywwLDAsMCwxNS43NCw0LjMzYTcuNDUsNy40NSwwLDAsMC0xLjQtLjEzLDgsOCwwLDAsMC03Ljg5LDcuMjIsNy4zNyw3LjM3LDAsMSwwLDMuODYsMTQuMjMsOC4zNSw4LjM1LDAsMCwwLDIuNTUsMS4xLDkuNjQsOS42NCwwLDAsMSwxLjA4LTEuMzEsNyw3LDAsMCwxLTMuMDgtMS4yMWwtLjMtLjIyLS4zNi4xMmE2LDYsMCwwLDEtMS44Mi4yOUE1Ljg4LDUuODgsMCwwLDEsNy4zLDEyLjc1bC42LS4xMVYxMmE2LjQ3LDYuNDcsMCwwLDEsNi40NC02LjM0LDYuNjYsNi42NiwwLDAsMSwxLjQ1LjE3bC40LjA5LjI5LS4yN2ExMS40OSwxMS40OSwwLDAsMSwxOS4zNiw3bDAsLjQuMzcuMThhNS44OCw1Ljg4LDAsMCwxLTIuNTksMTEuMTcsNS44LDUuOCwwLDAsMS0yLjYtLjYxbC0uMzYtLjE4LS4zNS4yMUExMS40OCwxMS40OCwwLDAsMSwyNy42NywyNWE5Ljc3LDkuNzcsMCwwLDEsMS4xMiwxLjIsMTMuNywxMy43LDAsMCwwLDItLjkxLDcuMjcsNy4yNywwLDAsMCwyLjg4LjU5LDcuMzcsNy4zNywwLDAsMCwzLjYxLTEzLjhaIi8+PHBhdGggZmlsbD0iIzJjNTk2NyIgZD0iTTI0LjM3LDI0LjIzVjE4LjI4aDEuNGEzLDMsMCwxLDAsMC0xLjQ5SDIyLjg4djdhMTAuMDYsMTAuMDYsMCwwLDAtMS4xMi0uMTZWMTQuMDlhMywzLDAsMSwwLTEuNDksMFYyMy42YTkuODgsOS44OCwwLDAsMC0xLjExLjE2di03aC0yLjlhMywzLDAsMSwwLDAsMS40OWgxLjQxdjUuOTVhOC43NSw4Ljc1LDAsMSwwLDYuNywwWm00LjI4LTguMThhMS40OSwxLjQ5LDAsMSwxLTEuNDksMS40OUExLjQ5LDEuNDksMCwwLDEsMjguNjUsMTYuMDVaTTEzLjM4LDE5YTEuNDksMS40OSwwLDEsMSwxLjQ5LTEuNDlBMS40OSwxLjQ5LDAsMCwxLDEzLjM4LDE5Wm02LjE1LTcuODJBMS40OSwxLjQ5LDAsMSwxLDIxLDEyLjcsMS40OSwxLjQ5LDAsMCwxLDE5LjUzLDExLjIxWm0xLDE1Yy4xNy0uMjYuMzQtLjUxLjUyLS43Ni4xOC4yNS4zNS41LjUxLjc2YTExLjM5LDExLjM5LDAsMCwxLDEuNjksNS4zNUgxOC44MUExMS42MiwxMS42MiwwLDAsMSwyMC41LDI2LjE5Wk0yMSwzOWMtLjE2LS4yMS0uMy0uNDMtLjQ0LS42NEExMS40NywxMS40NywwLDAsMSwxOC44MiwzM2g0LjRhMTEuNDgsMTEuNDgsMCwwLDEtMS43Nyw1LjM1QzIxLjMyLDM4LjU5LDIxLjE3LDM4LjgxLDIxLDM5Wk0xOS4zNCwyNS4yNWExMi42LDEyLjYsMCwwLDAtLjgsMS40NCwxMywxMywwLDAsMC0xLjIyLDQuODVIMTMuNzlBNy4yNyw3LjI3LDAsMCwxLDE5LjM0LDI1LjI1Wk0xMy43OSwzM2gzLjU0YTEyLjg5LDEyLjg5LDAsMCwwLDEuMjgsNC44OCwxMS44NywxMS44NywwLDAsMCwuODIsMS40MkE3LjI3LDcuMjcsMCwwLDEsMTMuNzksMzNabTguODIsNi4zYTEzLjMxLDEzLjMxLDAsMCwwLC44MS0xLjQyQTEzLjA5LDEzLjA5LDAsMCwwLDI0LjcxLDMzaDMuNTNBNy4yNiw3LjI2LDAsMCwxLDIyLjYxLDM5LjMzWm00LjUxLTcuNzloLTIuNGExMi44NiwxMi44NiwwLDAsMC0xLjIzLTQuODUsMTIuNTMsMTIuNTMsMCwwLDAtLjc5LTEuNDQsNy4yNiw3LjI2LDAsMCwxLDUuNTQsNi4yOVoiLz48L3N2Zz4=;container=0;" vertex="1" parent="OeXCMGSgX0iGmx0cAqVo-1">
          <mxGeometry x="695.8605000000002" y="169" width="42" height="42" as="geometry" />
        </mxCell>
        <mxCell id="jVQFfvSJNSyhb4Hxbe7O-33" value="Ziel" style="text;strokeColor=none;align=center;fillColor=none;verticalAlign=middle;whiteSpace=wrap;rounded=0;spacing=0;rotation=0;html=1;fontColor=#000000;container=0;" vertex="1" parent="OeXCMGSgX0iGmx0cAqVo-1">
          <mxGeometry x="917.815" y="206.99874999999793" width="39.37" height="28.3464" as="geometry" />
        </mxCell>
        <mxCell id="jVQFfvSJNSyhb4Hxbe7O-34" value="&lt;font color=&quot;#ffffff&quot;&gt;&lt;b&gt;3&lt;br&gt;&lt;/b&gt;&lt;/font&gt;" style="rounded=1;whiteSpace=wrap;html=1;fillColor=#000000;strokeColor=#FFFFFF;fontColor=#161513;fontFamily=Calibri;labelBackgroundColor=none;align=center;arcSize=50;verticalAlign=middle;container=0;" vertex="1" parent="OeXCMGSgX0iGmx0cAqVo-1">
          <mxGeometry x="927.5" y="226.38000000000102" width="20" height="20" as="geometry" />
        </mxCell>
      </root>
    </mxGraphModel>
  </diagram>
</mxfile>
